<svg id="Camada_1" data-name="Camada 1" xmlns="http://www.w3.org/2000/svg" viewBox="0 0 514.85 445.73"><defs><style>.cls-1{fill:#5e509d;}.cls-2{fill:#499976;}.cls-3{fill:#fd9083;}.cls-4{fill:#985eca;}.cls-5{fill:#4a9c76;}.cls-6{fill:#fe4864;}.cls-7{fill:#f79282;}.cls-8{fill:#5a9669;}.cls-9{fill:#76517f;}.cls-10{fill:#5c9274;}.cls-11{fill:#fe9083;}.cls-12{fill:#fc4964;}.cls-13{fill:#32706c;}.cls-14{fill:#73448d;}.cls-15{fill:#496283;}.cls-16{fill:#8e64a6;}.cls-17{fill:#d6ebc9;}.cls-18{fill:#a67e77;}.cls-19{fill:#fcfcfd;}.cls-20{fill:#326f6c;}.cls-21{fill:#fc9083;}.cls-22{fill:#fb9084;}.cls-23{fill:#da5d73;}.cls-24{fill:#c06e64;}.cls-25{fill:#44377d;}.cls-26{fill:#e6dff6;}.cls-27{fill:#4c6186;}.cls-28{fill:#9b5584;}.cls-29{fill:#cec5f0;}.cls-30{fill:#e0d8f2;}.cls-31{fill:#50407b;}.cls-32{fill:#6a315a;}.cls-33{fill:#fafafb;}.cls-34{fill:#473e74;}.cls-35{fill:#563a78;}.cls-36{fill:#fac3ba;}.cls-37{fill:#c2b7e8;}.cls-38{fill:#397068;}.cls-39{fill:#c8e6bd;}.cls-40{fill:#c9e5c1;}.cls-41{fill:#dce9c7;}.cls-42{fill:#c8dea0;}.cls-43{fill:#bf384b;}.cls-44{fill:#f8f9f8;}.cls-45{fill:#da6c5d;}.cls-46{fill:#fd9084;}.cls-47{fill:#7c4584;}.cls-48{fill:#f86970;}.cls-49{fill:#c66599;}.cls-50{fill:#903f45;}.cls-51{fill:#794587;}.cls-52{fill:#b05e86;}.cls-53{fill:#d4efd5;}.cls-54{fill:#bd7065;}.cls-55{fill:#dc6d5e;}.cls-56{fill:#f99186;}.cls-57{fill:#7c4686;}.cls-58{fill:#f98290;}.cls-59{fill:#fdaebd;}.cls-60{fill:#fad4ce;}.cls-61{fill:#9b7eb1;}.cls-62{fill:#e66a81;}.cls-63{fill:#eccde8;}.cls-64{fill:#61509b;}.cls-65{fill:#c0bfdd;}.cls-66{fill:#dbdaef;}.cls-67{fill:#dadcf0;}.cls-68{fill:#d0d1d3;}.cls-69{fill:#d1d3da;}.cls-70{fill:#d2d2d9;}.cls-71{fill:#d5d4d7;}.cls-72{fill:#d0cfd7;}.cls-73{fill:#d1d2d5;}.cls-74{fill:#d0d0d7;}.cls-75{fill:#d3d2dc;}.cls-76{fill:#d2d3d6;}.cls-77{fill:#d4d7e2;}.cls-78{fill:#cdcdd1;}.cls-79{fill:#d6d6dc;}.cls-80{fill:#cbe8db;}.cls-81{fill:#ceecd9;}.cls-82{fill:#bf6e66;}.cls-83{fill:#f84964;}.cls-84{fill:#5e5293;}.cls-85{fill:#e0e5e6;}.cls-86{fill:#e3e6e7;}.cls-87{fill:#fab1a9;}.cls-88{fill:#724590;}.cls-89{fill:#fa6773;}.cls-90{fill:#f76973;}.cls-91{fill:#8b3f5a;}.cls-92{fill:#9e4c59;}.cls-93{fill:#c86262;}.cls-94{fill:#843147;}.cls-95{fill:#fa9084;}.cls-96{fill:#f74964;}.cls-97{fill:#fbb1a9;}.cls-98{fill:#fdddd5;}.cls-99{fill:#6f4d7f;}.cls-100{fill:#bcc0e0;}.cls-101{fill:#a7aebb;}</style></defs><path class="cls-1" d="M201.94,436.91c-25.52,6.34-51.29,10.75-77.67,7.42-16.92-2.13-32-7.94-39-25.34a45.37,45.37,0,0,1-2.46-25.24c-2-7,.12-12.45,6-16.62,1.7-2.5,4.41-4.3,5.21-7.43-.49-2.65,1.5-3.94,3-5.44,12.34-12.1,27.21-19.93,43.39-25.55,7.74-4.41,17-4.5,24.83-8.59a7.72,7.72,0,0,1,5.31-.38c6.63,1.46,12.42-1.64,18.44-3.41,3.3-1,3.79-3.78,3.82-6.68.05-6.13.31-12.28-.68-18.39,1.41-5.65-.78-11.53,1.21-17.16.52-1.48.59-3.12,1.52-4.49a6,6,0,0,1,4.88-2.43c18.36,2.66,36.79,4.39,55.39,4,11.2-.24,22.42.25,33.62-.33,3.59,1.19,7.45.66,11.06,1.71,2.49.72,4.92,1.57,6.35,4,1.95,4.41-.56,8.23-2,12a212.59,212.59,0,0,0-6.74,21.7c-2.05,7.48-1.4,14.61,2.69,21.32a4.23,4.23,0,0,1,.26,1.93c-.89,3.13-3.54,3.72-6.16,3.74a82.29,82.29,0,0,0-33.2,7.4,11,11,0,0,1-9.88-.56c-11.26-5.83-23.61-7.23-35.9-9.09-6.62-1-10.61,1.73-13.5,7.14-4.43,3.53-3.38,9.16-5.19,13.7-2.33,5.89-1.52,12.85-6.13,18-2.21,1.35-4.24-.1-6.37-.34a224.94,224.94,0,0,0-27.42-1.83c-4.34,0-7.72-.67-10.52-4.08a15.49,15.49,0,0,0-4.93-3.5,4.55,4.55,0,0,1,1,.6c2.15,1.68,6,2.88,5.33,5.78s-4.51,1.32-7,1.64c-2.17.28-4.13,1.68-5.85,1.29,11.78-2.9,24.29-1.69,36.73-1.14a77.42,77.42,0,0,1,16.52,2.23,4.34,4.34,0,0,1,3.25,2.34,21.81,21.81,0,0,1,.41,5.64c-.12,2.15.51,4.44-.52,6.43-2.59,5,.67,5.17,4.21,5.44,3.7.28,7.54-.94,11.08,1-.71,3.67-.71,3.67-6.32,2.57-.73-.36-.54.82-.28.06.08-.24.25-.1.58-.05,2.93.46,2.35,2.61,2.28,4.54-1,3.45-4.09,5.23-6.26,7.74-2.62,3-4.21,6.21-2.43,10.23.59,2.45,2.55,2.53,4.54,2.78S203,433.65,201.94,436.91Z"/><path class="cls-1" d="M312.5,280.23l.75,19.21a119.61,119.61,0,0,1,1.17,19.66c0,6.55,1.08,7.14,7.33,8.52,7.5,1.65,14.94,3.66,22.39,5.53a36.31,36.31,0,0,0,8.73,1.56c2.74-.46,4.62,1.84,7.11,2.2,21.34,6.47,40.48,16.1,55.07,33.89a42.53,42.53,0,0,1,10.19,24.75c1.88,9.91,2.5,19.55-5.71,27.35-11.44,18.17-29.79,21.57-49.09,22.45-16.91.76-33.6-1.52-50.17-4.79-2.55-.5-5.14-.83-7.7-1.24-16.47.38-31.45-5.08-46.12-11.69-1.68-.76-4.55-.76-4.41-3.24.12-2,2.7-1.92,4.32-2.53a4.45,4.45,0,0,0,1.77-1.53,5.58,5.58,0,0,0,1-1.5c2.86-8.57,2.86-8.64,12.23-8.56,10.2.1,20.39-.1,30.59,0,2.63,0,5.27.15,7.05-2.31,2-2.46,1.22-5.19,1-8-.2-3-1.93-6.28.68-9.14,7-4.35,15.13-3.46,22.75-4.31,10.26-1.15,20.68-.25,31,.84,1.33.14,2.25,1.17,3.83,1.9-2.93-2.49-3.21-5.23-1.8-7.9,2.2-4.17,1.48-9,3.51-13.2.46-.95-.29-1.91-.92-2.71-1.82-2.62-4.75-3.49-7.47-4.62-8.06-3.34-16.26-6.33-24.22-9.89-4.28-1.92-7.54-1.93-9.72,2.87a5.64,5.64,0,0,1-4.5,3.52c-6.05-.1-12.12.87-18.09-.68-.37-.14-.87-.17-1.08-.43-4.29-5.27-10.08-9-14.72-13.85l.09.14c-5.07-8-4.95-16.47-2.46-25.2,2.13-7.43,4.09-15,7.3-22,2.4-5.23,1-11.08,3.68-16.08a3,3,0,0,1,1.62-1.08C311.11,278,311.92,278.94,312.5,280.23Z"/><path class="cls-2" d="M423.66,395.33c-3.5-20.92-17.71-33.57-34.76-43.55a132.73,132.73,0,0,0-29.42-13.17,3.83,3.83,0,0,1-.6-4.93c2.48-4.19,4.39-8.88,9-11.43,4.54-.9,8-5.69,13.33-3.66,5.34.2,7.59,4.9,11.41,7.72-3.4-3.06-7.12-5.64-7.65-10.49-3.33-3.06-3-6.41-1-10.08,4.87-9.08,12.29-15.78,20.33-21.93l2.15-.35c2.27-1.63,4.61-.54,6.94-.21l2.6.71c1.13-.22,2.95.38,1.59-2.06-4.09-7.31-3.66-8.61,3.46-12.58,16-9.69,32.4-18.2,51.39-20,12.56-1.19,25.19-1.63,37.31,2.69,6.31,2.25,6.77,5,1.53,9.13a104.18,104.18,0,0,1-14.54,9.38c-3.43,1.86-7.37,1.38-11.12.22-2.09-.65-4.2-1.27-6.33-1.77-3-.7-6.89-1.3-7.81,2s3.46,3,5.53,4.15c2.33,1.34,5.91,1.32,6.38,4.67.35,2.52-1.55,3.91-4.16,4-6.38,2-9.78,7.71-14.49,11.79-1.39,1.2-2.3,3.63-4.71,2.92s-2.27-2.94-2.39-4.91c-.1-1.69-.6-2.73-2.5-1.6a18.9,18.9,0,0,1-2.07,1,51.36,51.36,0,0,1-6.8,6.39,54.46,54.46,0,0,1-5.6,4.92c-.95.63-2.42,1-2.26,2.41s1.68,1.37,2.82,1.49c.59.07,1.19,0,1.78.07,2,.09,4.2,0,4.88,2.46s-1.83,2.71-2.91,4c-3.65,1.59-7.35,3.06-10.91,4.82a3.75,3.75,0,0,0-2.08,5c1,2.4,3.16,2.37,5.09,1.81,4-1.17,7.89-2.82,11.91-3.95s6.34.23,5.1,4.83a39.35,39.35,0,0,0-1.63,14.14,18.24,18.24,0,0,1-13.53,24.74c-2.39.5-5.29-.41-7.48,2.46,3.33,2.35,6.18.29,9-.56,8.51-2.57,13.49-1.46,17.8,4.16,4.87,6.33,4.2,12.74-1.89,18a6,6,0,0,1-.93.75C445.38,396.46,434.71,397.19,423.66,395.33Z"/><path class="cls-3" d="M135.4,276.22c-.39-.45-.69-1.13-1.17-1.3-9.85-3.3-11.13-11.13-10.64-19.9a18.45,18.45,0,0,1,6-16.91,6.62,6.62,0,0,0,2.31-4.76c6.71-11.95,12.54-24.51,20.39-35.65,7.18-10.19,14.36-20.44,21.54-30.64a106.59,106.59,0,0,1,20.61-21.42c3.39,1.53,4,4.83,4.72,7.88,2.8,12.16,1.82,24.13-2,36-4,12.46-3.37,25.61-5.5,38.36-.52,3.12,1.3,2.84,3.2,1.9,10.74-5.35,21.6-10.46,32.16-16.16,2.08-1.13,3-3.12,4-5,2.44-4.32,3.91-9.21,7.53-12.85a112.38,112.38,0,0,1,12.65-3.61c5.34-1.07,8.1,1.48,7.78,6.88-.41,6.88-2.4,13.08-9.07,16.5-3.31,1.7-4.21,4.58-4.83,7.77-8.91,13.5-17.92,26.92-31.32,36.59-5,6-12.64,8.86-17.8,14.7-5.76.27-10.9,3.14-16.53,3.94C164.49,283.28,149.77,283.14,135.4,276.22Z"/><path class="cls-4" d="M192.38,81c4.7-5.69,9.53-11.28,14.07-17.09s6.24-12.48,6.14-19.64c-.15-10.46,2.8-19.26,12.17-25.1,3.5-2.18,5.29-5.91,7.76-9a37.14,37.14,0,0,1,10.74-7.3c6.05-2.66,11.33-.28,12,5.11-1.5,1.9-3.81,1.87-5.88,2.49-5.7,1.68-7.31,4.47-6.39,10.72a148.08,148.08,0,0,1,4.13,23.55c-.25,1.58.35,3.18-.07,4.75-1.38,3.95-2.09,8.22-5.2,11.38-1.76,1.94-4.24,3.35-4.59,6.31a14.38,14.38,0,0,1-2,3.59,5.91,5.91,0,0,1-1.25,1c-3.84,1.76-4.32,4.88-3.47,8.54a11.92,11.92,0,0,1-.61,4.11c-3,3.43.17,6.72.24,10.08,0,4.54,2.83,8.1,4.1,12.2.87,2.82,1.86,5.6,1.65,8.63-1.27,3.48-.88,7.2-1.5,10.78-4.15,10.1-12.91,13.56-22.65,15.63-3.59.7-7.08,1-9.94-2-1.48-2.9-4.67-2.93-7.14-4-16.77-7-21.92-21.63-12.92-37.56C185.08,92.35,188.82,86.7,192.38,81Z"/><path class="cls-5" d="M104.36,325.7c1.43-4.19,4.58-5,8.52-4.38a27.06,27.06,0,0,1,17.81,10.75c.68.88.82,2.33,2.46,2,4.53,0,6.65,2.67,7.45,6.78-15,5.86-29.49,12.71-41.09,24.37A63.31,63.31,0,0,1,94,369.7a31.11,31.11,0,0,0-5.23.94c-8.92,3.17-11,2.63-16.66-4.76-2.4-3.13-4.7-6.35-7.17-9.43-3.86-4.81-3.63-5.6,2.37-7.27.76-.21,1.5-.52,2.24-.78,5.19-5-.84-3.74-2.67-4.82-8.64,1.89-16-2.43-23.82-4.73a27.68,27.68,0,0,0-8.13-1.14c-8-.43-8.3-.77-7-8.51-1.77.92-3.76,1.32-5.45,2.39-5.77,4.23-12.32,2.77-18.54,2.09-4.5-.49-5-3.05-1.94-6.51,7.65-8.64,17.69-13.33,28.32-17,1.87-.65,3.9-.86,5.4-2.34,8.41-.12,16.73-2,25.19-1.21,3.17.31,6.52.15,8.42,3.49.87,3.51,3,2.37,5,1.31,10.75-3.18,19.62.92,27.92,7.18.37,3.42.87,6.84,0,10-.56.93.62.58-.15.35-.11,0,0-.2.15-.56A7.56,7.56,0,0,1,104.36,325.7Z"/><path class="cls-6" d="M201.81,139.76l10.93,0c2.24,1.07,2.94,3.12,3.37,5.32,3.2,16,9.19,30.46,23.53,40a5.66,5.66,0,0,1,1.5,1.85c1.46,3.47.25,6.4-1.89,9.14-3.71,9-6,18.62-16.87,22.92-10,4-19.37,9.5-29,14.31-1.23.61-2.55,1.85-3.87,1.14-1.72-.94-1-2.93-.75-4.34,3-16.17,2.69-32.81,7.9-48.74,3.87-11.86,1.93-24-2.17-35.76C196.42,143.08,200.47,143.1,201.81,139.76Z"/><path class="cls-7" d="M269.77,421.91c-1.18,3.07-4.12,1.67-7.65,2.73,17.14,6.77,34,10.07,50.45,14.68a6.56,6.56,0,0,0-4.63,2.48c-3.92,5.06-8.87,4.4-14.09,2.62a85.78,85.78,0,0,1-24.59-13.36c-6.2-4.75-13.19-6.29-20.57-7.16-4.71-2.37-8.78.8-13.12,1.56-2.66.47-5.29,2.23-7.75-.43.34-5.75,5.08-6.24,9-6.7,6.8-.8,13.77-2.74,20.44,1.22,1.08.64,3.22,2.32,4.73,0,.53-.78,1.32-1.79.6-2.72-1.29-1.68-3.3-1.1-5-1.13-7.41-.13-14.81,0-22.21-.06-2,0-4-.11-5.79-1.24s-2.18-2.33-.16-3.66c12.46-1.09,24.93-.36,37.39-.41a4.49,4.49,0,0,1,2.68,1.16C271.09,415,270.6,418.43,269.77,421.91Z"/><path class="cls-8" d="M445,297.49c3.14-1.4,4.42-4.82,7.19-6.62.8.45,1.64,2.75,2.36-.05-.64-3.46,2-2.17,3.43-2.19,1.9,0,2.12,1.24,1.85,2.9s-.22,3.49-.38,6.52c5.35-3.23,8.35-7.41,12-10.81,2.25-2.11,4.33-4.18,7.78-3.43-8.41,6.15-15.08,13.92-21.27,22.21-3.23,4.32-7.17,8-13,8.72,3.48-5.07-.25-4.64-3.54-4.68-2.31,0-5.09.36-5.75-2.74s1.9-3.83,4.25-4.46a4.41,4.41,0,0,1,1.82,1.46c1.65,2.21,3.69,2.47,5.51.53,1.59-1.7,1.29-3.61-.7-5.07C445.76,299.2,444.86,298.69,445,297.49Z"/><path class="cls-9" d="M228.37,425.29c5.7-1.52,11.17-4.14,17.25-3.77,1.23.08,4.26-1.2,3.07,2.38-13.44,3.89-26.87,7.82-40.32,11.67-2.1.6-4.29.9-6.44,1.34-1.31-2.88-4-1.75-6.13-2s-4.4-.47-3.32-3.66c4.83-1.48,9.76.75,14.72-.68,4.59-1.32,9.2-2.49,13.66-4.22C223.27,425.39,225.69,424.39,228.37,425.29Z"/><path class="cls-10" d="M88.75,377.13c-2.46,5.38-5,10.72-6,16.63-1.25-1.51-2.83-2.84-3.71-4.54C75.68,382.68,79.89,377.49,88.75,377.13Z"/><path class="cls-11" d="M313.8,145.77c12.76,7.79,19.95,20.45,28.17,32.16,14.93,21.25,29.33,42.82,38.7,67.26a37.9,37.9,0,0,1,1.43,3.94c4.06,16.42,1.35,21.55-15,26.08a73.3,73.3,0,0,1-47.66-2.51c-2.44-1-5.17-3.15-6.61,1.24-2.15-1-2.33-3.17-3.08-5,.52-13.1-.74-25.86-7-37.73-.82-1.56-1.46-3.35-.29-5.12,2.15-1.7,4.11-.62,6.13.36s3.9,2.83,7.23,2.79c-2.55-13.82-1.1-28-5.4-41.37-3.2-10-3.19-20.1-2.36-30.25C308.43,153.23,309,148.32,313.8,145.77Z"/><path class="cls-12" d="M313.8,145.77c-5.51,14.61-4.86,29.12-.14,43.88,3.17,9.91,2,20.54,3.71,30.73.73,4.29,1.23,8.61,1.91,13.41-6.74-.08-10.64-6-16.47-7.39-2.2.25-2.88-1.53-3.87-2.89-1.36-2.71-2.56-5.52-4.65-7.8-5.91-9.66-12.34-19-18.2-28.68a6.47,6.47,0,0,1-1-4.36c.91-3.61,3.52-6.25,5.53-9.19a55.57,55.57,0,0,0,8.52-17.73,10.13,10.13,0,0,1,3.62-6.06,8.77,8.77,0,0,1,2.77-1.05c3.64-1.06,5.76-2.42,1.43-5.63-2.47-1.82-3.69-4.21-1.61-7.19,3.9-2.09,6.78.58,9.85,2.16a53,53,0,0,1,8.25,5.72l.4.81C313.81,144.93,313.81,145.35,313.8,145.77Z"/><path class="cls-13" d="M367.88,322.25c-.8,4-3.54,6.85-5.85,10a10.61,10.61,0,0,0-2.55,6.4c-2.56.85-3.81-1.92-6-2.16-8.28-1.47-16-5.2-24.42-6.11-3.64-.39-6.95-2.66-10.76-2.83-.53,0-1-.63-1.44-1-4-3.52-4.57-14.71-.9-18.8,1.53,4.24,4.31,6.47,9.06,6.12,5-.37,8.2-2.73,9.57-7.54.6-2.11,1.38-4.17,1.82-6.31,1.18-5.67,4.11-9.37,10.28-9.9,6.86-.59,11.83,2.13,14.58,8.09,1.87,4.05,2.27,8.45,3,12.75A38.3,38.3,0,0,0,367.88,322.25Z"/><path class="cls-14" d="M240.44,20.94c-.31-10.52,2.42-13,14.43-13.25a4,4,0,0,1,4.89-1.24c2.16,2.71,4.49,2.75,7.81,1.6,17.39-6,34.05,5.49,32.85,23.78-1,15.3,1.94,28.72,10.78,41.16,4,5.6,4.88,12.13,3.12,18.89.13,2.16.05,4.26-1.94,5.7a31.42,31.42,0,0,1-17.67-1.32c-3-4.6.24-8.2,2-12,9.31-4.47,9.09-13.64-.22-18.13a4.53,4.53,0,0,1-1-1.53c-.58-4.29-.07-8.71-1.59-12.89-1.52-12.32-6.23-22.93-15.85-31.29-6.81-5.91-13.77-8.12-22.6-4.54C250.59,17.81,246.3,21.83,240.44,20.94Z"/><path class="cls-15" d="M316,307.68c-1.57,5.67-2.47,11.37,1.75,16.31,3.6,4.21,9.11,3.95,13.92,5.24,7.42,2,15.1,3.19,21.85,7.22-6.33,1.08-11.88-2.27-17.86-3.21-5.56-.88-10.93-2.9-16.48-3.86-3.61-.62-6.41-1.95-6.44-5.65-.05-8.1-1-16.23.52-24.29A17.33,17.33,0,0,1,316,307.68Z"/><path class="cls-16" d="M259.76,6.45a8.1,8.1,0,0,1-4.89,1.24c-2.15-4.89-5.94-5.11-10.18-3.31s-8.12,3.8-12.17,5.72C240.55-1.93,250.77-3.3,259.76,6.45Z"/><path class="cls-17" d="M396,329.79c-6.68-3.28-10.06-8.16-14.83-11.2a5,5,0,0,0,3.76-2.77"/><path class="cls-18" d="M311.64,269.22c1.39,1.33.89,3.13,1.2,4.73-.12,2.09-.23,4.19-.34,6.28l-2.57-1.34C307.47,275.14,308.89,272.06,311.64,269.22Z"/><path class="cls-19" d="M299.28,342.38c7.84.83,11.94,6.3,15.52,12.42a5.48,5.48,0,0,1,.47,2.59c1.93,11.06,5.12,21.92,5.59,33.24a7.85,7.85,0,0,0-.45,1.9c0,2.45.24,5-3.08,5.55-6.39,0-12.77-.39-19.16-.5a95.5,95.5,0,0,0-32.89,5.4c-7.95,3.28-15.71,1.11-23.48-.86-13.54-6.25-27.92-7.17-42.53-6.78-3.6.1-7.48.42-8.21-4.64.3-10.38,4.21-20,6.48-30,.76-3.31-.08-7.39,3.31-9.9.8-7.75,5.6-8.95,12.43-8.29,14.2,1.38,28.27,3,40.81,10.55a4.24,4.24,0,0,0,4.87,0c11-5.92,23-7.89,35.26-8.46C296,344.54,298.93,346.07,299.28,342.38Z"/><path class="cls-20" d="M140.6,340.87l-7.45-6.78c-1.59-2.17-1.15-4.36-.52-6.79q2.51-9.54,4.48-19.21c.85-4.18,2.73-4.43,5.72-2,2.34,1.87,4.61,3.84,7,5.65,1.5,1.15,3.28,1.88,4.85.24a2.94,2.94,0,0,0-.66-4.71c-11.67-7.12-14.64-19.34-18.61-31,.51-1.12,1.35-1.24,2.42-.87,13.89,4.85,28,4.56,42.1,1.43,3.33,3.28.79,5.55-1.28,7.9,9.06.76,15.13,8.35,14.43,18.15.68,4.84.25,9.69.28,14.53-.63,3.31-3.31,4.69-5.88,6.15-2.22,1.26-4.69,2.18-6,4.61-2.66,4.17-7.78.81-10.91,3.55a19.72,19.72,0,0,0-6.8,1.56C156.16,336.11,148.33,338.37,140.6,340.87Z"/><path class="cls-21" d="M289.9,282.92c-30.3,1.6-60.58,2.53-90.5-4.18,0-2.48,2-3,3.67-3.1,13.91-1,24.68-8.52,35.24-16.53a7.54,7.54,0,0,1,1.57-.88,12.41,12.41,0,0,1,2-.36,93.45,93.45,0,0,1,25.28,0,6.16,6.16,0,0,1,3.64,1.45,121.13,121.13,0,0,0,17.73,17.56c1.69,1.32,3.69,2.6,2.89,5.32A1.65,1.65,0,0,1,289.9,282.92Z"/><path class="cls-22" d="M228.37,425.29a59.69,59.69,0,0,1-28.08,8.34,13.31,13.31,0,0,1-7.81-2.4c-3.83-4.85-1.67-8.94,1.88-12.59,2.33-2.4,5.07-4.4,7.64-6.58a5.44,5.44,0,0,1,5.46-2.88c5,1.34,10,.94,15.11,1.08,2.1.06,4.39-.39,5.75,1.92,7,2.37,14.24.59,21.35,1,4.18.27,8.39.06,12.59.06,2.38,0,4.24.31,4.58,3.38s-3.25,3.66-3.7,6.15c-3.16-1.11-6.68.56-9.75-1.37C247.63,417.81,233.28,420.06,228.37,425.29Z"/><path class="cls-23" d="M317.43,396.43c3.9-.2,1.48-3.32,2.29-4.95a1.09,1.09,0,0,1,1.46.35c.92,4.93.17,10.13,2.49,14.84.75,1.51-1.22,1.79-1.52,2.86-3,1.69-6.21.68-9.32.69q-21.7.11-43.43.07c-12.33-.08-24.66-.12-37,0-8.13.09-16.22.18-24-2.67a6.11,6.11,0,0,1-2-1c-4.33-.11-8.66-.18-13-.34-5.1-.19-6.94-2.7-4.75-7.1,1-2.09.9-4.15,1.31-6.22a1.26,1.26,0,0,1,1.58-.19c4.16,1.17,3.11,5.23,4.47,8,4.55,1.2,9.14.51,13.69.42,14.24-.27,28.44.24,42.48,2.68,4.93.86,9.5-.82,14.29-.87,11.21-.1,22.33,1.43,33.54,1.38,3.81,0,7.55-1,11.37-.51,2.1.25,3.49-.65,3.71-2.91A7.38,7.38,0,0,1,317.43,396.43Z"/><path class="cls-24" d="M240.24,259.78c-9,8-18.56,15-30.89,17.35-3.31.63-6.87-.29-9.95,1.61L195.91,280c-2.09-1.81-2.12-3.8-.5-5.93a6,6,0,0,1,3-5.19c5-3.1,9.53-6.85,14.25-10.34,6.81-1.76,13.75-1.42,20.67-1.3C235.94,257.24,238.6,257.18,240.24,259.78Z"/><path class="cls-25" d="M189.79,386.89c-5.21-3.93-11.6-2.6-17.37-3.36-14.28-1.86-28.63-1-42.84,1.59-1.3.23-2.67,1-4.11-1,7.05-1.68,13.83-3.28,21.53-3.55-3.75-5.87-9.78-6.22-14.84-8.53a14,14,0,0,1,13.25,3.66c4,3.79,8.44,5.64,14.06,5.16,10.23-.88,20.29,1.21,30.4,2.29,1.25-.61,2.49-.52,2.69,1C192.8,385.94,191.81,387.06,189.79,386.89Z"/><path class="cls-26" d="M252.51,299.65c-.93,7.92-1.53,15.29-5.68,21.7-1.42,2.18-3.17,4.5-6.21,3.53s-4.23-3.71-3.75-6.69c1.51-9.47,6.51-17.38,11.89-25.05,1.2-1.71,2.43-1.19,2.85.66C252.09,295.9,252.28,298.08,252.51,299.65Z"/><path class="cls-27" d="M192.42,301.19l1.27,1.29c1.76,7.42.87,14.88.43,22.34-.15,2.6-2,3.15-3.92,3.69-6.43,1.77-12.76,4.19-19.65,3.16.57-2.57,2.65-2.48,4.54-2.38,2.39.13,3.89-1.35,5.55-2.6,3.1-3.65,9.32-2.88,11.39-8Z"/><path class="cls-28" d="M189.79,386.89c1.73-1.21,3.2-2.44.08-3.75a247.3,247.3,0,0,0,7.06-28.86c.47-2.47,1.55-3.49,3.92-3.44-1.67,11.27-5.1,22.14-7.53,33.24-.47,2.14-.8,4.31-1.2,6.46-.54.55-.44,1.46-1.08,2l-1.1.46Z"/><path class="cls-29" d="M309.26,279.33c-1.41,9.72-5.07,18.79-8.35,27.95-4.15,11.63-6.9,23.23-1.54,35.24-6.43-6-5.52-13.64-4.31-21,1.56-9.45,5.35-18.32,8.51-27.34.78-2.24,1.21-4.6,1.8-6.9-.78-2.75-1.08-5.44,1-7.85a3.34,3.34,0,0,1,1.52-1A1.24,1.24,0,0,1,309.26,279.33Z"/><path class="cls-30" d="M256.9,293.47c7.61,13.68,9.76,28.41,7.76,43.92C264.09,322.37,262.14,307.6,256.9,293.47Z"/><path class="cls-31" d="M307.51,280.43c-1.18,2.15-.39,4.91-2.14,6.88-4.6-3.42-10.17-3.4-15.46-4.39l1.18-.69A14.24,14.24,0,0,1,307.51,280.43Z"/><path class="cls-32" d="M206.37,406.62l1.44-.38c1.8,1.39,5.9-1.12,5.82,1.91-.09,3.3-4.1,1.83-6.42,2.4-.18,0-.33.22-.49.34L202,412.06c-1.62-3.24-1.62-3.24-9.75-4.35Z"/><path class="cls-33" d="M334.29,355.87c5.6-10.42,5.6-10.42,16.85-5.83,8.11,3.32,16.2,6.7,24.36,9.91a12,12,0,0,1,5.69,4.09c-.1,7.69-3.1,14.57-6.71,21-1.86,3.36-5.92,3.05-9.2,1.55C355,381.9,344.14,378.47,333.74,374c-6-4.43-6.47-7.28-2.52-14.51A11.51,11.51,0,0,1,334.29,355.87Z"/><path class="cls-34" d="M334.59,372.17c10.21,4,20.43,8,30.62,12.15,6,2.43,7.44,1.95,9.88-4.2,2.12-5.33,4.07-10.72,6.1-16.08,3.41,5.42-1.19,10-2,14.91-1.43,8.76-2.23,8.63,5.48,11.7-21.26-3-42.48-4.32-63.52,1.18l-1.45-.34a1.55,1.55,0,0,1-.06-1.12c.11-3.19,2.71-3.82,5-4.27a131.52,131.52,0,0,1,27.15-2.38,59.47,59.47,0,0,1-13-2.14c-2.95-.88-5.71-2.29-7.05-5.19C330.57,373.82,330.45,371.44,334.59,372.17Z"/><path class="cls-35" d="M269.45,408.58c17.58-.32,35.15-.57,52.7.95-2.56,2.39-5.76,2.5-9,2.5-11.36,0-22.72.27-34.07-.09-5.52-.18-8.46,1.09-7.55,7.17.17,1.17.7,3.07-1.78,2.8q-.43-4.92-.88-9.84A2.45,2.45,0,0,1,269.45,408.58Z"/><path class="cls-36" d="M309.26,279.33l-1.39-.47c-2.91-3.67-1-7.81-1.14-11.74a62.55,62.55,0,0,0-5.81-33.45c-.94-2-2.16-3.85-2.52-6-.33-2-1.31-4.46,2-5.11l2.4,3.85a77.38,77.38,0,0,1,8.83,42.83l-1.71,9.66A1.91,1.91,0,0,1,309.26,279.33Z"/><path class="cls-37" d="M334.29,355.87c-.11,1.21.2,2.53-.91,3.47-4.54,1.75-9.26,1.44-13.9.89-2.45-.28-5.12-1-5.53-4.22l.85-1.21C321.22,356.56,327.78,355.73,334.29,355.87Z"/><path class="cls-38" d="M129.61,238.11a112.61,112.61,0,0,1-6,16.91c-4.53-3.22-7.39-7.86-10.13-12.45-2.86-4.77-1.29-7.12,4.37-6.66C121.79,236.23,125.68,237.35,129.61,238.11Z"/><path class="cls-39" d="M74.3,311.39l-5.7,7.4c-.63-3.67-.43-6.22.67-8.71Z"/><path class="cls-40" d="M104.36,325.7c-.58,2.61-1,5.28-3.35,8.12-.86-5.67,1.62-10.38,1.21-15.25C104.21,320.57,102.21,323.75,104.36,325.7Z"/><path class="cls-41" d="M397.12,313.17c-.17,1.65-.5,3.69-2.38,3.45-3.1-.41-3.23-3.56-4-5.87-.49-1.43.2-3.08,1.88-2.9C395.6,308.18,396.7,310.51,397.12,313.17Z"/><path class="cls-42" d="M454.55,290.82c.49.33,1,.62,1.47,1,1.37,1.11,3.35,2.42,1.43,4.18-1.39,1.28-2.86-.49-4.05-1.43a3.22,3.22,0,0,1-1.21-3.69Z"/><path class="cls-43" d="M240.24,259.78c-7.12,0-14.23,0-21.35-.07-2.11,0-4.39.53-6.2-1.21a135.5,135.5,0,0,0,25.52-29c1.45-2.22,2.4-5.15,5.54-5.89,2.47-3.15,6-2.37,9.26-2.4,4.1,0,8.24-.44,12.3.52,2.37.83,3.86,2.69,5.2,4.68a150,150,0,0,0,22.67,26.73c2,1.83,4.47,3.7,2.49,7-2.39,2.38-5.5,2.21-8.39,2-5.63-.47-11.44,1.65-16.89-1.16l-2.45-1.33c-6.73-4.53-9.07-12.24-13.65-18.79-4.58,6.43-6.35,14.81-13.89,18.82Z"/><path class="cls-44" d="M266.89,223.8l-23.13-.19c-1.63-4.72-.51-7.9,4.52-9.87,5.8-2.28,10-11.33,8.8-17.52-.45-2.42-2-3-3.88-2.52a47.62,47.62,0,0,0-7.29,2.61c-2.31,1-4.49,1.71-6.66-.2-2.69-3.28,1.73-5.39,1.36-8.29.82-1.45,2.2-1.8,3.71-1.88a60.55,60.55,0,0,1,18-.28c7.84.11,10.38,2.9,9.78,10.59-.41,5.29.72,10.52.71,15.8C272.77,217,272.47,221.69,266.89,223.8Z"/><path class="cls-45" d="M141.64,255.11c1.88-2.79,4.23-3.87,6.52-5,10.67-5,21.47-9.69,32.79-13.06,1.37-.41,3.39-2.15,4,.16s-2.06,1.76-3.43,2.19c-12.38,4-24.74,8-35.79,15.08A4,4,0,0,1,141.64,255.11Z"/><path class="cls-46" d="M240.44,20.94c3.12-1.77,6.13-3.74,9.36-5.27,16.08-7.64,23.42-4.92,35.55,8.62,6.61,7.37,10,16.63,10.51,26.7,1.38,4.71-.53,9.65,1,14.35h0a4.77,4.77,0,0,1,.78,5.57c-2.12,4.52-2.64,9.56-4.76,14.07-5,11.52-12.75,20.23-25,24.43-8.62,4-17.08,3.51-25.37-1a22.32,22.32,0,0,1-14.3-14.5c-1.13-3.19-4.22-6.35-.12-9.61,9.16-3.67,10.12-5.91,6.12-14.29.47-1.22.93-2.45,1.4-3.68a6.63,6.63,0,0,1,5.17-3.94c.48-.09,1.06.06,1.35-.45a2.62,2.62,0,0,1-1.64-1.61c2-3.35,2.16-7.5,4.72-10.61,2.41-1.4,1.55-3,.2-4.53Q243,33.07,240.44,20.94Z"/><path class="cls-11" d="M244,187.78l-3.42,0c-17-8.68-22.89-24.47-26.66-41.59-.47-2.13-.81-4.29-1.21-6.43,8.19-2.89,16.18-6,20.13-14.7.4-2.16,1.41-3.78,3.77-4.21,5.41.36,6.33,6.54,10.73,8.22,1.64,1.79,3.69,3.33,3.88,6-2.93,8.89-.14,16.28,6.06,22.77a27.28,27.28,0,0,1,2.18,2.83c5.35,7.23,4.52,12.75-2.61,18.43C252.83,182.41,248.18,184.72,244,187.78Z"/><path class="cls-47" d="M228.29,93.93c4.41,4.53,8.23,9.76,14.38,12.28a5.46,5.46,0,0,1,1,6.17c-1.51,2.22-1.91,5.28-4.83,6.45a3.61,3.61,0,0,1-3.38-.72,2.9,2.9,0,0,1-.9-2.36C233.22,108.26,228.42,101.76,228.29,93.93Z"/><path class="cls-48" d="M234.29,70c6.2,1.19,5.38,5.62,4.1,9.7-1.49,4.76-5.49,6.33-10.22,4.59l.09-4.65a42.23,42.23,0,0,1,4.93-9.5A2,2,0,0,1,234.29,70Z"/><path class="cls-49" d="M233.19,70.17c.87,4.47-2.27,6.86-4.93,9.5C228,75.53,228.33,71.68,233.19,70.17Z"/><path class="cls-50" d="M245.49,45.21c2,.66,5.48-.12,5,3.19-.4,2.72-3,2.45-5.2,1.34A6.43,6.43,0,0,1,245.49,45.21Z"/><path class="cls-51" d="M234.54,115.75l1.05.74c.4,1.75,2.84,3,1.21,5.26l-3.93,3.35C232.58,121.83,232.53,118.61,234.54,115.75Z"/><path class="cls-52" d="M241.68,63.87c-2.35,0-4.18,1.21-6,2.48-.05-3.35,2.15-4.89,4.87-6l7,.27C247.36,64.88,243,61.56,241.68,63.87Z"/><path class="cls-53" d="M96.17,326.64c-2.13-.23-2.62-1.48-2.75-2.93s.11-3,1.87-3.12c1.47-.09,1.73,1.35,1.8,2.58S97.37,325.89,96.17,326.64Z"/><path class="cls-54" d="M269.45,408.58c-.19,1.16-.37,2.33-.56,3.49l-40.57.11c-7.18-.77-14.5.84-21.6-1.29l6.11-3.08-5-1.57c13.85,3,27.91,2.06,41.92,2.22C256.3,408.54,262.87,408.54,269.45,408.58Z"/><path class="cls-55" d="M365.3,254.86a201.57,201.57,0,0,0-42.94-17.62C329.71,235.1,361.44,248.18,365.3,254.86Z"/><path class="cls-21" d="M266.89,223.8c2-4.28,3.86-8.05,3.1-13.57a48.44,48.44,0,0,1-.27-13.37c1-7.07.4-8.4-6.51-9.13-1.92-1.81-2.78-4-1.2-6.26,2.25-3.27,5.32-5.13,9.53-4.22,3,1.83,3.86,4.75,4.16,8-.17,1.38-2.15,2.27-1.51,3.69,2.61,5.78,1.53,12.12,3,18,1,4.2,11.39,11.35,15.56,10.85.49,0,.77-.85,1.08-1.36a2.61,2.61,0,0,1,2.09-1.22c2.34,1.93,3.39,4.66,4.5,7.34-2.36,4,1.31,6.66,2.63,9.62,5,11.09,7.71,22.45,5.87,34.64-6,.59-10.5-2.36-13-8.43A134.3,134.3,0,0,1,268.26,227,20.61,20.61,0,0,1,266.89,223.8Z"/><path class="cls-56" d="M293.52,150.69c-3.22,8.51-5.37,17.52-11.42,24.75-2,2.44-3.9,5-5.84,7.55-2.84-1.17-3.38-3.88-4.3-6.34.52-1.3.33-14.79-.21-16.54-1.29-4.27.49-7.67,4-9.6,5.28-2.93,11-4.41,16.92-1.42A3.12,3.12,0,0,1,293.52,150.69Z"/><path class="cls-57" d="M311.34,133.76l2,10.8c-6.62-1.23-10.89-7.29-17.53-8.46-2.69.45-4.91.1-5.36-3.2a3.45,3.45,0,0,1,1.3-1.69C298.55,130,305.54,127.4,311.34,133.76Z"/><path class="cls-58" d="M291,133.72l4.86,2.38c-.27,2.53.1,4.73,3,5.6,2.4.74,4.61,1.76,4,4.82s-2.84,4-5.69,4c-1.18,0-2.36.07-3.53.12l-.39-.35c-1.22-4.17-1.83-8.36-5.28-11.87C285.31,135.89,286.87,133.38,291,133.72Z"/><path class="cls-59" d="M295.91,215.21l-1.32,1.3c-.41,0-.92,0-1.15-.22-7.4-8.48-14.13-17.38-17.57-28.31a2.33,2.33,0,0,1,2-1.61Z"/><path class="cls-60" d="M277.83,186.37l-1.05,1.25c-1.36-.27-2.17-.9-1.54-2.43l-3.81-6.94a1.16,1.16,0,0,1-.33-.79q0-.45.09-.45l.49-.49a1,1,0,0,1,1.16.36l3.42,6.11C276.78,184.12,277.31,185.24,277.83,186.37Z"/><path class="cls-61" d="M311.34,133.76c-6.74-2.5-13.76-.54-20.62-1.26-6,2.63-10.17-1.26-14.68-4a4.68,4.68,0,0,1-.92-2.67,6,6,0,0,1,2.71-4.67,7.26,7.26,0,0,1,1.54-.8c3.41-.49,3.13-3.14,3.26-5.55,2.28-5.42,6-10.11,8-15.7.63-1.77,1.56-3.71,4-3.83,6-.45,11.84.37,17.72,1.13-.74,1.39-1.2,3.08-2.28,4.14-7.49,7.35-7.29,15.21-2.29,23.81C309.42,127.21,310.17,130.61,311.34,133.76Z"/><path class="cls-62" d="M290.92,84.64q3-9.65,6-19.3c5.7.34,8.66,3.18,8.75,9,.07,5.35-1.24,9.46-7.47,10.05-1.87-1.71-.28-3.58-.3-5.18-.9,2-.06,4.93-2.74,6.41C293.53,86.14,292.05,86.08,290.92,84.64Z"/><path class="cls-63" d="M295.54,84.92c.79-2.43,2-4.73.45-7.42a2.86,2.86,0,0,1,1.2-4.13,2.45,2.45,0,0,1,3.2.77c1.31,1.48,1,3-.34,4.25-1.76,1.7-2.07,3.77-1.87,6L294.6,95.27c-3.26,7-6.52,14-10.79,20.54,0,2.75-.81,5-3.73,5.91l-1.61.47c-1.34-2-.64-3.9.36-5.64A283.7,283.7,0,0,0,292.8,88,8.75,8.75,0,0,1,295.54,84.92Z"/><path class="cls-62" d="M296.9,65.34c-2.4-4.64-.78-9.57-1-14.35C297.8,55.66,296.51,60.56,296.9,65.34Z"/><path class="cls-64" d="M314,356c4,2.38,8.35,2.06,12.72,2.21,2.24.08,4.81-1.19,6.71,1.13-1.75,4.47-5.78,9.17,1.21,12.82-2.52.74-2.66,2.05-1,3.85a13,13,0,0,0,7.29,3.71c5.86,1.21,12,1.52,18.82,5.54-12,.6-22.43,1.27-32.76,2.75-2.6.38-5.11.83-7.3,2.35-2.28-11.08-4.56-22.16-6.77-33.26C312.83,356.82,313.58,356.38,314,356Z"/><path class="cls-65" d="M317.75,401.26c1.56,3.69-.45,4.71-3.62,4.65q-37.11-.75-74.21-1.55c-13.77-.28-27.55-.48-41.32-.91-2-.06-5,1.33-5.94-2.12,2.16-3.59,5.51-4.45,9.52-5.07,13.91-2.17,27.17,1.37,40.59,3.78,7.14,2,14.24,4.66,21.69,1.25,1.5-1.13,3.25-.44,4.88-.63,10.85,2.3,21.8,1,32.71.92.83,0,1.35-.77,1.83-1.41C308.85,396,313.14,400.7,317.75,401.26Z"/><path class="cls-66" d="M269.24,401.29h-4.78a106.15,106.15,0,0,1,53-4.86c.1,1.61.21,3.22.32,4.83-1.73,2.74-3.85,1.82-5.83.48a9.65,9.65,0,0,0-6.58-1.57,6.47,6.47,0,0,1-4.88,1.7c-9.69.16-19.39-.42-29.08.34A3.35,3.35,0,0,1,269.24,401.29Z"/><path class="cls-67" d="M242.77,400c-6.42.42-12.67-1.07-19-1.75-10.61-1.13-21-.43-31.12,3-.29-3,2.42-6.52-1.62-8.83l1.08-2c.93,3.18,3.33,2.59,5.79,2.47A110.53,110.53,0,0,1,242.77,400Z"/><path class="cls-68" d="M308.87,374.07c-15.81-.18-30.79,3.67-46.92,10C269.73,376.65,298.59,370.69,308.87,374.07Z"/><path class="cls-69" d="M207.94,379.81c14.25-.19,28,2.11,40.88,8.73-7-1.19-13.53-4.28-20.59-5.14-6.8-.83-13.65-1.29-20.48-1.91Z"/><path class="cls-70" d="M266.86,357.62c12.09-6.43,25-7.28,38.31-5.54C292.3,353.25,279.16,352.61,266.86,357.62Z"/><path class="cls-71" d="M212.74,367.37c13-1.26,25.2,2.16,37.17,6.7C237.58,371.52,225.23,369.09,212.74,367.37Z"/><path class="cls-72" d="M309.14,382.06c-13.84,3-28.09,3.36-41.83,6.92C280.66,383.24,295,383.08,309.14,382.06Z"/><path class="cls-73" d="M305.52,365.51c-13.3,2.6-27,3.06-40.79,9.51C269.56,369.17,288,365,305.52,365.51Z"/><path class="cls-74" d="M217.35,351.56c8-3.62,23.66-.5,35.26,6.8C241.11,354.89,229.88,350,217.35,351.56Z"/><path class="cls-75" d="M214,359c12.83-1.93,25-.18,36.45,6.14C238.66,361,226.41,359.59,214,359Z"/><path class="cls-71" d="M233.24,375c5.77,1.77,11.83,2.61,17.24,5.49-.15.51-.31,1-.46,1.53l-17.37-5.18Z"/><path class="cls-76" d="M266.58,366.82c4.94-4.68,11.34-4.28,17-6.46l.48,1.7Z"/><path class="cls-77" d="M289.92,360.11c4.21-3.25,8.69-1.92,13.13-1.17C298.79,361.26,294.27,359.36,289.92,360.11Z"/><path class="cls-78" d="M209.75,374.28c5.85-.11,11.65-1.86,18.42,1.32C220.88,376.65,215.31,373.73,209.75,374.28Z"/><path class="cls-79" d="M310.2,387.9c-3.58,1.55-7.15,1.72-12.05.62C303,386.06,306.59,387,310.2,387.9Z"/><path class="cls-80" d="M192,318.7c.88,2.54.06,4-2.6,4.78-3,.88-5.86,2.12-8.79,3.21C183,322,188.33,321.5,192,318.7Z"/><path class="cls-81" d="M189.6,312.44a6.31,6.31,0,0,1-3.79,4.16c-1.63.61-2.18-.72-2.14-2,.08-2.34,1.58-3.58,3.78-3.88A1.74,1.74,0,0,1,189.6,312.44Z"/><path class="cls-82" d="M295.92,258.38c4.23,3,8.05,6.56,13,8.43.54,4.09-.35,8.06-1,12.05l-.36,1.57-16.42,1.8c-5.72-5.6-12.68-9.88-17.56-16.39-1.16-1.56-2.9-2.73-3.14-4.86,6.14-2.17,12.51-.91,18.77-1.28C291.47,259.56,294,260.25,295.92,258.38Z"/><path class="cls-83" d="M240.4,259.68c4.07-7.26,9.41-13.81,12.12-21.85.95-2.81,3-2.25,3.62-.1,2.19,8.29,9,14.05,11.8,21.92Z"/><path class="cls-84" d="M249.37,297a38.34,38.34,0,0,1-3.69,22.16c-.9,1.78-2,4.54-4.74,3.43-2.45-1-2.15-3.74-1.66-5.81C241,309.36,244.72,302.93,249.37,297Z"/><path class="cls-85" d="M347.18,354.53a8.7,8.7,0,0,1,8.46,8.92c-.09,4-4.52,7.88-9,7.8a8.89,8.89,0,0,1-8.57-8.89C338.16,358.34,342.72,354.41,347.18,354.53Z"/><path class="cls-86" d="M362.71,378c-3.68-.09-6.64-4.56-5.33-8,3.1-8.23,5.41-9.73,10.92-7.16.89.41,1.91.59,2.29,1.67.63,1.74-4.91,12.76-6.73,13.33A7.46,7.46,0,0,1,362.71,378Z"/><path class="cls-87" d="M271.63,176.91c-.07.45-.13.9-.2,1.34-4.83,1.36-9.89,2.51-8.22,9.48l-19.18.05c1.08-6.19,7.29-7,11.12-10.16,7-5.82,7.68-8.74,2.19-15.73-3.2-4.08-6.93-7.88-8.88-12.74s-1.25-9.79,1.62-14.3c9.33,0,15,5.21,14.9,14a51.9,51.9,0,0,0,5.09,23A12.25,12.25,0,0,1,271.63,176.91Z"/><path class="cls-88" d="M295.54,84.92c-2.3,10.67-8.09,19.82-12.83,29.44-1.31,2.66-3.76,4.72-4.24,7.83l-2,2.72a1.68,1.68,0,0,1-1.26,1.17A4.52,4.52,0,0,1,271.8,125a27.18,27.18,0,0,1-6.65-9.77,6.94,6.94,0,0,1,2.4-7.78c11.19-4.13,18.25-12.47,23.37-22.8Z"/><path class="cls-89" d="M271.64,80.3c0-5,3.29-8.78,7.73-8.89,5.06-.13,9.88,4.59,10,9.82.13,4.45-4.54,8.21-10,8C275.36,89.11,271.64,84.85,271.64,80.3Z"/><path class="cls-90" d="M267.55,107.44c-1.52,2.59-.36,5.39-.66,8.07.32,3.55-2.41,4.34-4.88,4.74A30.62,30.62,0,0,1,245.18,118c-2.5-1-3.79-2.77-3.06-5.59q.28-3.11.55-6.22C250.78,110.31,259.06,110.91,267.55,107.44Z"/><path class="cls-91" d="M288.93,56.79c-7.24-1.49-12.33-5.53-18.56-3.8-.89.25-1.76-.93-1.83-2-.12-1.9,1.5-2.27,2.79-2.43C278.22,47.77,283.29,51,288.93,56.79Z"/><path class="cls-92" d="M284.45,64.08c-4.44,3.18-9.21,2.56-13.91,2.2a2.22,2.22,0,0,1-2.09-3c.55-1.82,1.89-.67,3-.55C275.75,63.2,280.1,63.64,284.45,64.08Z"/><path class="cls-93" d="M264.31,90c-5.36,2.45-10.6,2.41-15.49-1.11C253.9,90,258.92,91.77,264.31,90Z"/><path class="cls-94" d="M241.68,63.87c-.91-.92-2.64-2,.39-2.25,1.85-.18,3.91.76,5.47-1,2.68,2.1.83,3.09-1.09,3.49C244.94,64.42,243.28,64,241.68,63.87Z"/><path class="cls-60" d="M271.63,176.91a26.1,26.1,0,0,1-7.95-21.17c1.09-11.59-4.09-17.15-13.6-20.89l-3.82-4.61.57-.63c2.19-.85,3.83.28,5.45,1.51,4.68,2.93,9.88,4.79,14.92,7a4.4,4.4,0,0,1,1.05,1.48,6.1,6.1,0,0,1,.39,4.08c-2.75,8.93.28,17.13,3.11,25.35.92,2.67,1.89,5.26-.08,7.86Z"/><path class="cls-60" d="M236.8,121.75c.3-1.92-2.12-3.21-1.21-5.26l2.46,2.23c5,2.14,8.89,5.1,8.4,11.3l-.19.22C241.77,128.89,240.58,123.89,236.8,121.75Z"/><path class="cls-95" d="M246.45,130l-8.4-11.31c1.36-2.09,2.71-4.19,4.07-6.29,4.11,5.92,18.2,7.67,24.77,3.09l6,8.45a3,3,0,0,1-2,2.75c-6.56,2-12.49,6.1-19.71,5.89Z"/><path class="cls-96" d="M275.24,185.19l1.54,2.43,17.81,28.89,2.07,5c-13.68-.86-22.29-9.37-22.6-22.16a16.55,16.55,0,0,0-2.1-8.5C269.92,187.44,270.75,185.12,275.24,185.19Z"/><path class="cls-97" d="M271.67,176.88c-1.92-6-3.7-12-5.77-17.95-2.43-7,.6-13.57,1-20.34,1.37-5.36,3.74-9.83,9.84-11l14,4.88.24,1.22c-2,1.37-4.59,3.08-.69,4.83,6.33,2.86,4.64,7.22,2.86,11.8-6.34-.75-12.71-1.53-18,3.29-2.65,2.42-2.85,4.9-.39,7.82,6.11,7.26,6,7.32-.9,13.94a7.73,7.73,0,0,0-1,1.48h-1.17Z"/><path class="cls-98" d="M276.75,127.62c-4.16,2.87-6,7.82-9.84,11l-.16-.12q-1.71-8.33,8.39-13.23l1.34-.33Z"/><path class="cls-99" d="M280.08,121.72l3.73-5.91C284.9,120.16,284,121.66,280.08,121.72Z"/><path class="cls-100" d="M269.24,401.29c12-2.32,24.06-.93,36.1-1.12,0,2.53-1.36,3.48-3.77,3.47-9.56,0-19.12,0-28.68,0C271.16,403.63,269.72,403.21,269.24,401.29Z"/><path class="cls-101" d="M349.26,363.2a3,3,0,0,1-2.82,1.63c-1.25-.11-1.35-1.22-1.29-2.18s.5-2,1.79-1.52C348,361.47,349.28,361.64,349.26,363.2Z"/><path class="cls-97" d="M275.14,125.24c-2.5,4.6-7.25,7.78-8.39,13.23-6.43,1.31-10.6-3.31-15.56-5.87,6.5-4.7,14.35-6,21.68-8.64Z"/></svg>