<svg id="Camada_1" data-name="Camada 1" xmlns="http://www.w3.org/2000/svg" viewBox="0 0 441 385.59"><defs><style>.cls-1{fill:#d08533;}.cls-2{fill:#4eb898;}.cls-3{fill:#c1762c;}.cls-4{fill:#733f11;}.cls-5{fill:#52b698;}.cls-6{fill:#62cca9;}.cls-7{fill:#b89564;}.cls-8{fill:#a9a36f;}.cls-9{fill:#ede8da;}.cls-10{fill:#bebebe;}.cls-11{fill:#120808;}.cls-12{fill:#b76a39;}.cls-13{fill:#feb548;}.cls-14{fill:#fda389;}.cls-15{fill:#c9ddd4;}.cls-16{fill:#049348;}.cls-17{fill:#cfe1d8;}.cls-18{fill:#de4720;}.cls-19{fill:#cadcd4;}.cls-20{fill:#f8a58c;}.cls-21{fill:#ddeee6;}.cls-22{fill:#deede6;}.cls-23{fill:#ddede6;}.cls-24{fill:#5eb596;}.cls-25{fill:#71af8c;}.cls-26{fill:#c1af90;}.cls-27{fill:#e6b871;}.cls-28{fill:#b9af93;}.cls-29{fill:#d78759;}.cls-30{fill:#8bab6f;}.cls-31{fill:#b7b7b7;}.cls-32{fill:#a46115;}.cls-33{fill:#b86c1f;}.cls-34{fill:#c77a2e;}.cls-35{fill:#28a663;}.cls-36{fill:#150808;}.cls-37{fill:#f39d4b;}.cls-38{fill:#663609;}.cls-39{fill:#199e73;}.cls-40{fill:#5b2c05;}.cls-41{fill:#7d3e04;}.cls-42{fill:#6e3606;}.cls-43{fill:#c18c54;}.cls-44{fill:#c49058;}.cls-45{fill:#9c550f;}.cls-46{fill:#9b5713;}.cls-47{fill:#984f11;}.cls-48{fill:#96500c;}.cls-49{fill:#9e5711;}.cls-50{fill:#9f540a;}.cls-51{fill:#8d4907;}.cls-52{fill:#8f4a0e;}.cls-53{fill:#964d07;}.cls-54{fill:#7c3502;}.cls-55{fill:#fca141;}.cls-56{fill:#06a077;}.cls-57{fill:#f6b377;}.cls-58{fill:#04a179;}.cls-59{fill:#63cca9;}.cls-60{fill:#78aa86;}.cls-61{fill:#f95d3e;}.cls-62{fill:#c95830;}.cls-63{fill:#ed6445;}.cls-64{fill:#d54921;}.cls-65{fill:#b82e0d;}.cls-66{fill:#b23415;}.cls-67{fill:#8ebb92;}.cls-68{fill:#9eab7c;}.cls-69{fill:#259b6f;}.cls-70{fill:#3b9d72;}.cls-71{fill:#a8ad8b;}.cls-72{fill:#af8a6b;}.cls-73{fill:#81a37f;}.cls-74{fill:#88a27a;}.cls-75{fill:#90a380;}.cls-76{fill:#858d72;}.cls-77{fill:#847d59;}.cls-78{fill:#b98260;}.cls-79{fill:#bdb298;}.cls-80{fill:#979a76;}.cls-81{fill:#86a68e;}.cls-82{fill:#b1ba7d;}.cls-83{fill:#9d8664;}.cls-84{fill:#84a787;}.cls-85{fill:#b9bc89;}.cls-86{fill:#0a9f78;}.cls-87{fill:#159d76;}.cls-88{fill:#408a5a;}.cls-89{fill:#d8471e;}.cls-90{fill:#899f7d;}.cls-91{fill:#a66043;}.cls-92{fill:#8f9672;}.cls-93{fill:#853a0c;}.cls-94{fill:#eb9533;}.cls-95{fill:#c7ddd2;}.cls-96{fill:#ddf0e7;}.cls-97{fill:#e57d06;}.cls-98{fill:#dee8e1;}.cls-99{fill:#c7ddd5;}.cls-100{fill:#dceee4;}.cls-101{fill:#deede7;}.cls-102{fill:#deefe8;}.cls-103{fill:#f3ce9b;}.cls-104{fill:#e4d6ad;}.cls-105{fill:#f5d29b;}.cls-106{fill:#ddeee3;}.cls-107{fill:#e3c3b2;}.cls-108{fill:#45cc85;}.cls-109{fill:#45ce86;}.cls-110{fill:#49d48b;}.cls-111{fill:#079f77;}.cls-112{fill:#93855f;}.cls-113{fill:#ef6144;}.cls-114{fill:#ac8a65;}.cls-115{fill:#b0613d;}.cls-116{fill:#fdb247;}.cls-117{fill:#ec9433;}.cls-118{fill:#e57d03;}.cls-119{fill:#934e0f;}.cls-120{fill:#e67c07;}.cls-121{fill:#8fa95b;}.cls-122{fill:#867450;}.cls-123{fill:#369868;}.cls-124{fill:#859344;}.cls-125{fill:#3cad85;}.cls-126{fill:#d6d5d5;}.cls-127{fill:#d9441e;}.cls-128{fill:#02944a;}.cls-129{fill:#029448;}.cls-130{fill:#53b77e;}.cls-131{fill:#f9bb74;}.cls-132{fill:#26a563;}.cls-133{fill:#733602;}.cls-134{fill:#a6a571;}.cls-135{fill:#be2d0b;}.cls-136{fill:#c12c0c;}.cls-137{fill:#dd4618;}.cls-138{fill:#39893d;}.cls-139{fill:#f45e36;}.cls-140{fill:#ea9538;}.cls-141{fill:#d74a1a;}.cls-142{fill:#928150;}.cls-143{fill:#dd451e;}.cls-144{fill:#93ac7f;}.cls-145{fill:#9a6747;}.cls-146{fill:#329460;}.cls-147{fill:#f16142;}.cls-148{fill:#b08735;}.cls-149{fill:#29a563;}.cls-150{fill:#8a9d60;}.cls-151{fill:#b92e0f;}.cls-152{fill:#d8461c;}.cls-153{fill:#7e8356;}.cls-154{fill:#46926f;}.cls-155{fill:#fdb349;}.cls-156{fill:#b33412;}.cls-157{fill:#678b69;}.cls-158{fill:#db441e;}.cls-159{fill:#f65f3e;}.cls-160{fill:#6bd295;}.cls-161{fill:#61cb9c;}.cls-162{fill:#64caa7;}.cls-163{fill:#e89e4a;}.cls-164{fill:#f19e49;}.cls-165{fill:#f79d44;}.cls-166{fill:#f49d48;}.cls-167{fill:#f39b46;}.cls-168{fill:#ef9d4a;}.cls-169{fill:#ee9e4b;}.cls-170{fill:#f49b47;}.cls-171{fill:#f39c45;}.cls-172{fill:#f39d49;}.cls-173{fill:#ee9e48;}.cls-174{fill:#f69c45;}.cls-175{fill:#f69b49;}.cls-176{fill:#e69f4c;}.cls-177{fill:#f59b46;}.cls-178{fill:#f09c46;}.cls-179{fill:#f39a4a;}.cls-180{fill:#ee9e4e;}.cls-181{fill:#f59a44;}.cls-182{fill:#f29b4c;}.cls-183{fill:#51b896;}</style></defs><path class="cls-1" d="M434.54,335.92a14.78,14.78,0,0,1,2.17,1.22c2.09,1.63,4.68,3,4.25,6.28s-3.53,3.75-5.93,4.59c-10.79,3.78-22,5.92-33.18,8.11-8.7,1.7-17.35,3.75-26.21,4.62-3,.29-5.14,1.29-5.67,5.08-.6,4.17-4.78,4.45-8.1,5.35-7.31,0-14.63.25-21.8-1.71a38.27,38.27,0,0,1-5.72-1.88c-3.12-2.74-6.57-3-10.27-1.34-1.88.74-3.77,1.34-5.74.06,2.89,1.9,5.32-.06,7.91-.79,1.81-.23,3.63-.56,5.3.54-1.78,3.88-8.57,8.45-12.38,7.17-6.87-2.31-13.25.63-19.84.87-7.23.27-14.24,3.77-21.71,1.69-6.74.66-13.47.15-20.2-.07A14.46,14.46,0,0,1,252.2,374c-2.91-1.39-5.75-2-8.27.84a3.21,3.21,0,0,1-2.61,1.36c-6.58-.75-13,1.78-19.56,1a18.1,18.1,0,0,0-5,.51c-3.3.52-6.32.1-8.54-2.9s-5.22-3.16-9-2.54c-9.34,1.56-18.78,3.24-28.26.74a14.07,14.07,0,0,0-5-.46c-8.66.84-16.95-1.87-25.42-2.82-3.59-.41-6-.4-8.09,2.91-2.49,3.89-3.32,3.77-6.18.31-1-1.18-1.89-2.87-3.4-2.79-7,.35-13.74-3.63-20.86-1.41a3,3,0,0,1-2,.15c-6-2.64-12.59-1.12-18.78-2.54-3.9-.89-7.88-2-11.86-.14a2.27,2.27,0,0,1-2.78-.57c-4.85-5.66-12.37-5.74-18.58-8.15-5.54-2.14-11.93-3.07-18.14-3.77-5.18-.59-10.79-1.44-13.86-6.82a53.31,53.31,0,0,0,22.23-19.09c2.44-3.7,5.45-3.27,8.68-1.18,4.65,4.18,7.7,9.54,10.84,14.84,1.76,3.6,1.84,8.17,6,10.37.35.33.09,1.34.42,1.19.9-.42,1.84-1.12,2.78-.9a32.47,32.47,0,0,0,16.36,0c-1.67-1.28-4.44,2-6.8-.1-.47-3.42,2.7-3.63,4.49-4.3a37.6,37.6,0,0,0,8.19-4.43,13.43,13.43,0,0,1,7.17-.19c4.24,2.41,8.6,4.45,13.66,4.28,2.85.56,5.53-.83,8.33-.78a3.36,3.36,0,0,1,2.29,1.54c.56,1.71,1.64,1.23,2.79.71A12.94,12.94,0,0,1,130,347.6c-2.95-1.36-5.76,2.36-9.06.83-1.14-1.61-1.09-3.39-.82-5.22,1.86-6.39,2.23-12.66-.11-19.13-1-2.65-2.09-5.74-.45-8.73,4.32-1.53,8.48-1.94,12,1.77,1.82,2.75-1.23,6.29,1.47,8.9,6.87,3.8,14,2.8,21.1,1,2.89-.72,5.74-2.21,8.8-.6,2.65,2.5,3.25,5.74,3.28,9.18a49.74,49.74,0,0,0,.79,9.5c1.68,8.38,3.08,9.81,11.52,11.65A41.55,41.55,0,0,0,189,357.82c4.74,0,9.5.19,14-1.74,2.1-3.73-.77-5.58-3-7.36-7.62-6-8.79-11.58-4.06-20a11.15,11.15,0,0,1,7.9-5.68c10.85-2.28,21.58-5.14,32.47-7.27,2.22-.67,4.32-2,6.81-1.28,3.93,2.51,8.18,2,12.46,1.36,2.44-.38,4.82-1.16,7.32-1.14,3.93.57,3,4.64,4.83,6.71a4.28,4.28,0,0,1,.78,2.33c-.67,8.77.1,17.56-.31,26.33-.08,1.7-.53,3.31-2.49,3.88-3-.07-5.82.88-8.64,1.8,4.17-1.26,8.33-2.9,12.58-.21.09.06.65.42.51,0s-.41-.81-.21-1.3a3.14,3.14,0,0,1,3.28-.53,33.5,33.5,0,0,0,13.85.23c3.52-.6,6.92.55,10.4.59,21.29.12,42.58,0,63.86,0,6.61,0,7-.5,7.13-7.23.05-2.5-.23-5,.7-7.45,1-2,2.86-1.37,4.45-1.35,6.37.1,12.75-.28,19.09.13,7.86.52,14-2.54,19.22-8,1.38-1.42,2.53-3.18,4.67-3.62a4.57,4.57,0,0,1,1.52,0c3,.73,5.05,3.3,8,4a6.87,6.87,0,0,1,1.23.65C429.93,332.87,431.87,335,434.54,335.92Z"/><path class="cls-2" d="M295.27,202.52c15.41,3.24,26,12.27,32,26.74,1.76,4.24,3,1.3,4.24-.34,9.86-13,26.06-17.31,39.85-10.54a33.19,33.19,0,0,1,12.72,10.39c1.21,1.7,2.38,3.16,4.76,3.11,7.48-.15,14.61,1.6,21.57,4.2,4.26,3.23,8.3,6.76,12.42,10.13,7.28,5.95,8.84,15,9.55,23.7.66,8,0,15.87,5.14,23.16,3.26,4.64,2.79,11,2.4,16.72a7.93,7.93,0,0,1-3.06,6.1c-2.6,0-2.36-2.18-2.34-3.64a12.7,12.7,0,0,0-7.3-12.26,4.73,4.73,0,0,1-2.83-4.92c.82-7.12-2.7-11.82-8.24-15.5-1.46-5-.91-10.58-4.12-15.11-4.6-5.89-9.69-11.24-16.29-14.94-2.35-1.92-5.15-.88-7.75-1.16-1.53-.11-3.08-.18-4.08-1.62-.57-1.6.56-2.89.82-4.34a6.61,6.61,0,0,0-3-7c-2.19-1.59-4.14-.46-6,.85-2.5,1.79-2.63,4.06-1.27,6.62a4.74,4.74,0,0,1,.49,2.44c-.59,3.83-4.88,2.21-6.54,4.46a10.67,10.67,0,0,1-6.86,2.2c-2.55-.56-2.79-2.58-3-4.66s.3-4.1-1.31-5.74c-3.38-2.79-1.91-7.39-4-10.66-1.29-5-5.13-4.93-9.17-4.84a6.77,6.77,0,0,0-6.79,5c-1.1,3.84-.61,8.28,3.09,10.36,4.77,2.69,4.92,7.81,7.29,11.66,1.89,3.06-2.43,2.93-4.22,4-5.77,1.67-11.56,2.93-17.49.78-3.4-2.38-7.41-2.66-11.32-2.94-2.49-.18-4.47-.83-6-2.78-4.77-5.11-10.39-8.64-17.56-9.2a2.35,2.35,0,0,1-.39-2c1.26-3.06,2.5-6.12-.28-9.05-1.4-.77-3-1.24-4.11-2.45-3.79-2.84-6.06-.06-8.23,2.38-1.31,1.48-1.72,3.57-2.8,5.25-1.74,1.18-3.75,1.85-5.53,3-2.15,1-1.43,3-1.5,4.72s.54,3.31-1.33,4.32a2,2,0,0,1-2.23-.79c-5.17-8.58-13.48-12.79-22.36-16.23-2.3-4.93-4.08-10.19-8.4-13.91-.58-1.51-.09-2.9.4-4.34,1.74-5.14.91-10.13-1-15.06-2.37-5.78-2.62-11.4,1.32-16.68,2.22-.8,3.11,1.23,4.54,2.11,3.85.94,4.57,4.25,5.58,7.35a6.21,6.21,0,0,1,.63,1.23c.56,1.89.26,4.11,2.09,5.54a116.4,116.4,0,0,1,8.13,16.5c1,3.57-.13,7.17.22,10.75a14.52,14.52,0,0,0,3.4,4.87c2.09,2.74,4.28,3.76,6.74.43a10.27,10.27,0,0,1,1-1c2.38-2.43,5.73-3.31,8.46-5.26a22.33,22.33,0,0,0,7.52-8.53,3.75,3.75,0,0,1,1.79-2.12c2.74-.61,5.13-.66,4.78,3.25-.12,1.39.9,1.57,1.85,1.84a6.38,6.38,0,0,1,2.39,1.25c2.28,1.72,4.59,1.6,6.93.14a9.58,9.58,0,0,1,1.19-.71c3.48-3.4,3-6.88-1.48-10.81-1.08-1-2.47-.92-3.79-1.09-1.48-.19-3.25-.19-3.74-1.95S294.06,203.38,295.27,202.52Z"/><path class="cls-3" d="M277.88,374.5a16,16,0,0,1,5.93.57c2.05.59,4.46,1,6.32-.39,3.95-2.91,8.48-2.1,12.84-2.34,2.17-.11,4.3,0,6.4-.82,2.82-1.13,5.45-1.65,8.52.27,3.41,2.13,6.3-1.08,9-2.6a28.12,28.12,0,0,0,4.65-2.75c.95-1.07,2,.68,3-.11,6.56,1.58,12.79,4.62,20,2.91,1.64-.39,5,.48,7.28,1.93l-30.26,5.42a47.58,47.58,0,0,1-9.23,1.75c-16,1.54-32.06,3.18-48.11,4.59a726.21,726.21,0,0,1-90.09,2.14c-17-.62-34-1.37-50.87-2.8-35.17-3-70.26-6.66-104.33-16.67a66.61,66.61,0,0,1-13.5-5.49c-2.83-1.56-6-3.31-5.82-7S13,348,16.09,346.88c5.47,3.2,11.22,4.69,17.59,5.89s13.85,1,19.8,5.26a12.93,12.93,0,0,0,7.65,2.22,3.59,3.59,0,0,1,2,.32c3.08,2.16,5,5.61,10.38,3.27,3.25-1.41,8.56,2.71,12.49,2,5.26-1,10.11,2.63,14,1.49,6.89-2,12.74,1.8,19,1,5.31-.71,8.13,1.88,9.85,6.37.41-.09.91-.07,1-.23,2.67-6.3,6.42-6.88,13.39-5.69,7.84,1.34,16.3,1.88,24.22,2.88,9.13,1.14,18.13-.52,27.09,1,1.57.27,3.52-.81,5.11-1.63,4.47-2.28,7.79-1.12,9.77,3.29a4.66,4.66,0,0,0,6,2.29c4.72-2.27,9.46.08,14.2-.92,3.53-.74,7.47-2.45,11.34-.48a1.91,1.91,0,0,0,1.77-.6c3.33-5.6,7.34-3.32,11.4-1.11a19.36,19.36,0,0,0,2.83,1,4.9,4.9,0,0,1,.13,1.39c3.8-1.79,7.42-.48,11.23.17C271.41,376.55,274.62,374.8,277.88,374.5Z"/><path class="cls-4" d="M26.35,154.21c7.63,8.17,9,20.32,2.21,26.3a3,3,0,0,0-.83,4q12.06,26.88,24,53.8c.12.26.54.38.81.57,4.25,5.94,6.22,13,9.38,19.46,1.1,2.26,1.87,4.69,3.38,6.75,1.54,5.31,4.67,10,6.06,15.38-.94,3.16-3.39,3.66-6.2,3.49-3.11-1.67-3.22-5.4-5.34-7.76a11.3,11.3,0,0,1-1.93-3.12C56.06,267,53,261.34,50.6,255.46q-10.12-23.1-20.63-46a65.53,65.53,0,0,1-3.6-10.89c-.81-2-1.72-4-2.41-6-1.55-4.65-3.6-7.62-9.56-7.91-7.08-.35-13.81-9-14.37-16.15-.14-1.8.19-3.66,1.82-4.39C9.89,160.49,17.38,155.5,26.35,154.21Z"/><path class="cls-5" d="M51.38,255.21c3.34,5.62,6.15,11.45,7.48,17.91-1.21,2-2.81,3.71-3.1,6.2-.19,1.56-.94,2.95-3,2.4-1.88-2.1-1.52-5.16-3.17-7.35-1-2.55-3.26-1.58-5.1-1.76-2.7,0-4.46,1.18-4.56,4-.12,3-.91,6.5,3.53,7.4,2,.21,4.06-.16,5.92.88a1.87,1.87,0,0,1,.81,1.21c.12,2.62.46,3.07,2.57,3.25.39,1.72-1,2.29-2,3.06-8.46,6.54-11.22,14.92-8.2,25.18.42,1.43,1.08,2.83.42,4.37-1.16,1.53-2.35,3-4.63,2.09-8.76-4.63-10.78-11.33-4.8-19.8,3.52-5,4.36-8.46,1.28-14.32-4.85-9.22-2.1-18.53,3.67-26.89a19.27,19.27,0,0,1,7.91-7.46C47.94,254.71,49.58,253.53,51.38,255.21Z"/><path class="cls-6" d="M416.57,279.38c6,2.08,9.17,6.14,9,12.21-.11,3.91.32,6.55,4.6,8.66a10.3,10.3,0,0,1,5.63,10.44c-.19,1.73-.67,3.75,1.05,5.2-3.2,2.61-3.39,5.1-.93,8.72,1.88,2.77,2,6.45-2.33,8.14-2.34,0-4.8,1-6.89-.89h0a21.81,21.81,0,0,0-8.14-4l-.29.07c-2.12-3.54-1-7.46-1.27-11.21-.5-7.08,1.14-14.29-1.36-21.25C415.27,290.08,413.84,284.61,416.57,279.38Z"/><path class="cls-7" d="M38.3,324l4.19-2.34c4.56-.14,4.78,2.71,4.21,6.1-2.79-2.21-5.58-2-8.38,0C38.15,326.54,39.63,325.28,38.3,324Z"/><path class="cls-8" d="M426.68,331.86c2.31.2,4.74-.53,6.89.89-1.74,1.7.65,2.12,1,3.17C431.25,335.88,428.49,334.79,426.68,331.86Z"/><path class="cls-9" d="M322.38,378.34c2.88-1.63,6.05-1.71,9.23-1.75C328.84,378.77,325.89,380,322.38,378.34Z"/><path class="cls-10" d="M320.61,385.46c1.93-1.45,1.81-3.73,3.88-4.13.19,0,.9,1.05.84,1.56C325.07,385.37,323.3,385.51,320.61,385.46Z"/><path class="cls-9" d="M331,379.11c.26,1.8.64,3.57-.68,4.95-.16.16-1.16-.1-1.19-.26C328.8,381.94,329.8,380.5,331,379.11Z"/><path class="cls-11" d="M123.69,187.73c-10.33-14.87-10-25.51,1.31-39.73a3.29,3.29,0,0,0,.65-3.94c-9.82-24.4,11-46.67,28.88-49.28,13.47-2,20.53-9.56,22.62-22.53,1.56-.45,2.61.52,3.56,1.42,7.41,7,16.46,7.61,25.58,5.63,24.9-5.41,43.7-19.27,55.9-41.83.89-1.65,1.27-4,3.93-4,7.89,11,6.62,17.36-5.49,27.61-9,5.53-13.66,13.74-15.88,23.94-.95,4.38-1.9,9.28-6,12.38-3.21,5.1-6.62,10-11.28,14a2.39,2.39,0,0,1-.93,1.83,82.61,82.61,0,0,0-7.35,5.45c-6.37,4.23-11.95,9.12-15.63,16.08-2.56,4.84-6.85,8.3-11.53,11.07C184.7,150.2,180.59,156.28,180,165c-1,13.51-7.91,23.23-19.78,29.66-10.45,5.65-26.42,3.74-34.95-4.38A5,5,0,0,1,123.69,187.73Z"/><path class="cls-12" d="M266.12,33.51c-4.65,7.68-8.62,15.77-15.11,22.24-13.8,13.76-29.6,23.57-49.42,25.52-9.53.94-18-1.52-24.44-9-5-10.71-2.77-20.71,2.9-30.39,4.17,1.37,6.36,5.23,9.67,7.68,4.24,7.89,11.7,8.1,18.93,7.06,14.62-2.1,25.39-10.33,32.18-23.27,4.73-9,3.85-17.54-4.69-24.27-1.45-1.93-5.09-3-2.57-6.51A38.88,38.88,0,0,1,247,1.5a22.88,22.88,0,0,1,19.06,12.06C268.17,20.21,267,26.86,266.12,33.51Z"/><path class="cls-13" d="M123.69,187.73c10.06,8.14,21.19,12.07,33.68,6.68,11.68-5,19.81-13.66,20.74-26.93.78-11.12,5.43-19.08,15.42-24.13a21.08,21.08,0,0,0,9.61-10.08c3.35-7.3,9.31-11.71,15.79-15.72,2.74-1.44,5.78-2.45,7.46-5.36l1.09-.77,1,.35c3.54,3.16,3.54,3.16-.89,5.94l-1.22,2C224,123.76,220,126.43,217,130c-2.06,2.28-4.66,4.13-5.77,7.17a6.2,6.2,0,0,1-.67,1.14,14.14,14.14,0,0,0-3.52,5.38,7.7,7.7,0,0,1-.7,1.17c-2.27,3.54-3.46,7.57-5.21,11.35-.54,1.27-.75,2.65-1.25,3.94a44.19,44.19,0,0,0-2.11,5.08c-2,2-2.81,4.59-3.6,7.2-.61,1.48-1.61,2.79-2,4.38a27.22,27.22,0,0,1-2.76,7.84c-.46,1.53-1.76,2.66-2,4.31-.09,2.19-1.26,4-2,5.94a18.67,18.67,0,0,1-.67,2.08c-1.64,2.92-1.14,6.24-1.77,9.35a15.87,15.87,0,0,0-.57,4.34c-.11,2,.58,3.91.83,5.87-.4,2.86,1.64,5.4,1.1,8.28a3.35,3.35,0,0,1-1.41.93c-10.71.07-21.26-1.73-31.87-2.81-5.64-.57-11.25-1.48-16.92-1.9-2.75-.21-5.8-.27-7.35-3.35-.13-5.2,1.57-10.59-2-15.44-1.19-1.61-2.44-3.13-3.75-4.62a3.4,3.4,0,0,1,.22-3.92A10.33,10.33,0,0,1,123.69,187.73Z"/><path class="cls-14" d="M254.74,214.82q-4-8.16-8-16.31c-1.86-1.6-.09-4.45-2.07-6h0c-1.58-2.44-.75-5.24-1.15-7.86.33-2.35,1.88-3.31,4.06-3.54,2.93.34,4.64-1.52,6.29-3.51,1.52-1.41,3.43-2.35,4.78-4,2.54-1.37,3.26-5.73,7.38-4.53a4.05,4.05,0,0,1,1,3.05c2.66,4.21,3.44,9.3,6.29,13.4,2.36,4.84,5,1.69,7.57.27a10.89,10.89,0,0,0,4.19-2.26c3.84-3,7.71-5.91,11.52-8.93,2.34-1.85,2.17-4.72,2.69-7.3A19.29,19.29,0,0,1,304,156.44a3.77,3.77,0,0,1,3.43-1.77c1.7.25,2,1.71,2,3.05,0,3.95,1.94,2.91,4.17,1.79s3.53-3.61,6-4.46c4.52,4,5.07,9,2.41,14.06-3.39,6.47-7.83,12.07-15.56,13.72-2.53.55-3.92,2.09-5.05,4.33-2.49,4.88-4.47,10.06-8,14.4-1.47,5.2-3.3,10.18-8.37,13.08-1,.35-1,1.2-1,2-3,2.1-4.94,5.35-7.93,7.51-2.7,2-5.27,4.06-8.89,3.84-4.35-.77-6.55-4.25-9.13-7.25C256.49,219,256.31,216.54,254.74,214.82Z"/><path class="cls-15" d="M266,169.1c-3.41.28-3.89,4.64-7.15,5.14-7.43,2-15-.53-23,.71,4.4,3.47,9.63.7,13.76,3,1.17,1.77.18,3.05-1,4.3-1.58.3-3.69-.43-4.12,2.1-1.61,1.92-3.58,1.92-5.7,1-1.7-.38-2-2.14-3.16-3.11-1.82-.77-1.81.83-2.27,1.77-.77,1.58-1.67,2.93-3.72,2.83-11.54-1.74-23.16-.8-34.74-1.06-2.31,0-4.76.35-6.69-1.48,1-2.69,2.06-5.37,3.1-8.06a3.83,3.83,0,0,1,3.27-1c11.21,1.2,22.48-.15,34.59,1a5.51,5.51,0,0,0-4.54-1.49c-8.76.48-17.41-1.33-26.15-1.12-1.81,0-3.74.12-5.15-1.45.41-2.8.5-5.78,3.76-7.07,8.36-1.09,16.78-.75,25.22-.86-2.58-2-5.55-1.7-8.44-1.75-3.34-.06-6.68.1-10-.1-1.82-.11-3.75-.18-4.6-2.3.07-1.43-.64-3,.85-4.15,1.46-1.54,2.77-3.31,5.19-3.36,18.27.88,36.55.85,54.83.89a8.7,8.7,0,0,1,4.72,1.54q1.53,2.52,3.05,5c1.52,4-1.43,4.34-3.95,4.38-9.56.15-19.13.48-28.69-.19-1.25-.09-2.56-.82-4.26.5a23.39,23.39,0,0,0,9.44,1.37c6.55-.12,13,.94,19.6.57a8.92,8.92,0,0,1,5.76,1.42Z"/><path class="cls-16" d="M296.35,147.7c-5.56-1.66-9.24-4.73-9.91-11-.38-3.56-3.25-6.14-5.63-8.78a23.94,23.94,0,0,1-6-21c.29-1.7.63-3.48,1.94-4.56,6.88-5.72,15.22-8.61,23.61-10.88,3.71-1,6.86,2.32,7.63,6,2.11,10,3.57,20.12-.66,30a8.49,8.49,0,0,0-.31,5.87c.78,2.92,1.51,5.91-.53,8.69C304.3,146.05,299.9,146.12,296.35,147.7Z"/><path class="cls-17" d="M216.22,129.56c2.82-3.89,6-7.43,10.19-9.89,5.37,2.34,11.18.44,16.78,1.79,3.59.88,5.62,2.35,7.16,5.87-6.37,1.39-12.5.07-18.55.46-1.34.08-2.69,0-4,0-1.53,0-3.27-.09-3.1,2.2.14,1.92,1.73,1.75,3.05,1.76,5.72,0,11.49.53,17.14-.1,6.9-.78,10.9,2,13,8.24.06,1.92-1.51,2.22-2.74,2.25-13.63.35-27.19-.14-40.47-3.66C211.54,134.88,215.43,132.5,216.22,129.56Z"/><path class="cls-18" d="M296.35,147.7c2.22-3.93,7-3.32,10.11-5.71,6.35,2.37,12.31,5.12,13.11,13.06-1.24,2.94-3.61,4.75-6.34,6.11-3.1,1.54-6.28,3.1-5-2.95.19-.87.39-2.16-.8-2.62s-1.76.64-2.45,1.31c-3,2.89-3.15,7.32-5.73,10.43C292.14,161.91,291.14,155.24,296.35,147.7Z"/><path class="cls-19" d="M259.85,145a3.2,3.2,0,0,1,2,3c1.46,3.49-1,4.18-3.44,4.43a62.37,62.37,0,0,1-14.06.06c-10.21-1.26-20.43-.64-30.65-.85-2.49-.06-5.05.25-7.35-1.15-1.71-2.14-1.4-4.31-.07-6.48h0c1.17-1.81,2.55-3.24,5-2.86,14.3.26,28.47,2.95,42.82,2.32C256.16,143.35,258.21,143.48,259.85,145Z"/><path class="cls-20" d="M238.76,97.44a133.36,133.36,0,0,0,7.5-21.66c1.91-7.63,7.26-12.05,14.37-14.66-3.36,4.73-1.46,10.09-1.7,15.16-.17,3.56-.18,6.45-5,6-2.29-.22-3,1.82-3.75,3.5-1.28,2.72-2.27,5.62-3.91,8.1S242.91,99.77,238.76,97.44Z"/><path class="cls-21" d="M206.13,149.88c3.19,0,6.39.25,9.58.1,13.94-.65,27.81,1.3,41.74,1,2.16,0,4.66.47,4.44-3,2.41,1.77,1.58,4.91,3,7.09-20.25,0-40.52.29-60.75-1C203,151.8,202.65,149.92,206.13,149.88Z"/><path class="cls-22" d="M259.85,145c-15.73,1-31.3-1.73-47-2a3.11,3.11,0,0,1-2.67-1.09c-2.13-1.4-.93-2.66.15-3.93l.07,0a2.71,2.71,0,0,1,3.87-.1c12.74,1.52,25.46,3.18,38.32,3,1.76,0,3.73.66,5.22-1C259.2,141.31,259.41,143.18,259.85,145Z"/><path class="cls-23" d="M265.85,168.16c-11.17.24-22.32-.32-33.48-.93-2.71-.14-4.62-1.56-4.29-3.82s3.17-1.4,4.73-1.13c10.54,1.89,21.16.35,31.72.89,2.23.11,3.63-.53,3.42-3.06,1.88,1.93.93,3.55-.59,5.07C266.52,166,264.86,166.4,265.85,168.16Z"/><path class="cls-24" d="M281.19,186.48c-.59.56-1.19,1.13-1.79,1.68-3,2.75-5.32,2.61-6.47-1.73-1.21-1.62-1.44-3.67-2.37-5.46s-1.85-4.77,2.2-4.86c4.06,1,7.32,3.43,10.35,6.2C284.66,184.71,282,185.17,281.19,186.48Z"/><path class="cls-25" d="M285,214.64l8.37-13.08,1.86,1c-1.56,2.63-2.21,4.67,2.25,4.13,1.53-.19,3.39-.41,3.86,1.87a3.1,3.1,0,0,1-1.92,1.23c-4.39.36-7.44,2-7.1,7.14a3.14,3.14,0,0,1-1.13,2.69c-2.84,1.84-4.07-.7-3.4-2.19C289.82,213,286,215.44,285,214.64Z"/><path class="cls-26" d="M272.76,176.11c-2.95,1.24-2,3.52-1,5.26a7.48,7.48,0,0,1,1.16,5.06c-4.1-3.87-4.73-9.19-5.9-14.27C268.16,174.6,270.87,174.76,272.76,176.11Z"/><path class="cls-17" d="M234.8,113.6c2.85-.11,4.6,2.26,7.08,3.22-3.43,1.06-6.79,1.53-10.13-.2C231.37,114.2,233.25,114.06,234.8,113.6Z"/><path class="cls-27" d="M234.8,113.6l-3.05,3-4.13,1.09c1-1.87,3.56-3.52.89-5.94C230.86,111.52,233.21,111.23,234.8,113.6Z"/><path class="cls-28" d="M281.19,186.48c-.35-1.84,2.23-2.34,1.92-4.17l2,1.25C285.32,186.58,283.22,186.48,281.19,186.48Z"/><path class="cls-29" d="M233.57,2.55c-.53,2.74,2,4,3,6,3.33,3.52,2.83,7.78,1.92,11.89-3.88,17.52-26,33.44-44.07,31.83-2.08-.19-4-.57-5.21-2.5-3.91-1.63-6.42-4.88-9.12-7.91C175.79,19.35,203.82-2.71,224.39.27,227.58.73,230.24,2.94,233.57,2.55Z"/><path class="cls-2" d="M64.73,265.44c-3.56-2.72-4-7.17-5.65-10.85-2.38-5.12-5.39-10-6.51-15.71,1.7-12,11.19-21.34,23.2-22,4-.21,5.25-1.67,6.4-5.15,5.27-15.89,19.13-23.12,35.32-18.75,2,4,1.56,8.07.15,12.12-1,2.87-1.94,5.7.6,8.3a5,5,0,0,1,2.29,3.3,11.66,11.66,0,0,1-.41,5.77c-1.32,1.88-1.49,4.82-4.63,5.05a26.12,26.12,0,0,1-8.3-2.3c-1.55-1.66-1-4.28-2.69-5.87-6.37-3-9.35-1.63-10.21,4.9a8.28,8.28,0,0,1-.63,2.39c-3.07,4.84-5.79,9.9-8.83,14.76-3.19,1.29-5.76,1.21-7.13-2.68-1.48-4.22-3.62-5.29-7.93-4.37-4.14.88-3.63,4.09-3.57,7.07a3.79,3.79,0,0,0,1,2.72c1.81,2.58,4.91,1,7.14,2.24a1.53,1.53,0,0,1,.76,1.15A2.65,2.65,0,0,1,73.25,249c-7,2.38-9.26,6.28-8,13.63C65.38,263.66,65.6,264.64,64.73,265.44Z"/><path class="cls-30" d="M117.35,214.69c-4-2-2.58-6.2-1.64-8.15,2.19-4.54,1.29-9.06,1.78-13.57l3.7.75.42,3.77A66.18,66.18,0,0,1,117.35,214.69Z"/><path class="cls-13" d="M115.51,226.8c2.8,0,.86-4.23,3.74-4.13a3.62,3.62,0,0,1,2.45,0c9.19,2.18,10.89,6.51,5.7,14.42-1.42,2.17-3,2.54-4.94.74-1.12-1-1.85-2.37-3.06-3.49,5.61,4.65,5.74,10.2,4.19,16.86-3.55,15.18-3.53,30.36,3,45-7.47-16.49-5.87-33.34-2-50.27.55-2.39,2.36-3.58,4.63-4.13a316.35,316.35,0,0,1,43.66-7.15c6.61-.66,7-.09,9.38,6.31a11.52,11.52,0,0,0,3.62,5.33c2.61,3.14,6.36,4.44,10,5.62,14.53,4.73,29.28,8.3,44.65,9.45,9.15.68,18.14,3.13,27,5.62,1.56.44,3,1.58,4.1,1.23-15.35-5.38-32.12-6.66-48.65-9.22a11.36,11.36,0,0,1-4.4-3.15c-1.64-1.61-3.89-2.95-4.43-5.23-.64-2.75,2.78-2.82,3.84-4.62s2.9-3.22,3.08-5.56c.49-3,1.14-5.87,5.07-5.95a2.49,2.49,0,0,1,1.25,1.8c-.88,5,2.51,5.49,6.12,5.73a5.9,5.9,0,0,1,1.28.45c1.62,1.32,3.71,1.32,5.57,2a2.61,2.61,0,0,1,.94,1,6.88,6.88,0,0,1,.52,2c.13,1.17.32,2.33.56,3.49,1.3,6.2,8.71,9.64,14.53,6.85,2.08-1,2.69-2.88,3.55-4.68a2.3,2.3,0,0,1,2-.68,7.94,7.94,0,0,1,2,.76c1.48.8,3.23.63,4.74,1.3a60.42,60.42,0,0,1,13.18,8.08c6.73,5.73,7.24,7.85,4.21,14.53-1.18,2.6-2.67,3.73-5.45,2.93-2.24-1.12-4.1-2.86-6.42-3.88-4.57-2-7.77-1-9.84,3.55a27.68,27.68,0,0,0-1.68,19.53c1.54,5.53.93,11.05-.47,16.52-5,1.23-10,2.36-15.24,1.94-2.24-.18-4.37-.46-5-3.15-1.36-1.49-1.09-3.36-1.19-5.14-.35-6.38-1.07-6.93-7.58-5.65-21.07,1.49-42.05,4.43-63.23,4.31a10.42,10.42,0,0,0-3.45.59c-8.67,1-17.36.77-26.05.49-2.27-.28-4.6.13-6.82-.63-6-3.13-12.88-4.52-17.79-9.63-2.66-2.54-4-5.47-4.83-9.25s-3.4-7.38-5.35-11c-1.67-13.71.14-27.06,4.35-40.1C111.84,234.54,111.75,229.83,115.51,226.8Z"/><path class="cls-31" d="M107.07,279.48c.8.62,2.36.32,2.18,2.12s.12,3.66,2.57,4.08c.48.09,1.24.95,1.18,1.33-.75,4.58,1.57,7.95,4.17,11.25.6,3.94,1.58,7.8,2.53,11.66.48,1.95,1.27,3.88,0,5.81,1.72,9.39,5.63,18.64,1.69,28.36-1.65,1.44-3.67,1.38-5.67,1.42-1.83,0-3.84-.46-5.45.25-4.82,2.12-9,.5-13.14-1.69l-8.08.06c-4.54,2.49-9.52,4-14.08,6.49-2.87,1.58-6.26.91-9.42.7-3.79-.24-5.28-2.91-6.35-6.16-.39-1.17-1.79-2-2.49-3.12-2.66-5.22-6.39-9.69-10-14.24-.84-2.42-1.27-5.13-4.21-6.1-3.43-8.67-3.9-17,1.87-25.11,2.25-3.16,5.52-4.76,8.22-7.18,2-3.86,6.34-3.59,9.44-5.51a4.82,4.82,0,0,1,2.73-.35c2.4-.62,4.91-1,6.33-3.42,2.84-2.76,6.73-3.45,10.11-5.15a32.12,32.12,0,0,1,15.26-1.85C100.47,274.43,104.45,275.83,107.07,279.48Z"/><path class="cls-32" d="M370.08,339c0,3.85-.3,7.73,0,11.57.34,4.51-1.53,5.76-5.84,5.73-22.65-.18-45.31-.11-68-.12-2.69-1.5-2.51-4.14-2.55-6.64-.1-6.69-.09-13.39,0-20.09,0-3.61-1.46-5-5.08-5.13s-7.42,1.13-10.61-1.63a1.17,1.17,0,0,1,.64-1.53c4-1.56,8.28-.85,12.42-.85,7.51,0,15-.46,22.55.33a31.33,31.33,0,0,0,14,0,21.9,21.9,0,0,1,3.71-.25c11.09-.32,22.18-.11,33.28-.12a9.35,9.35,0,0,1,5.35,1.11c2.85,4.45.95,9.39,1.47,14.09A4.83,4.83,0,0,1,370.08,339Z"/><path class="cls-33" d="M166.71,307.52a6.26,6.26,0,0,1,1.86-.68c20.84-.2,41.52-2.89,62.28-4.27,1.18-.08,2.36-.05,3.54-.08,4.57,4.18,2.47,9.39,2.22,14.31-11,2.61-22,5.18-33.05,7.84-4.56,1.1-9.2,6.13-9.2,11.14,0,4.33,0,9.21,5.57,11.25,3.52,1.29,4.92,4.59,6.07,7.89.56,1.61-.36,2.13-1.74,2.27-1.68-1.27-3.7-1.44-5.67-1.8-8.68-1.57-11.63-4.27-13.26-13.3a96.16,96.16,0,0,0-7.86-23.75,17.26,17.26,0,0,0-8.54-8.79A4.16,4.16,0,0,1,166.71,307.52Z"/><path class="cls-34" d="M278.09,322.34c3.1,1.05,6.31.42,9.46.48,8.84.17,7.58-.82,7.67,7.91.07,6.7,0,13.41,0,20.11,0,1.86,0,3.69,1,5.32-5.71-2.49-11.54-.18-17.26-.07-3.2.07-5.87-2.59-9-1-2,.05-4.12.68-5.19-1.82,1.66-.23,2.19-1.28,2.12-2.82-.26-5.13.3-10.26-.41-15.42-.58-4.21,1.73-8.44.41-12.76C271.05,319.44,274.23,319.47,278.09,322.34Z"/><path class="cls-35" d="M278.09,322.34a41.78,41.78,0,0,0-11.17-.11c-1.61-.68-2-2-2.09-3.61-.06-1.39-.33-2.68-2.1-2.82-.14-8-.81-15.91-1.64-23.83a25.5,25.5,0,0,1,1.28-9.92c2.55-8.53,7.51-10.61,15-6a28.4,28.4,0,0,1,3.75,3.3c1.69,1.68,4.4,2.12,5.49,4.54a8.93,8.93,0,0,1-2.78,9.16c-6.67,6.44-7,14.48-5.91,22.9.25,1.94,1.46,3.85.17,5.83A1.22,1.22,0,0,1,278.09,322.34Z"/><path class="cls-36" d="M189.08,359.14a51.38,51.38,0,0,1-15.39-1.95,9,9,0,0,1-6.81-6.64,40.71,40.71,0,0,1-2-13.39,17.79,17.79,0,0,0-2.37-10.11,12.15,12.15,0,0,1-3.86-6.68,10,10,0,0,1,.51-5.61c4.2-3.21,8-3.07,11.53.59a27.69,27.69,0,0,1,6.1,10.93c1.8,5.43,3.79,10.8,5.22,16.34,1.26,4.91,2.57,9.78,6.5,13.42C189.39,356.83,190.08,357.91,189.08,359.14Z"/><path class="cls-37" d="M370.08,339c0-1,0-2,0-3,8.88-.83,17.77-.16,26.66-.33,6.5-.12,8.3-2,7.83-8.43-.33-4.61.56-5.51,5.39-5.31,1.05,0,2.64,1,2.55-1-.24-5.5.23-11-.13-16.51-.2-3-1.79-3.43-4.3-3.41-10.43.08-20.85.05-31.27,0-2.18,0-4.39.2-6.51-.55a5,5,0,0,1-2.89-3.08,2.2,2.2,0,0,1,.93-2.38c3.81-1.53,7.8-.67,11.71-.89,2.42.16,4.84-.16,7.26.05,5.08-.14,10.16-.16,15.24,0,3.15.19,4.62-1.22,4.45-4.45a15.58,15.58,0,0,1,.48-5.47,12.7,12.7,0,0,0,1.58-7c-.06-1.76-.14-3.6,1.29-5,2.76.55,2.36,2.88,2.45,4.71.23,4.3,0,8.62.12,12.92,0,1.57-.53,3.43,1.52,4.33a10.8,10.8,0,0,1,2.06,1.36c2.59.69,1.85,2.9,1.85,4.54,0,9.3-.08,18.61-.14,27.92-1.94-.29-2.84.9-4,2.26-5.31,6.12-11.56,10.36-20.26,9.88-6.17-.33-12.38-.07-18.57-.05C373.55,340,371.7,340.12,370.08,339Z"/><path class="cls-38" d="M189.08,359.14c-8.56-8.34-8.7-20.27-12.85-30.49a75.77,75.77,0,0,0-4.48-10.07c-3-5.1-6.17-6-11.87-3.73-.2-4.87,2.84-7,9-6.19,4.85.74,7.2,4.33,9.27,8.2,4.43,8.31,7,17.24,8.88,26.42,1.65,7.91,4,9.79,12,11,2,.3,5-.65,5.2,2.93A32.61,32.61,0,0,1,189.08,359.14Z"/><path class="cls-39" d="M119.7,315.73q-1.56-6.36-3.11-12.72c-.39-1.65-.83-3.32.59-4.75a40.44,40.44,0,0,0,13.52,7.19c1.25.39,2.73.35,3.11,2.05,1.65,3.95-.26,7.07-2.37,10.14C127.8,315.29,123.69,315.9,119.7,315.73Z"/><path class="cls-40" d="M159.68,320.74l2.86,6.31c-4.16-.51-7.79,1.73-11.75,2.28-6.67.94-13.3,1.66-19.32-2.46A3.26,3.26,0,0,1,131,325c-.1-5,.39-5.52,5.05-4a23.06,23.06,0,0,0,12.39.91C152.21,321.74,155.66,318.43,159.68,320.74Z"/><path class="cls-41" d="M148.69,322.86c-3.86,1.82-7.73,1.2-11.55,0-5.59-1.79-5.57-1.85-5.67,4-2.22-3.07-.27-6.15,0-9.23q1.19-5.07,2.36-10.14l6.83.12c-.85,3.38.31,5.63,3.55,7.08C147.61,316.24,150.14,318.51,148.69,322.86Z"/><path class="cls-42" d="M236.61,316.8c-1.57-2.92-.71-6.11-1-9.16-.14-1.81-.13-3.61-1.26-5.15,6.92-2.12,8-1.42,8.39,5.57a65,65,0,0,1-.3,6.53Z"/><path class="cls-43" d="M56.71,342c1.18.91,2.88,1.59,3.43,2.8,1,2.17,1.7,4.83,4.18,5.07,3.74.37,7.5.67,11.31-.85,4.41-1.77,8.18-5.42,13.42-4.93-2.07,4.34-6.86,4-10.34,5.95-1,.54-1.67,1-1.8,2.07a2.1,2.1,0,0,1-3.23,1.68c-3.22-1.68-6.76-.63-10-1.65-2.77,0-4.64-1.68-4.78-4.13S56.66,344.29,56.71,342Z"/><path class="cls-44" d="M97.13,344.06c8.08,3,16.18-1.51,24.26,0-.09,1.4-.91,2.79,0,4.2-.35.33-.65.28-.88-.15l-2.15-1a43.1,43.1,0,0,1-8.16,1C105.2,348.76,100.64,348.12,97.13,344.06Z"/><path class="cls-45" d="M204.94,335.13c.36-.42.74-1.26,1.16-1.28,7.55-.4,15-2.43,22.64-1.2.53.09,1,.74,1.5,1.17Z"/><path class="cls-46" d="M63.68,352.18c2.92-.14,5.84-.43,8.7.68,1.53.59,3.21.74,4.53-.71,3.62-.55,7.39-2.08,10.38,1.23-8.58,1.63-17.28-.69-25.84,1.11C61.41,353.11,63.26,353.29,63.68,352.18Z"/><path class="cls-47" d="M277.88,374.5c-2.88,1.94-6.61,3.1-9.47,2.4-4.48-1.11-8.54-2.51-13,0l1.53-2.45C263.9,374,270.89,375.43,277.88,374.5Z"/><path class="cls-48" d="M264.8,353.23l5.19,1.82c.37.33.93.58,1.09,1,.45,1.11-.35,1.06-1,.75-4.85-2.5-9.71-1.41-15.87.78A13.86,13.86,0,0,1,264.8,353.23Z"/><path class="cls-49" d="M392.28,347.13a3,3,0,0,1-3.68.86c-4-1.82-7.42-.29-11.07,1,1.91-2.93,4.44-4.28,8.07-3.2,1.88.56,3.74,1.68,5.77.47A1.67,1.67,0,0,1,392.28,347.13Z"/><path class="cls-50" d="M249.73,355.68a45,45,0,0,0-11.16,2C241.77,354.47,245.35,353.11,249.73,355.68Z"/><path class="cls-3" d="M325.59,366.44c-3.83,3.18-7.67.47-12.7.71,4-3.7,7.74.62,10.61-1.88C324,366,325.21,365.48,325.59,366.44Z"/><path class="cls-8" d="M418.54,327.87c3.4-.06,6.81-.16,8.14,4C423,332.5,421,329.63,418.54,327.87Z"/><path class="cls-51" d="M325.59,366.44c-.83-.16-1.76-.13-2.09-1.17,3.86-1.48,7.58-1.47,11.05,1.06-.94,1.61-2,.08-3,.11Z"/><path class="cls-52" d="M120.47,348.14c.3.05.59.09.88.15,3.41-.27,6.69-2.58,10.77-.48-3.37.47-6.32.69-9,1.95C121.58,350.47,120.47,350.09,120.47,348.14Z"/><path class="cls-53" d="M144.67,357.91c3.51-2.82,7.32-1.47,11-1.35C152.06,357.44,148.27,356.91,144.67,357.91Z"/><path class="cls-54" d="M392.28,347.13l-.91-.88a11.34,11.34,0,0,1,10.11,0A18.08,18.08,0,0,0,392.28,347.13Z"/><path class="cls-3" d="M148.24,362.78c-.11,2.42.51,3.83-.4,5.11a1.63,1.63,0,0,1-1.23-.41C145.83,366,146.5,364.75,148.24,362.78Z"/><path class="cls-52" d="M110.16,348.08c2.58-1.55,5.4-1,8.16-1C115.65,347.85,113.14,350,110.16,348.08Z"/><path class="cls-55" d="M226.7,235c-3.23.71-4.44,2.85-4.27,6a71.84,71.84,0,0,1-22-4.8,8.19,8.19,0,0,1-4.54-4.4c.8-3.4-.43-4.67-4-4.71-2.63,0-6.05,1.61-7.8-2.1l.05-.21c2.29-1.85,5-1.27,7.63-1.4,4.75-.24,9.61.71,14.2-1.26,7.54-3,12.13-9,15.86-15.72,1.86-3.36,3.58-6.81,5.33-10.23.63-1.21,1.39-2.34,3.05-2.12,2.18.81,3,2.94,4.44,4.52,2.45,5.88,3.09,11.76.19,17.72a6.55,6.55,0,0,0-.09,2.48c-.06.2-.11.41-.16.62-1,1.74-.67,3.81-1.33,5.64-1.69,3.3-2.94,6.83-5.19,9.84A1.21,1.21,0,0,1,226.7,235Z"/><path class="cls-56" d="M281.19,263.1c-3.65-3.42-8.67-4.65-12.47-7.84-.54-2.17.62-3.55,2.19-4.74,7-1.22,13.16-4.69,19.64-7.32l.72-.22a13.66,13.66,0,0,1,13.43,4c1.46,1.5,3.14,2.79,4.72,4.17,1.2,3.13-2.09,2.75-3.18,4.09a5.91,5.91,0,0,0-2.26,3.52,2.92,2.92,0,0,1-.82,1c-.54.34-1.12.62-1.68.92-1.52,2-1.27,4,.19,5.94a5.5,5.5,0,0,1,1.13,1.83,3.18,3.18,0,0,1-.11,1.47,2.58,2.58,0,0,1-1.12.95c-4.14-.09-8.3-.53-12.37.71C287.55,267.74,285.22,264.61,281.19,263.1Z"/><path class="cls-57" d="M414.55,295.52c-3,.33-3.1-1.58-3.08-3.77,0-5,0-9.93,0-14.89,0-1.6.45-3.36-1-4.66a4.62,4.62,0,0,1-2.61-2.93c-4.52-14.42-18.69-16.79-31.89-15.58-8.54.78-14.8,4.86-18.88,12.31-1.55,2.84-3.53,3.36-6.2,1.66-1.71-3.41,1.16-5.7,2.07-8.48,1.88-4,5.55-6,9.19-8l5.8-2.21c2.53-1.54,5.86-.83,8.2-2.92,2.66-.21,5.32-1.48,8-.06,1.11,1.22,2.66.92,4.05,1.14,2.4,2,5.78-.21,8.16,1.9,7.22,2.65,11.85,8.22,16.06,14.26C416.64,273.8,416.23,284.62,414.55,295.52Z"/><path class="cls-58" d="M263.87,254.15l-1.23-.81c-3.44-2.53-7.38-3.17-11.53-3.05a6.47,6.47,0,0,1-2.12-.57,14.49,14.49,0,0,1-2.71-2.29c-1.23-2.43-3.82-1.53-5.71-2.32h0c-1.67-1.74-4.29-.63-6.08-2h0c-1.18-2,.51-3,1.44-4.3a49,49,0,0,0,4.22-4.18c.95-.82,1.45-2.06,2.55-2.75a31.62,31.62,0,0,1,22,14.74c.62,1,1.05,2.08,2.3,2.44l.54.49C269.55,253.65,267,254.14,263.87,254.15Z"/><path class="cls-59" d="M325.48,257.09c6.14,1.17,12.16.27,18.16-1a1.57,1.57,0,0,1,.41,1.29c-3.09,4.48-4.31,9.09-.91,14a18.33,18.33,0,0,1-7.71,8.57c-2.9.13-3.49-2.37-4.24-4.2-2.28-5.54-6-9-12.08-9.8-2.15-1.28-1.76-3.74-2.63-5.61-.24-1.34-1.06-2.76.53-3.84A10.36,10.36,0,0,1,325.48,257.09Z"/><path class="cls-60" d="M343.78,257.07c0-.34-.09-.68-.14-1l3.94-1.82c-3-2.33-3.44-5.78-4.8-8.85-1.17-2.62-5-3-6.29-6.42-1.6-4.34-1.16-9.09,2.25-12.2,2.33-2.13,10.2-2.94,12.71-1.23a5.12,5.12,0,0,1,2.51,5.1l-.45.54c-1.58.49-2.39-.75-3.46-1.48-3.63-2.47-7.77-2.15-9.77.7-2.4,3.41-1.34,7.54,2.65,10.22a12.84,12.84,0,0,1,3.25,2.27,4.74,4.74,0,0,1,.74,2.33c.14,3,1.3,5.28,4.66,5.17s4.82-2.41,5-5.61a16.23,16.23,0,0,1,.2-2,3,3,0,0,1,1.13-1.88c3.21.88,1.64,3.54,2,5.46s-.88,4.25,2.18,4.81c-1.93,3.54-6.26,4.56-8.33,7.94C350.34,258.91,346.84,259.05,343.78,257.07Z"/><path class="cls-61" d="M291.31,241.1c0,.63,0,1.25,0,1.88l-.22-.09c-3,1.69-6.06,3.32-9.72,2.88-3.86-1.7-6.33-4.29-5.62-8.88,1.28-3.5,3-6.59,6.7-8.13,1.65-.67,3.1-1.32,4.56.21l4.09,2.1C292.94,234.37,292.49,237.73,291.31,241.1Z"/><path class="cls-62" d="M384.09,246a18,18,0,0,1-7.94,1c-1-.25-1.4-1.22-2.12-1.81-1-2.79-3.68-5.59-.6-8.5,2.59-2.46,5.27-5.35,9.34-2.15S387.33,241.64,384.09,246Z"/><path class="cls-63" d="M305.53,233.08c.59-.79,1.17-1.59,1.76-2.39,2.74-1.1,5.45-1.49,8.08.31l1.81,2.09c2,2.56,1.79,5.16.1,7.77-3.94,3.1-7.87,3.17-11.79,0A6.35,6.35,0,0,1,305.53,233.08Z"/><path class="cls-64" d="M291.23,219.58c-.29-9.44.39-10.38,7.92-10.89,6.4,2.69,7.26,7.52,2.16,12.08l-.1-.09a7.48,7.48,0,0,1-8,.06Z"/><path class="cls-65" d="M275.86,237.13c1.12,2.93,2.21,5.88,5.13,7.61-1.45,4.95-5.11,5.78-9.56,5.13a4.36,4.36,0,0,1-1.47-.79c-2.53-3.13-2.95-6.45-.85-10,1.79-1,3.4-2.55,5.72-2.3C275.3,236.5,275.64,236.63,275.86,237.13Z"/><path class="cls-66" d="M258.79,220c2.33,2.71,4.46,5.65,8,7,2.46,1.28,1.31,2.54,0,3.8l0,0c-2.55,2.29-5.19,2.43-7.94.36-2.3-.51-2.52-2.87-3.82-4.28C254.74,223.68,254.78,220.72,258.79,220Z"/><path class="cls-67" d="M414.55,295.52c-.37-10.76.79-21.63-2.19-32.22,3.13,2.45,3.16,6.28,4,9.64.52,2,.15,4.29.18,6.44l0,16.1Z"/><path class="cls-68" d="M234.59,198.51c-2.25-.47-3.24-2.26-4.27-4-1.52-1.31-3.17-2.55-2.68-5,.44-1.59,1.23-2.82,3-3.08,1-1.63,1.86-3.33,3-4.87,1.28-1.79,1.69-.45,2.07.71C232.66,187.51,231.86,192.89,234.59,198.51Z"/><path class="cls-69" d="M242.7,231.87c0,1.45.05,2.94-2,3.06-1.87-1.41-.8-4.24-2.75-5.61-1.5-1.64-4-2.41-4.3-5.09,0-1.89-.41-3.83.75-5.56l.29,0C240.85,221,241.31,226.7,242.7,231.87Z"/><path class="cls-70" d="M325.48,257.09l-9.23.07c-3.19,1.46-6-1.05-9-.91a3.08,3.08,0,0,1-2-1.25c-.08-2.87,4.29-1,4.17-3.87,2.06,3.86,6,2.1,9,3C320.89,254.83,324.06,253.91,325.48,257.09Z"/><path class="cls-71" d="M266.77,230.75c.1-1.27,1.31-2.53,0-3.8,4.18.23,7.06-2.17,10-4.7,2.31-2,3.62-5.33,7.26-5.61-2.58,5.89-7.16,9.61-13.06,11.74C269.38,229,268.82,231.14,266.77,230.75Z"/><path class="cls-72" d="M275.86,237.13l-1-.33c.23-4.54,2.8-7.53,6.71-9.27,1.88-.85,4.48-2.21,5.43,1.44C280.92,228.5,279.14,233.83,275.86,237.13Z"/><path class="cls-73" d="M301.31,220.77c3.21-6.13,2.88-8-2.16-12.08l2.23-.17c3.46,2.32,5.29,7.67,3.76,10.87C304.3,221.15,302.73,220.72,301.31,220.77Z"/><path class="cls-74" d="M357.92,240.92l-.18,2.33c-4,.28-4.69-2.53-5.25-5.5,0-2.3-.46-4.69,1.22-6.69l.25-.43a2.41,2.41,0,0,1,1.87,3C355.3,236.46,356.67,238.65,357.92,240.92Z"/><path class="cls-75" d="M258.79,220c-2.72,1.46-3.3,4.11-3.81,6.8-1.9-3.95,1-8-.24-12C257.75,215.25,257.14,218.5,258.79,220Z"/><path class="cls-76" d="M258.8,231.07c2.7,1,5.29-.28,7.94-.36C263.93,236.2,262.37,236.27,258.8,231.07Z"/><path class="cls-77" d="M269.11,239.1c-.29,3.5-1,7.07,1.79,10A2.81,2.81,0,0,1,267,249h0c.92-2.14-.5-4.22-.12-6.35C267.12,241.16,266.52,239.15,269.11,239.1Z"/><path class="cls-78" d="M291.31,241.1c-.08-3.34-.17-6.69-.25-10C294.23,233.42,294.34,238.16,291.31,241.1Z"/><path class="cls-79" d="M238.84,185.39l5.7-1c0,2.72.07,5.44.1,8.16-1.19-.08-2-.79-1.85-1.9C243.19,187.48,241.23,186.31,238.84,185.39Z"/><path class="cls-80" d="M305.53,233.08c0,2.58,0,5.16,0,7.75C302.32,238.32,302.33,235.4,305.53,233.08Z"/><path class="cls-81" d="M315.37,231l-8.08-.31C310.1,227.88,312.82,227.22,315.37,231Z"/><path class="cls-82" d="M396.3,249c-2.7-.71-6.14,1.76-8.16-1.9C390.9,247.63,394.32,245.22,396.3,249Z"/><path class="cls-83" d="M293.21,220.74l8-.06C298.69,223.73,296,223.75,293.21,220.74Z"/><path class="cls-84" d="M317.28,240.86c0-2.59-.07-5.18-.1-7.77C320.43,235.1,320.48,238.54,317.28,240.86Z"/><path class="cls-85" d="M374,245.18a3.33,3.33,0,0,1,2.12,1.81c-2.65,1.08-5.21,2.5-8.25,2C368.51,245.4,373.4,248.72,374,245.18Z"/><path class="cls-79" d="M244.64,192.5c3.75.95,1.51,4,2.07,6C243.5,197.37,245.15,194.56,244.64,192.5Z"/><path class="cls-86" d="M81.34,276.05c-3.31,1.64-6.46,3.67-10.26,4.08-2.94-4.54-5.64-9.18-6.35-14.69-.49-3-2.34-5.62-1-9.16,2-5.45,5.32-8.58,11.13-9,2.51-1.66,2.88.39,3.14,2,.49,3-1,5.07-3.49,6.57-3.5,1.74-2.77,4.21-1.13,6.82A11.92,11.92,0,0,0,76,265.06c4.15,1,7.28,2.85,6.3,7.93A11.25,11.25,0,0,1,81.34,276.05Z"/><path class="cls-87" d="M62.72,284.3c-2.91,2.63-7,2.92-10.14,5.11-4.2,1.19-4.34-.74-3-3.85a3.42,3.42,0,0,1,.72-2.43,5.22,5.22,0,0,1,2.56-1.84c1.86-.18,1.87-1.59,1.72-2.88-.38-3.26,1.25-4.79,4.25-5.29l1.75,2.43C61,278.54,64.07,280.89,62.72,284.3Z"/><path class="cls-88" d="M62.72,284.3c-.31-3-2.89-5.47-2.11-8.75,2.44,2.12,2.91,5.26,4.14,8Z"/><path class="cls-89" d="M52.89,281.29c-.45,1-.86,2.06-2.21,2.14-2.54,1.67-5.34.85-8,.83-4.35-3.51-4.37-7.15-.07-11.51,2.72-.46,5.47-1.17,8,.67A10.85,10.85,0,0,1,52.89,281.29Z"/><path class="cls-90" d="M42.6,273.45c-1.8,3.31-3.87,6.62-.1,10a1.36,1.36,0,0,1,.2,2c-5.4-1.5-4.37-5.93-4.05-9.66.27-3.23,2.66-4.66,5.93-4.41C45.18,273.21,42.9,272.41,42.6,273.45Z"/><path class="cls-91" d="M42.7,285.39c-.07-.66-.13-1.31-.2-2h8.18a1.92,1.92,0,0,1-1.06,2.13Z"/><path class="cls-92" d="M42.6,273.45l2-2.13c2,.66,5.13-1.85,6,2.1Z"/><path class="cls-27" d="M226.39,112.19c-.38,4.71-4.1,4.79-7.46,5.36C221.07,115.28,223.77,113.79,226.39,112.19Z"/><path class="cls-93" d="M189.17,49.77c11.29,3.52,21.2-.21,30.3-6.39,8-5.43,14.61-12.27,17.39-22a20.84,20.84,0,0,0-.33-12.81c8.54,6,10.14,12.34,7,21.75-5.11,15.5-25.81,30-42.56,27.85C195.11,57.4,190.66,54.75,189.17,49.77Z"/><path class="cls-94" d="M184,224.93c2.78,1.8,5.88.47,8.79.92,1.72.26,3.91-.93,5,1.11s-.93,3.32-1.69,4.9c-4,2.44-8.58,2.37-12.67,1.75a41.16,41.16,0,0,0-13-.11c-3.07.49-6-.41-9-.13-7.67-.87-15.41-1.3-22.91-3.34-2.87-.78-5.39-.61-6.79,2.5-.81,1.82-2.45,3.88-1.49,5.64,1.19,2.16,3.67.53,5.52.37,4.86-.42,9.59-1.68,14.37-2.69,7.92-1.06,15.84-2.08,23.79-2.87,7.44-.74,8-.5,10.32,6.55.77,2.33,2.66,4.34,2.16,7.06a.92.92,0,0,1-1.41.47c-2.86-1.45-3.94-4.18-4.42-7-.61-3.59-2.49-4.52-5.88-4.2-14.15,1.32-28.12,3.68-42.08,6.36-5.22,1-7.17,3.22-8,8.24-2,12-3.63,23.84-.25,35.79,1,3.54,2.2,7,3.42,10.48.39,1.11,2.65,2.25.92,3.22s-2.25-1.42-2.91-2.62c-3.75-6.75-4.95-14.22-5.4-21.74a79.07,79.07,0,0,1,2.83-27.86c1-3.33.79-6.47-2-9.06a19.29,19.29,0,0,1-3-3.42c-.86-1.3-2.85-3-1.16-4.3,2-1.56,2.39,1.3,3.44,2.34,1.61,1.59,1.93,5.2,4.51,4.78,2-.34,1.86-3.62,2.56-5.62,2.12-6.09,2.09-6.18-4.5-7.64-1.6-.36-2.54-1.58-3.93-2.15.06-2,.13-4,.19-5.95,2.67-.89,5.33.3,8,0,.82,3.15,3.84,2.6,5.79,2.82,13.93,1.61,27.9,2.86,41.86,4.26C178.07,224.11,181.05,224.55,184,224.93Z"/><path class="cls-15" d="M184.3,194.48c.71-2,1.41-4,2.12-6a3.88,3.88,0,0,1,2.67-1.3c11.93-.3,23.89-1.16,35.73,1.19a3.9,3.9,0,0,1,1.74,1c.72,4.56-.76,6.29-6.7,7.81-9.42-.25-18.84,0-28.26-.12C188.91,197,186.13,197.07,184.3,194.48Z"/><path class="cls-95" d="M182,206.53c.13-3.46-.92-7.14,1.9-10.1,3.55,1.8,7.39,1.59,11.21,1.65,5.95.09,12-.72,17.72,1.77,1.13,4.21-2,5.89-4.66,7.87-6.86,1.69-13.83,1.58-20.79,1C185.44,208.6,183.4,208.24,182,206.53Z"/><path class="cls-21" d="M193.38,172.23l34.17,1c1.37,0,2.79,0,3.55,1.39a4.59,4.59,0,0,1,.88,2.74c-.25,1.22-1.64,1-2.55.83-9.83-1.92-19.76-.4-29.63-1-2.82-.16-5.63-.64-8.44-1C190.88,174.35,192.66,173.56,193.38,172.23Z"/><path class="cls-96" d="M226.54,190.63c-4.11-2-8.62-2-13-2.14-9-.24-18.08-.06-27.12-.05-.51-1.87,1.7-2.52,1.84-4.1,10.91,0,21.83,0,32.75,0a25.18,25.18,0,0,1,9.65,2.08l-2.1,2.74C228.07,189.92,227.77,190.92,226.54,190.63Z"/><path class="cls-97" d="M127.43,216.73c-2.66,3.12-5.33.46-8,0a2.51,2.51,0,0,0-2.09-2c.37-6,.72-12,4.26-17.2C127.72,200.09,130.29,208.58,127.43,216.73Z"/><path class="cls-98" d="M207.21,222.76c-3.07,2.83-6.89,2.11-10.52,2.13-4.2,0-8.4-.1-12.61-.17-1.29-2.52-3-4.95-2.06-8,8.54-.69,17.11-1.66,25.38,1.73A3.18,3.18,0,0,1,207.21,222.76Z"/><path class="cls-99" d="M206.8,218.71c-8.14-2.11-16.65.24-24.78-2-.4-1.94-1.56-3.79-.67-5.88,8.8-.8,17.6-1.94,26.3.75C208.91,214.12,209.48,216.61,206.8,218.71Z"/><path class="cls-100" d="M213.57,200.69c-8.23-1.57-16.57-1.13-24.87-1.15-2.35,0-4.4-.21-4.79-3.11l.39-2c9.92,2.09,20,.49,29.94,1,2.09.11,4.37-.75,6.25.9C219.75,200.39,216.91,200.94,213.57,200.69Z"/><path class="cls-101" d="M199.31,160.15c5.72,2.07,11.63.6,17.45.92,2.89.16,5.67.44,8.12,2.07a2,2,0,0,1,1.11,2.07c-.19.83-.94,1-1.58.92-9.08-.72-18.24,1-27.27-1C197.26,163.22,196.81,161.05,199.31,160.15Z"/><path class="cls-102" d="M206.93,211.68c-8.52-.49-17.11,1-25.58-.87-.37-1.52-.78-3,.66-4.28a77.36,77.36,0,0,0,26.29.06C209.75,208.8,209.76,210.62,206.93,211.68Z"/><path class="cls-103" d="M206.13,149.88c-2.65.44-1.73,2.58-2,4.16-1.74-.18-2.11,2.42-4,2,1.92-4.07,2.13-9,6.17-12C206.26,146,206.19,147.92,206.13,149.88Z"/><path class="cls-104" d="M214.29,137.84l-3.87.1c-.64-4.58,3.36-5.94,5.8-8.38C217.43,132.75,213.54,134.75,214.29,137.84Z"/><path class="cls-105" d="M210.35,137.9c.13,1.32-1,2.59-.15,3.93-1.74-.09-2.06,2.35-3.86,2.15A5.78,5.78,0,0,1,210.35,137.9Z"/><path class="cls-106" d="M249.75,178.35c-4.48-.4-9,.69-13.47-.95-1.59-.59-3-1.49-2.84-3.06.19-2,2.15-1,3.28-1,7.39-.11,14.79-.15,22.13.93-.16,2.57-3,2.42-4.1,4C253.09,179,251.44,179.78,249.75,178.35Z"/><path class="cls-107" d="M249.75,178.35l5-.09c-1.8,1.7-2.48,5.08-6.09,4C249,180.94,249.39,179.65,249.75,178.35Z"/><path class="cls-108" d="M296.46,120.92c-1.64,4.49-1.13,8.5,2.64,11.79l.29.26c-2.73,3,.54,6.36-.61,10-3.31-4.45-.34-11.73-7.25-13.41.2-2.21,3.58.6,2.89-2.1-.9-3.47,0-7.76-2.86-10.26-2.23-1.94-5.55-2.63-8-4.9l8.16,2.81c.83-2.54-1-4.5-.6-6.68s-1.77-4.1.34-7.39c.68,4.67,1,8.44,1.83,12.11.56,2.52-.3,5.67,2.65,7.37Z"/><path class="cls-109" d="M296,120.48l5.51-8.13c-.21,3.78-2.44,6.28-5,8.56C296.31,120.76,296.15,120.62,296,120.48Z"/><path class="cls-110" d="M299.1,132.71c.67-2.6,3.1-3.74,4.68-5.6-.29,2.84-2.44,4.28-4.39,5.86Z"/><path class="cls-111" d="M107.07,279.48l-9.84-5.09c-1.79-2.16-2.16-5.36-5-6.76-6.23-2.63-7.23-3.89-6-7.69a30.62,30.62,0,0,1,1.89-3.53,3.1,3.1,0,0,1,.61-.78c6.85-5.77,6.43-9-1.77-13.22-.44-.23-.89-.44-1.32-.7a1.36,1.36,0,0,1-.61-1.19c1.14-5.48,4.33-9.76,8-13.76l.65.22c3.29,2.63,6.66,4.33,10.51,1,.95-1.18.74-3.47,3.13-3.26a16.9,16.9,0,0,1,8.2,2.07c-1.45,4.86-2.85,9.73-4.36,14.57C107.28,253.81,106.55,266.58,107.07,279.48Z"/><path class="cls-112" d="M74.77,265.3a2.09,2.09,0,0,1-2-2c-1.21-2.72-1.51-5.42.22-8.06,5-3.11,5.52-5.42,1.86-7.92l0-.41a1.93,1.93,0,0,1-.4-2c.21-.64-.09.15.18-.46,1.09-2.37,1.65-4.78-.2-7-1.08-1.3-2.62-1.29-4.1-.64-2.91,1.28-2.65,3.87-2.57,6.38a2.66,2.66,0,0,1-1,1.89c-4-2.35-2.29-6.17-1.51-8.94,1-3.67,4.85-3.37,8.11-3.26,2.89.09,5.26,1.35,5.4,4.16.25,5,3.15,4.17,6.24,3.5a.44.44,0,0,1,0,.52c-2.36,3.72-6,6.92-5,12.05-2.52,3.76-4,7.79-3.18,12.41A1.91,1.91,0,0,1,74.77,265.3Z"/><path class="cls-113" d="M107.31,224.73l-2.26,3.92c-4,2-7.66,2.12-10.55-1.94-.9-8,2.61-10.65,10.76-8C108.32,219.9,106.86,222.64,107.31,224.73Z"/><path class="cls-114" d="M105.26,218.7l-2.94-.06c-6.31-.08-7.36,1.12-7.06,8a1.34,1.34,0,0,1-2.08.08H93c0-1.66,0-3.32.07-5,0-2.68,1.66-4.72,4-4.92C99.8,216.64,103.35,214.64,105.26,218.7Z"/><path class="cls-115" d="M74.89,245c0,.63,0,1.26,0,1.89-2.78-.27-6.1,1.86-8.11-1.83,0-.71.06-1.41.08-2.11C69.87,242.29,72.39,243.62,74.89,245Z"/><path class="cls-116" d="M160.79,231.91c11.8,1,23.59,0,35.38,0,5.38,5,12.49,5.23,19.07,6.93,2.42.62,4.8,1.43,7.19,2.15a13.67,13.67,0,0,1-7.69,9l7.72,8.2c-4.8,1.72-9-1-13.23-2.2-2-.57-1.18-2.88-.53-4.41.85-2,2-3.91,1.64-5.91.28,2.81-1.3,5.35-2.81,7.79-1.11,1.78-3.08,2-4.9,1s-1.12-2.53-.47-4a29.7,29.7,0,0,0,2.1-5.62,28.27,28.27,0,0,1-1.78,4.69c-1.23,2.91-3,4.14-6.33,2.91C192.54,251,189,249.65,186.1,247c-1.33-3.74-4-6.94-4.19-11.16-.1-2.54-2.3-1.88-3.87-2-7.1-.46-13.9,1.71-20.86,2.51-2.51.29-5,.4-7.49.55-.17-2.87,2-3,3.95-3.28C156.08,233.27,158.61,233.32,160.79,231.91Z"/><path class="cls-117" d="M147.48,266.24c-3.77.29-5.9-1.63-7-5.06-1.48-4.43-1-9-.49-13.4.24-1.95,1.35-4.07,4-3.67,5.58.86,11.13,1.93,16.7,2.9,1,.18,2.11.42,2,1.73C162.09,256.21,156.29,267.1,147.48,266.24Z"/><path class="cls-118" d="M179.86,297.69c-5.33-2-11.48-2.6-16.38-6.19-3.24-2.37-2.64-4.08.73-6.27,7.59-4.91,15.6-.81,23.37-1.21,3.38-.17,4.3,4.09,1.71,6.76S186,299.21,179.86,297.69Z"/><path class="cls-119" d="M148.69,322.86c-.82-3.36-1.53-6.55-5.9-7.35-2.6-.47-3.57-3.43-4.73-5.49-.82-1.46,2.14-1.06,2.57-2.4a204.47,204.47,0,0,0,26.08-.1l2.18,1.14c-4.35.09-7.68,1.69-9,6.19-.06,2-.13,3.93-.2,5.89C155.83,320.5,152.56,323.24,148.69,322.86Z"/><path class="cls-55" d="M186.1,247c3.66.26,6.13,3.14,9.51,4.23,4,1.27,5.46-.09,6.66-3.54.93-2.67.78-5.5,1.83-8.16,1.91,3.44,1.15,6.67-.53,10-.65,1.28-2.52,3.08-.15,4.25,2.09,1,3.32-.62,4.24-2.41a12.7,12.7,0,0,0,1.71-6.21c0-1.5-.74-3.41,1.61-4.53.64,3.8.69,7.27-1.2,10.67-1.41,2.56-1,4.66,2.43,4.75,3.57.09,6.6,2.59,10.25,2.08,17.38,2.63,35.11,3.56,51.45,11.27-5.23-1.18-10.57-2-15.67-3.61-11.91-3.78-24.38-3.65-36.52-5.68a128,128,0,0,1-33.87-10.26c-1.12-.53-1.86-1.85-2.78-2.8Z"/><path class="cls-120" d="M249,248.91l1.8.12c3.27,1.73,7.69.89,10.11,4.51.22,4.42-3.48,7.21-8.72,6.5-1.64-.22-3.28-.94-4.88-.82-3.45.28-5.15-1.48-5.4-4.51-.22-2.65-1.9-5.09-1.06-7.86a2.23,2.23,0,0,1,2.12-.2C244.72,248,247.12,247.71,249,248.91Z"/><path class="cls-121" d="M281.19,263.1c4.68.71,7.28,3.59,8.4,8-.24,4.33-.3,8.72-3.57,12.17-2.26-.54-4.26-1.4-4.87-4,1.7-.1,3.58.66,4.15-2.19.64-3.22,3.83-6.2.49-9.59C284.29,266,282.72,264.58,281.19,263.1Z"/><path class="cls-122" d="M238.71,228.74c3.7,1.09,1.23,4.16,2,6.19a7,7,0,0,1-4.07,4c-3.89,2.09-7.37,2.17-10-2,0-.67,0-1.34.07-2a2.92,2.92,0,0,0,1-.22c.27-.21.63-.52.86-.42C234.33,236.83,237.18,234,238.71,228.74Z"/><path class="cls-123" d="M226.63,237c3,2.49,6.53,2,10,2-.71,1.37-1.43,2.74-2.14,4.12a35.23,35.23,0,0,1-4.84-.35C226.42,242.08,224.6,240.48,226.63,237Z"/><path class="cls-124" d="M260.87,253.54c-3.51-1.2-7.37-1.59-10.11-4.51,4.49,0,9.07-.3,11.88,4.31Z"/><path class="cls-125" d="M267,249l3.95.08h0a1.45,1.45,0,0,1,.14,2.08c-.78,1.35-1.55,2.71-2.32,4.06-1.68-.11-3.5.37-4.86-1.11C266.22,253.24,268,252,267,249Z"/><path class="cls-123" d="M242.65,247l-1.84-.19-.24-1.74c2.79-1.91,5.06-2,6.19,1.8C245.43,248.32,244.05,248,242.65,247Z"/><path class="cls-123" d="M234.51,243.09c2.28-.09,4.79-.89,6.08,2C238.36,245.05,236,245.5,234.51,243.09Z"/><path class="cls-126" d="M112.44,318.68c-1.41-5.31-2.9-10.6-4.19-15.94-1.91-7.93-5.41-14.33-14-16.77-5.19-1.48-9.59.61-14,2.44-6,2.49-11.9,5.45-18,7.87a18,18,0,0,0-8,27.84c2.64,3.5,5.39,7,6.51,11.45C55,328.4,47.88,321.81,47.78,311.75A17.63,17.63,0,0,1,57.25,296c9.33-5.17,19-9.95,29.4-12.66,7.9-2.06,17.34,2.08,20.66,9.64C110.88,301.11,111.63,310,112.44,318.68Z"/><path class="cls-127" d="M93.21,267.15c3.85,1,4.24,4,4,7.24a44,44,0,0,0-15.89,1.66c-.09-.88-.17-1.76-.26-2.64C83.81,265.93,85.83,264.89,93.21,267.15Z"/><path class="cls-128" d="M286,283.31c1.09-4.08,1.22-8.45,3.57-12.17,4-3.74,8.36-1.52,12.64-.82l.63.45c2.82,3.93,2.3,8.78,3.58,13.13a36.49,36.49,0,0,0,5.48,9.4c2.3,3.09,3.49,6.75,4.45,10.46.25.76.43,1.54.64,2.32.79,5.53,2.15,11.17-2.7,15.73l-36.19,0c-2.88-6.89-2.35-14-.9-21a10.75,10.75,0,0,1,3.28-6.07C284.08,291.67,286.43,288.2,286,283.31Z"/><path class="cls-129" d="M367.59,295.48l.45,2c3.89,6.76,3.64,14.16,3.29,21.57a5.92,5.92,0,0,1-.4,1.76,2.4,2.4,0,0,1-1.27,1.24l-39.05-.25c-1.87-2.18-1.37-4.68-.87-7.13,1.07-5.25,1.78-10.48.17-15.75a2.76,2.76,0,0,1,.5-1.41c5.18,1.71,6.41,1.24,9.13-4.27,1.84-3.74,3.15-7.75,5.28-11.36.82-1.37,2-3.35,3.81-2.26,1.57.93.33,2.73-.2,4.08-.66,1.68-1.66,3.22-2.17,4.79,4.73-5,4.26-14.45,13.29-16.15,6.64-.36,8.84,1.16,11.49,7.9C372.52,285.92,369.92,290.66,367.59,295.48Z"/><path class="cls-130" d="M315.39,303.69c-1.47-7.4-8-12.19-10-19.32a48.71,48.71,0,0,1,4.39-11.28c1.08-.83,2.41-1.32,3.34-2.37,2.17-1.72,3.78-4.08,6.29-5.42,6.29-.48,9.61,3.23,12.19,8.32,1,2,1.1,4.92,4,5.74.35,6.63-2.16,12.47-5,18.22h0c-1.26,6-.19,12.17-1,18.22-.29,2.16-.45,4.32-2,6.05-4.44,1.33-8.88,1.66-13.32,0a24.94,24.94,0,0,0,1.24-16.25c.95-6.43,1.1-13.22,7.84-17.08-1.37.58-2.08,2.52-3.64,1.9s-1.13-2.57-1.27-4c-.15-1.64.55-3.17.5-4.79A99.93,99.93,0,0,1,315.39,303.69Z"/><path class="cls-131" d="M369.66,322.06l.75-1.3c1.36-1.91,4.37-.28,5.63-2.54-.93-1.8-3.21-1-4.27-2.37a2.27,2.27,0,0,1-.1-2c1-1.49,3.13-.85,4.38-2.45-.62-2.21-3.84-1.6-4.51-3.77a2.59,2.59,0,0,1,.23-2.07,17.21,17.21,0,0,1,11.4-1.73c-3.87-1.75-7.7-.82-11.53.15-1.86-1-2.86-2.33-1.62-4.46,13,0,25.92.14,38.87.07,3.29,0,4.9-.3,4.94,4.5.05,5.81-1.38,11.9,1,17.72.33.83-1.3,2.46-2.14,3.91-1.43-1.2-1.93-3.17-4.34-3-3,.26-3.51,2-2.68,4.06a7.22,7.22,0,0,1-7,10.19H375.47c-1.85,0-3.72.12-5.35-1Q369.9,329,369.66,322.06Z"/><path class="cls-132" d="M327.63,321.85c2.39-7.92-1.19-16.57,3-24.27,2.8,5.89,1.69,11.82.33,17.82a35.86,35.86,0,0,0-.34,6.41Z"/><path class="cls-133" d="M280.58,345.89c1.73,1,5.1-1.47,5.21,1.94.09,2.64-2.69,3.35-5.27,3.35s-5.33-.67-5.19-3.37C275.5,344.42,278.85,346.9,280.58,345.89Z"/><path class="cls-134" d="M350.53,267.05c2.72.68,4,.57,5.9-2.73A22.47,22.47,0,0,1,375,252.51c10-.73,19.78-.9,27.89,6.45,4,3.6,5.47,8.56,7.5,13.24-.69,4.12,1.72,8.74-2,12.38-3.17,1.55-5.7,1.51-6.54-2.66.47-1.29,1.69-1.5,2.79-1.82,2.07-.61,2.7-2.1,1.89-3.86-1.33-2.9-1.26-6.22-2.93-9-3.44-7.19-9-11-17.12-10.77a100.52,100.52,0,0,1-10.56,0c-5.81-.43-9.93,2.2-13.23,6.62-2.05,3.15-3.46,6.84-7.09,8.71a17.49,17.49,0,0,1-8.16-2.57C347.21,266.66,348.45,266.25,350.53,267.05Z"/><path class="cls-135" d="M367.59,295.48a3.15,3.15,0,0,1,.12-4.14c2.65-3.32,2.34-7.16,2.26-11a10.74,10.74,0,0,1,10-1.63c1.54,3.71,5.36,6.17,5.82,10.5-1.36,2.56-3,4.89-5.64,6.28Z"/><path class="cls-136" d="M402.33,281.44c.5,4,3.8,2.6,6.1,3.14a52,52,0,0,0,.08,6.37c.54,4.24-1.48,5.2-5.13,4.42-3.22-2.32-6.36-4.39-10.59-5.12-4.86-.85-4.77-6.55-.08-11C396.42,277.74,400,276.75,402.33,281.44Z"/><path class="cls-137" d="M393.24,280.89c-2.64,1-3.42,2.88-2.84,5.52s2.41,3.34,4.83,3c4.56-.55,6.42,2.59,8.15,5.91l-16.12.09a1.92,1.92,0,0,1-.23-2.72c1.75-2.49-.64-2.49-1.82-3.23-.32-.92-.4-2.45-1-2.67-3.39-1.29-3.54-4.27-4.11-7.08C384.77,276.67,389.68,277.09,393.24,280.89Z"/><path class="cls-138" d="M370,299.49c-.06,1.76,1,3,2,4.28a1.33,1.33,0,0,1,.19,1.85c0,.71,0,1.42,0,2.13,1,2,1.55,4,.06,6l-.15,2.06c.93,2.15.34,3.57-2,4.17-.05-4-.28-8-.09-12,.18-3.71-3.37-6.62-2-10.49Z"/><path class="cls-139" d="M385.21,289.51c1.39-.09,3.07-1.33,4.09.25.87,1.33-1.18,2.09-1.38,3.37a21.26,21.26,0,0,1-.66,2.33l-7.14,0C381.68,293.39,382.63,290.76,385.21,289.51Z"/><path class="cls-140" d="M206.93,211.68c1.3-1.47,1.43-3.25,1.37-5.09q2.63-3,5.27-5.9c2.41-1.25,5.24-1.83,6.92-4.26,2.09-1.86,5.59-2.25,6-5.8l2-1.45c-.82,2.24,1.86,3.31,1.76,5.3-3.87,3.56-5.19,8.63-7.67,13-3.71,6.56-8.19,12.3-15.44,15.27-.13-1.35-.27-2.7-.41-4A15.05,15.05,0,0,0,206.93,211.68Z"/><path class="cls-141" d="M238.71,228.74c-.23,8.82-2,9.75-11,6,.88-3.59,2.8-6.71,4.57-9.89a1.28,1.28,0,0,1,2.14.13C235.15,227,238.32,226.28,238.71,228.74Z"/><path class="cls-142" d="M234.38,225l-2.14-.13c.92-2-1.13-5,2.16-6.18Q234.4,221.84,234.38,225Z"/><path class="cls-143" d="M307.45,255.28c3.24-.77,5.84,1.39,8.81,1.88l1.33,3c2,6-3,8.39-6.15,11.69-3.65,1.48-6.41-.07-8.9-2.59a5.43,5.43,0,0,1-.17-1c-.31-3.12-1.19-6.3.83-9.21h0C304.53,257.7,305.62,256.07,307.45,255.28Z"/><path class="cls-77" d="M271.05,251.2c-.05-.7-.09-1.39-.14-2.08,4.39.91,7.48-1.17,10.08-4.38,3.58.65,6.4-2.86,10.06-1.85a2.58,2.58,0,0,1-2.08,3C282.39,245.78,278,252.76,271.05,251.2Z"/><path class="cls-144" d="M302.54,269.23c3.08,0,5.44,3,8.75,2a1.63,1.63,0,0,1,2.22.05c-.19,2-1.69,2-3.13,2.12-3.88,2-6.22.27-7.86-3.19l-.29.08Z"/><path class="cls-145" d="M303.2,259c-.34,3.06,1,6.28-.83,9.21l-1.24-.94a8.58,8.58,0,0,1,.17-8.13Z"/><path class="cls-146" d="M301.3,259.18c-.06,2.71-.11,5.42-.17,8.13C298.29,264.54,297.88,261.82,301.3,259.18Z"/><path class="cls-145" d="M307.45,255.28c-.76,2-2,3.48-4.26,3.77-.15-1.77,0-3.39,2.06-4.05Z"/><path class="cls-147" d="M350.53,267.05c-1.18.35-2.77.21-2.62,2.17-1.15,2.1-2.54,3.63-5.19,2.21-4.7-5.33-4.44-8.82,1.06-14.36,3.43.21,7.07-.64,10,2.06C353.53,262.12,351.21,264.25,350.53,267.05Z"/><path class="cls-148" d="M242.65,247l4.11-.13c1.14.22,2.21.51,2.2,2C246.76,248.6,243.88,250.61,242.65,247Z"/><path class="cls-149" d="M342.72,271.43c2.09.11,3.28-1.88,5.19-2.21a13,13,0,0,1,8,1.91c1.76-.27,2.59.71,3,2.25-4.84,1.61-6.57,5.72-8.12,10a20.38,20.38,0,0,1-6.75,8.87c.41-4.78,3.39-8,4.71-12.81-4.37,3.32-5.35,7.75-6.77,11.57-1.29,3.47-3.68,5.93-5.54,8.85-1.51,2.35-3.06,2.5-4.12-.56-.24-.69-1.13-1.16-1.72-1.73.87-6.29,3.18-12.19,5-18.22Z"/><path class="cls-150" d="M313.51,271.31l-2.22-.05c1.69-3.94,7.42-5.59,6.3-11.13,1.88,1.27,0,3.89,1.86,5.17A11.91,11.91,0,0,1,313.51,271.31Z"/><path class="cls-151" d="M353.71,231.06c0,2.32.4,4.67-.33,6.95-1.94,5-3.31,5.91-7.91,5.12-4.82-1.56-8.43-4.13-7.77-9.91.32-2.76,1.62-5.36,4.31-6.13,3-.86,6.26-1.43,8.95,1.22C351.88,229.22,352.18,230.76,353.71,231.06Z"/><path class="cls-152" d="M345.47,243.13c3.76,0,5.76-2.65,7.91-5.12a7.3,7.3,0,0,0,4.36,5.24c.13,5.46-1.89,8.53-5.78,8.81C347.37,252.39,345.73,250.13,345.47,243.13Z"/><path class="cls-153" d="M93.21,267.15c-5.75-1.22-9.35,1.73-12.13,6.26,0-3.33.2-6.83-4.9-6.33-.93.09-1.21-1-1.41-1.78l2.15-.07c.61-.28-.26-.23.39-.3,4.71-.5,6.83-3.36,7.3-7.81,1.35-1.19,2.81-1.85,4.57-.89a28.45,28.45,0,0,1-1,2.73c-1.46,3.09-2.85,6.1,2.64,6.22C92.18,265.2,93.09,265.7,93.21,267.15Z"/><path class="cls-154" d="M73,255.22c-.07,2.68-.15,5.37-.22,8.06C69.86,260.51,69.38,257.81,73,255.22Z"/><path class="cls-155" d="M160.79,231.91c-1.47,2.45-3.82,3-6.44,3-1.88,0-3.75-.09-4.66,2-6.22,2.57-13,2.6-19.43,3.93-1.83.38-2.94-.38-2-2.58.62-1.55.94-3.22,1.53-4.78,2.25-6,2.93-6.33,9.31-4.72C146.2,230.6,153.51,231.12,160.79,231.91Z"/><path class="cls-156" d="M89.18,256.23l-3.86,1c-3.58,1-4.9-1.57-6.26-4.05-1-5.49.62-9.73,6-12.1,5-.29,8,2.54,9.51,6.73C96.24,252.45,92.87,254.6,89.18,256.23Z"/><path class="cls-157" d="M93.18,226.76l2.08-.08c2.79,3,6.36,2.12,9.79,2C102.25,232.8,96.07,231.81,93.18,226.76Z"/><path class="cls-158" d="M74.89,245c-3,.55-5.58-.48-8-2.05-1.76-3.67,0-6.25,3.05-7.72,2.06-1,5-.9,6.16,1.6C77.32,239.55,78.61,242.77,74.89,245Z"/><path class="cls-159" d="M79.06,253.14c2,1.44,3.69,3.45,6.26,4.05l-.06.49c-.58,7.69-.58,7.69-8.34,7.55C72.48,260.29,76.13,256.78,79.06,253.14Z"/><path class="cls-160" d="M315.39,303.69q1.69-13.37,3.38-26.72h1.46c.7,4.14-1.89,8.43-.48,12.67,3.22.07,3.08-4.5,7.78-5.05-6.58,6.52-11,12.9-12,21C315.5,304.93,315.44,304.31,315.39,303.69Z"/><path class="cls-161" d="M302.52,270.24c2.4,1.59,4.53,3.88,7.86,3.19-1.28,3.82-1.94,7.91-4.95,10.94Z"/><path class="cls-162" d="M358.92,273.38l-3-2.24q3-4,5.93-8c1.58,1.06,2.61.31,3.9-.81,6.82-5.9,12.47-6,19,.14,3,2.81,5.6,4.06,9.73,2.91,3.36-.94,7-.74,9.94,1.89,2.82,3.82,4.35,8.22,3.53,12.79-.49,2.7-3.72.89-5.64,1.41-2.9-2.35-5.88-3.44-9.09-.55-4.2-2.47-8.7-1.31-13.12-1.13-3.5-1.76-6.72,1.17-10.15.59C368.16,275.07,364.64,272.48,358.92,273.38Z"/><path class="cls-163" d="M370.14,320c1.31-1.08,1.41-2.74,2-4.17l3.49,0c1.58,0,2.44.67,2.47,2.37,0,1.91-.84,2.72-2.69,2.67-1.66,0-3.32,0-5-.05A1.59,1.59,0,0,1,370.14,320Z"/><path class="cls-164" d="M387.13,335c-1.5,0-3,0-4.5,0s-3.28-.34-3.11-2.34A2.7,2.7,0,0,1,383,330a16.42,16.42,0,0,0,8.66,0c1.49-.41,3.44-.37,3.58,2.18.15,2.76-1.65,2.82-3.6,2.79C390.13,335,388.63,335,387.13,335Z"/><path class="cls-165" d="M372.2,305.62c-.06-.62-.12-1.23-.19-1.85.13-2.1,1.61-2.18,3.2-2.16,2.49,0,5,0,7.47,0,1.66,0,3.66-.16,3.35,2.39-.26,2.16-2.38,2.07-3.52,1.59C379,304.09,375.62,306.31,372.2,305.62Z"/><path class="cls-166" d="M395.19,303.48c0,2.42-1.46,3.18-3.61,3.18-1.8,0-3.38-.13-3.37-2.57s1.74-3.09,3.61-3.35A2.68,2.68,0,0,1,395.19,303.48Z"/><path class="cls-37" d="M409.07,300.63c1.25.14,3,0,2.68,2.28-.27,1.94-.33,4-3.32,3.81-2-.13-3.13-.62-3-2.85S406.69,300.62,409.07,300.63Z"/><path class="cls-167" d="M374.48,327.88c-1.76,0-3.42,0-3.41-2.48,0-2.86,2-2.5,3.86-2.57s3.26.42,3.14,2.76C378,328.15,376.12,327.82,374.48,327.88Z"/><path class="cls-168" d="M401.34,313.8c-3.13-.1-4.9.09-5-2.43-.1-2.82,1.82-2.67,3.7-2.71s3.34.24,3.29,2.63S401.66,313.82,401.34,313.8Z"/><path class="cls-169" d="M399.52,335c-1.76.1-3.25-.2-3.21-2.61s1.78-2.43,3.5-2.42,3.47-.18,3.55,2.37C403.44,335.13,401.51,335,399.52,335Z"/><path class="cls-170" d="M399.94,327.88c-1.63-.07-3.46.24-3.59-2.29-.15-2.79,1.7-2.76,3.63-2.78s3.39.13,3.36,2.55S401.77,328,399.94,327.88Z"/><path class="cls-171" d="M392.27,315.81c.81.07,2.87-.48,2.86,2.15,0,2.16-1.45,2.84-3.36,2.83-1.7,0-3.47.17-3.55-2.38S389.6,315.66,392.27,315.81Z"/><path class="cls-172" d="M391.37,327.88c-1.63.08-3.15-.13-3.16-2.52s1.54-2.58,3.33-2.54,3.52.38,3.52,2.54S393.34,327.9,391.37,327.88Z"/><path class="cls-173" d="M392.27,308.76c.66.11,2.71-.65,2.72,1.66a3,3,0,0,1-3.44,3.34c-1.8-.05-3.35-.15-3.33-2.57S389.76,308.57,392.27,308.76Z"/><path class="cls-174" d="M399.65,315.73c1.6.12,3.62-.39,3.62,2.23a2.52,2.52,0,0,1-2.85,2.76c-1.88-.07-3.84-.47-4-2.87S398.17,315.83,399.65,315.73Z"/><path class="cls-175" d="M400,301.57c1.48.07,3.21-.17,3.26,2.07s-1.19,3.1-3.17,2.92c-1.69-.15-3.51-.61-3.63-2.71C396.3,301.26,398.38,301.68,400,301.57Z"/><path class="cls-176" d="M372.27,313.75l-.06-6a5.49,5.49,0,0,1,.89.4c1.72,1.12,5.76-.58,4.87,3.65C377.25,315.16,374.22,313.19,372.27,313.75Z"/><path class="cls-177" d="M382.76,327.87c-1.63.1-2.66-.6-2.63-2.59,0-2.48,1.76-2.43,3.5-2.44,2,0,2.63,1,2.53,2.86C386,327.89,384.51,327.88,382.76,327.87Z"/><path class="cls-178" d="M374.74,329.93c1.74,0,3.22,0,3.33,2.23s-1.16,2.83-3.13,2.82c-1.76,0-2.92-.45-2.91-2.51S373.08,329.81,374.74,329.93Z"/><path class="cls-179" d="M383.51,308.67c1.64-.11,2.67.59,2.66,2.58s-1.17,2.49-2.93,2.5c-2,0-3.22-.57-3.1-2.86S381.75,308.66,383.51,308.67Z"/><path class="cls-180" d="M408,313.74c-1.67.1-2.64-.66-2.63-2.62s1.27-2.43,3-2.46c2,0,3.2.61,3,2.89S409.78,313.75,408,313.74Z"/><path class="cls-181" d="M383.77,320.79c-2.07,0-3.52-.12-3.63-2.28-.11-2.33,1.23-2.77,3.16-2.77,1.78,0,2.91.52,2.88,2.53S385.13,321,383.77,320.79Z"/><path class="cls-182" d="M408.46,320.8c-1.83.1-3-.39-3-2.45s1-2.61,2.82-2.62,3.3.37,3.22,2.74C411.37,320.6,410,320.88,408.46,320.8Z"/><path class="cls-183" d="M404.44,267.24c-4.6-.86-9.22-1.92-13.73.33-2.07,1-3.09-.39-4.24-1.58-9-9.3-13-9.38-21.69-.45-.43.43-1.16,1.11-1.51,1-1.63-.56-1.22-2.15-1.42-3.42.6-3.05,6.24-7.83,9.78-7.91,6.51-.16,13-.27,19.53,0C396.65,255.37,403.85,262.19,404.44,267.24Z"/></svg>