<svg id="Camada_1" data-name="Camada 1" xmlns="http://www.w3.org/2000/svg" viewBox="0 0 269.15 446.5"><defs><style>.cls-1{fill:#211e2d;}.cls-2{fill:#ecd5b8;}.cls-3{fill:#2b7674;}.cls-4{fill:#65a9bf;}.cls-5{fill:#2c7674;}.cls-6{fill:#fde8c8;}.cls-7{fill:#1f625f;}.cls-8{fill:#f26649;}.cls-9{fill:#f6b8ba;}.cls-10{fill:#e8a4ab;}.cls-11{fill:#cd7669;}.cls-12{fill:#cd7a66;}.cls-13{fill:#637574;}.cls-14{fill:#fcb5b8;}.cls-15{fill:#eda2a8;}.cls-16{fill:#6aa9ba;}.cls-17{fill:#5299ab;}.cls-18{fill:#110f18;}.cls-19{fill:#1e625f;}.cls-20{fill:#e2afb9;}.cls-21{fill:#70a6b4;}.cls-22{fill:#c87a73;}.cls-23{fill:#687878;}.cls-24{fill:#fefefe;}.cls-25{fill:#ca7c6b;}.cls-26{fill:#f8b4b7;}.cls-27{fill:#519897;}.cls-28{fill:#529898;}.cls-29{fill:#559c99;}.cls-30{fill:#549c9a;}.cls-31{fill:#59a09e;}.cls-32{fill:#0f0e16;}.cls-33{fill:#509695;}.cls-34{fill:#4c9492;}.cls-35{fill:#5e6f70;}.cls-36{fill:#40807c;}.cls-37{fill:#448380;}.cls-38{fill:#a09ba6;}.cls-39{fill:#41817f;}.cls-40{fill:#758786;}.cls-41{fill:#c5898c;}</style></defs><path class="cls-1" d="M32.9,16.53c-.73,6.43-2.69,11.94-9.83,13.9-3.95,1.09-6.4,3.62-6.6,8a9.54,9.54,0,0,0,5.77,9.51c4.8,2.32,10.4,3,13.35,8.52,1.08,2,4,.91,6.17.79,7.46-1.78,6.79-8.82,9.05-14,1-5.55,4.65-6.14,9.71-7.75,7.09-2.25,14.77-3.92,21.24-8.75.9,3.63-.4,6.22-1.42,8.79C79,39,78.69,42.65,77.91,46.14c-1.43,6.45-5.67,12.07-10.27,17-1.45,1.56-3.2.11-4.7-.89-1.85-1.24-3.31-3.91-6.21-2C53.52,67,54,69.09,59,71.36,66,71,71.93,75,78.47,76.43c3.7.83,7.42,1.42,7.14-4.75-.11-2.38,1.64-4.89,2.72-7.27,1-2.22,2.41-4.57,1.52-6.89-2.69-7-1-13.41,1.09-20.31,2.78-9.11-7-27.5-16.18-32.23C71.67,3.39,68.41,2.14,65.22.73,50.49-2.1,39.8,3.33,32.9,16.53Z"/><path class="cls-2" d="M142.06,406.68c.31,8.41,3.8,15.79,7.48,23.12,1.16,2.31,2,4.77,3,7.17,1.88,5.35,5.61,7.07,11.22,6.74a168,168,0,0,1,23,0c7.28.59,12.85-.89,15.84-8.1,3.32-8.37,7-16.59,9-25.48a59.93,59.93,0,0,0,1.68-14.06c1.09-3,.55-6,.29-9.27-3.13.14-4.08,2.54-5.31,4.4-8.69,13.12-21.61,19.6-36.45,22.49-7.82,1.52-15.08-1.38-22-5C147.44,407.44,145.28,404.72,142.06,406.68Z"/><path class="cls-3" d="M142,214.45a106.87,106.87,0,0,0-40.11-5.34c-8.85.55-13.05,4.59-11.35,12.31,4.74,21.63,10.1,43.1,23.61,61.42a73.35,73.35,0,0,0,12.69,13.24c1.16.95,2.62,1.8,1.86,3.72,4.71-.39,7.08-4.61,10.83-6.62,10.85-5.83,21.86-9.75,34.19-4.95,1.55-4.29,3.24-8.36,8.41-9.6,1.45-.34,2.35-1.85,2.75-3.41a15.74,15.74,0,0,0-.2-5.89c-1.87-6.43-1.61-12.54,2-18.38a4,4,0,0,0,.33-4.38c-3.76-8.75-11.08-14.08-18.57-19.24a4,4,0,0,0-4.64-.9c-3,1.08-4.75-.59-6.5-2.48-3.44-2.33-5.65-6.07-9.31-8.15A16.34,16.34,0,0,0,142,214.45Z"/><path class="cls-4" d="M63.91,185.05c-.08-4.53.46-7.86,6-9.86,3.93-1.43,1.55-7.69,3.67-11.27,1.87-4.23,5.21-8,4.21-13.14-8-5.89-8.56-12.7-5.09-22,4.3-11.54-2.13-22-7.18-32.11-4-4-4.65-9.76-7.8-14.29-6.43-9.28-16.1-10-23.35-1.25-1.26,1.52-2.82,3-3.3,4.87-1.26,5-4.76,7.59-9.09,9.51-8.32,17-5.87,33.73,1.2,50.35,4.09-4.66,4.37-10.19,3.83-16-.61-6.47-2.86-12.87-1-20.3,3.59,16.76,1.94,33.64,8.44,49.08,1.82,5.86,5.34,10.69,9.2,15.32,3.76,2.95,7.86,5.8,12.66,5.82,4,0,5.2,2,6,5.06A1.15,1.15,0,0,0,63.91,185.05Z"/><path class="cls-5" d="M193.29,338.19c3.24,7.61,9.3,10.61,17.22,10.61,12,0,22.08-5,31.17-12.26,10-8,18-17.91,25.26-28.33,4-5.69,2.63-9.62-4.31-13-11.59-5.7-24-7.92-36.86-8.3-1.41,0-4.14,2.2-4.57-1.47-4.55-1.87-7.92,2.36-12.35,2.34-4.07,0-8.08,1.82-11.25-2.31-.55-.71-1.6-.37-2.26.39a47.3,47.3,0,0,1-7,14.42c-4.82,6.9-4.22,13.33.89,20.31,4.1,4.78,9.37,2.2,12.3-.09,6-4.64,13.3-4.24,19.5-7.37,5.73-2.54,12-3.07,17.94-4.92,3.67-1.47,4.42-5.58,7.06-7.64-.4,1.47-3.53,2.25-2.24,4.41s3.57.43,5.35.16c2.34-.36,4.73-.56,6.23-.93-4.74,1-10.46,1.43-15.8,3.6-1,1.27-3.14,0-4.2,2.12,3.74,2.56,8.2,3.12,12.33,4.64-8.66-3.06-17.34-6.48-26.44-1.58-5.35,3.36-12.71,2.14-18.36,7.77,6.09,1.26,11.2,1.83,16.19,2.95s9.45,3,14.84,5.19a91.27,91.27,0,0,0-30.13-7.52c-6.72-.5-12.14,2.27-14.1,7.26a11.47,11.47,0,0,0,0,6.15C190.26,336.55,191.7,337.45,193.29,338.19Z"/><path class="cls-6" d="M142.06,406.68c6.37,2.1,11.58,6.51,18.37,8.13,12.15,2.9,22.29-1.7,32.35-7,8.48-4.44,15-11.1,20.46-19.68v7.93c2.47-3.34,1.56-7.27,1-10.68a106.06,106.06,0,0,1-1.1-12.92c-.34-8-3.24-10.53-11.26-10.74-3.24-.08-7.13,1.58-9.33-2.55-1.21,1.39-2-.83-3.12-.36A39.43,39.43,0,0,1,185,360c-4.18.55-7.43-.08-7.25-5.42a5,5,0,0,0-1-3c-1.5-1.12-2.21,0-3,1-2,2.52-.16,8.21-6.15,7.45-1.53,2-1.29-1.18-2.26-.78-3.44,4.82-8.47,2.32-12.73,2.48-10.08.38-10.15.46-10.79,10.26-.41,6.14-4.63,12.24-2.22,18.26C141.85,395.72,141.84,401.12,142.06,406.68Z"/><path class="cls-7" d="M195.84,285.47a17.91,17.91,0,0,0,20.72,2.09c1.5-.83,2.66-2.37,4.64-2.16,7.39-4.94,11.9-12.17,15.55-20,3.83-8.19,6-16.95,8-25.71,1.63-7.14-.57-9.64-8-10-17.42-.78-32.84,4.52-46.44,15.32-1,.8-1.79,2-3.36,1.5-6.45,8.8-5.95,18.36-3.08,28.18,1.43,1.22,3.06.48,4.62.5,8.39-1.76,11.71-5.17,12.83-13.22.51-3.7,1.79-7.2,2.28-9.73.64-1.91,1.51-.5.8-1-.15-.12-.23.07-.45.46-2.63,4.68-1.44,10-2.52,15-.71,3.26,2.62,2.09,4.2,1.9,2.78-.32,5.28-1.79,8.23-1.94a60.25,60.25,0,0,0,6.73-.64c-5.67-.14-12,1.95-18.56,3.28s-9.43,4.59-10.17,10.82C192.47,282.5,192.72,285.06,195.84,285.47Z"/><path class="cls-8" d="M147.24,216.51l9.11,8.29c7.1,2.56,8.61,2.11,12.51-3.78,5.71-8.24,11.1-16.74,17.25-24.64,3.46-4.44,2.78-6.68-2-8.54-6.54-3.79-13.82-6.57-18.27-13.25l-.25-2.59a5.09,5.09,0,0,0-4.7-1.31c-6.73,2.72-10.35,9-15.56,13.51-4.87,4.19-8.83,9.68-15.81,10.76-1.21.94-1.77,2-.74,3.44,2.44,4.52,6.3,7.67,10.3,10.69C143.32,209.86,144.91,213.59,147.24,216.51Z"/><path class="cls-9" d="M77.77,150.78c-1.43,4.37-4.72,8.15-4.21,13.14,11.62.88,22.85-2.42,34.32-3.31,6.93-.54,13.48-1,18.45,5,.56,1.9,1.24,3.73,3,4.88,6.06,3.19,10.9.06,14.67-3.89a31.19,31.19,0,0,1,11.41-8c-.53-3-3-2.53-5-2.93-2.31-.45-4.76.27-7-.85C121.92,146.93,100,146.37,77.77,150.78Z"/><path class="cls-10" d="M22,95.51c5.15.46,8.39-.76,9.69-6.82,1.52-7,8-11.76,13.76-11.79,7,0,13.13,5.63,14.76,14.52.63,3.48,2.11,5,5.33,5.25-.36-7-3.53-13.17-5.83-19.6-.66-1.83-3-3.51-.68-5.71-5.32-3.09-2.23-7.11-1.2-10.89,1.13-3.36-1.92-4.84-3.19-7.11a8,8,0,0,1-2.9-6c-.44-1.72-.44-3.64-2.12-4.81-1.68,5.36-2.92,11-7.82,14.6-1.54,8.58-8.34,14.08-12.49,21.13C26.09,83.76,22.1,88.81,22,95.51Z"/><path class="cls-11" d="M168.86,221c-3.51,3.44-7.8,4.3-12.51,3.78,2.78,6.78,8,2,12.08,2.53,4.5-1.49,8.68,1.54,13.12.91a52.45,52.45,0,0,0,18-5.82c6.5-3.56,13.21-5.76,20.71-3.83,1.21.32,2.77.94,3.22-.9.4-1.62-1.06-2.33-2.25-2.73a22.4,22.4,0,0,0-14.79-.06c-5.13,1.82-10,4.3-15.08,6.3C183.85,224.15,176.31,226,168.86,221Z"/><path class="cls-12" d="M143.38,154.9c.19,3.35,2.62,2.57,4.68,2.59,2.46,0,5.12-1,7.21,1.23,2.24,4.24,3.57,8.85,5.37,13.27h4.91C165.29,157.19,156.68,150.55,143.38,154.9Z"/><path class="cls-12" d="M165.8,174.59c-2,.35-3.26,1.51-1,2.76,6.38,3.59,11.26,10,19.32,10.49Z"/><path class="cls-13" d="M190.33,359.34c.31.55.55,1.54.93,1.59,1.17.16.92-1.08,1.29-1.73-.15-7-1.73-14.08.75-21a3.59,3.59,0,0,0-2.49-2.68C187.31,343.38,188,351.34,190.33,359.34Z"/><path class="cls-14" d="M52.08,408c-1.28-10.47,3.84-19.06,8.3-27.79C68.22,364.82,76,349.44,84.24,334.3c5.1-9.37,10.64-18.48,14.31-28.55,1.25-3.41.85-6.56,0-10.17-5.06-20.8-11.66-41.1-18.58-61.32-1.23-1-2.54-.57-3.67,0a105.13,105.13,0,0,1-25.61,9.56c-3.56.88-5.43,2.73-3.7,6.59a9,9,0,0,0,1,1.74c7.85,13.39,15.55,26.87,22.55,40.71,3.59,7.1,3.2,14.31-1.79,21.06-9.33,12.64-16.15,26.47-19.33,42A33.39,33.39,0,0,1,45,366.89c-1.23,11.68-7.13,21.26-13.78,30.51L30,398.46c-1.28,12.32,6.63,27.91,16.62,32.81,3.48.51,6.49,5.1,10.15,2.29s-.59-6.25-.62-9.52c0-5,.14-10.46-4.82-14C50.74,409.61,51.14,408.42,52.08,408Z"/><path class="cls-1" d="M48.21,251c-.3-3-.41-5.35,3.92-6,10-1.45,19-5.95,27.81-10.72,2.88-2.19.68-4.26-.22-6.29-6.14-14-13.11-27.66-15.8-42.92a5.56,5.56,0,0,1-.91,0c-2.14-2.67-3.89-1.17-5.2.74-4.54,6.62-11.47,8.22-18.73,9.2-3.15.42-5.73-.14-6.23-3.93-.4-3.06-2.28-4.48-5.2-5-1.9-.33-4.21-.57-4.37-3.11-.17-2.78,1.87-4.28,4.07-5.4,3-1.55,6.39-1.06,9.63-1.27,3-.19,6.29.29,7.86-3.31-3.21-4.39-7.25-8.29-8.45-13.91-2.43-2.79-5.91-4.11-8.77-6.31-1.45-1.12-3.15-1.61-4.06.83-3.79,6.87-7.68,13.69-11.34,20.64C6,186.08,3.52,198.43,7.6,211.55c.07,6.78,2.77,13,3.86,19.63.83,5,1.13,9.93-.39,14.84,2.62.3,2.64,4.32,5.7,4C27.2,252,37.59,255.46,48.21,251Z"/><path class="cls-15" d="M48.21,251c-10.52,1-20.91-2.2-31.44-.93a165.06,165.06,0,0,1,7.74,41.08,249.61,249.61,0,0,1-.83,39.41c-1.46,13.66,2.09,27,5.31,40.14,2.19,8.91,2.32,17.76,2.27,26.74,9.65-7.84,14.24-18.1,14.55-30.4,1.55-3.4,3-6.92,3.11-10.63.6-22.36,3.25-44.65,2.75-67-.24-10.51-1.56-21-1.33-31.54a16.83,16.83,0,0,0-1.5-6.36A2.26,2.26,0,0,0,48.21,251Z"/><path class="cls-16" d="M47,430.42c-10.7-5.88-12.73-16.75-15.57-27.13-.45-1.63.09-3.53-1.45-4.83a80.14,80.14,0,0,0-6.47,6.43c-4.09,5.06-3.44,8.87,1.16,13.55,5,5.1,9.63,10.59,14.43,15.92,7.85,5.76,16.29,10.26,26,11.9,5.48.93,8.12-.78,5.72-6.68l0-.05c-2.29-1.21-3.81-3.71-6.67-4-1.69-1-3.51-1.91-5.46-1.46C54,435.17,50.39,433.36,47,430.42Z"/><path class="cls-17" d="M23.56,153.62c5.24-.44,7.83,5.33,12.83,5.48C29.76,142,30.7,123.68,27.9,105.72c-7.48,2.75-5,9.36-4.2,13.87,1.59,8.94,2.28,17.55-.54,26.27Q23.35,149.73,23.56,153.62Z"/><path class="cls-18" d="M11.07,246c4.83-2.8,3.06-7.82,2.65-11.35A79.82,79.82,0,0,0,7.6,211.55C5.77,220.9,4.13,230.3.46,239.15c-1,2.47-.33,3.7,1.91,4.4C5.25,244.45,8.17,245.21,11.07,246Z"/><path class="cls-19" d="M173.5,288c-6.64-6.45-14.44-4.19-21.62-2.06-8.74,2.59-16.92,6.77-23.17,13.84-6.32,4.62-10.76,10.84-14.5,17.57-2.23,4-2,8,2.77,9.8,14.84,5.51,29.83,10.62,46.11,8,1.81-1.1,3.57.6,5.37.1a32,32,0,0,0,7-2.44,29.89,29.89,0,0,0,3.29-2c8.95-7.66,10.2-14.79,4.3-24.29a13.48,13.48,0,0,0-4.77-3.14,3.79,3.79,0,0,0-1.83-.11c-6.08,1-10.1,5.06-13.82,9.53a73.68,73.68,0,0,0-10,11.71c2.11-3.74,6-7.77,9.93-11.76,1.1-1.62,4.29-2.62,2.78-5-1.33-2.08-3.9-.45-5.91-.07a19.19,19.19,0,0,1-3.75.76c-2.65,1-5.47,1.47-8.18,2.28-3.67,1.09-6.75,2.77-8,7.17-1-5.13-1.67-5.06-14.29.86,6.69-3.54,6.69-3.54,4.44-6.66,9.88,5.22,17.26-2.87,25.85-3.71a17.6,17.6,0,0,0,6.28-1.47c3.16-1.19.66-2.49-.54-4,6.52,5.26,11.89,1.82,17.29-1.44C181.17,294.82,179.35,290,173.5,288Z"/><path class="cls-20" d="M47,430.42c4,7.36,11,4.89,17.13,5.13-.44-1.21-.87-2.42-1.31-3.62,1.29-2.18-1.87-2.53-1.7-4.42,2.22-1.77,6.45-1.11,7.1-5.19-5.35-4.84-12.48-7.68-16.18-14.37-3.48-1.08-2.76,2-1.89,2.66,5.67,4.17,3,10.63,4.8,15.81,2.47,7.21.92,8.6-5.38,4C49,430,47.91,430.41,47,430.42Z"/><path class="cls-21" d="M68.26,422.32a44.71,44.71,0,0,1-4.38,2.53c-2,.87-5.3-1.14-6,2.09-.72,3.46,3.71,2.86,5,5,4.16,0,8.33.07,12.48-.2,2.32-.15,5.45-.32,5.6-3.36.14-2.84-2.29-4.87-4.86-5.56S70.87,422.44,68.26,422.32Z"/><path class="cls-22" d="M128.62,169.2a3.3,3.3,0,0,0-2.3-3.54c-13.31,11.42-12.27,25.41,2.42,32.74a3.33,3.33,0,0,1,1.68-2.86c.22-1.77-1-2.69-2.09-3.78-6.93-7.19-7.19-9.79-1.91-18C127.35,172.35,128.65,171.09,128.62,169.2Z"/><path class="cls-23" d="M168.18,334.07c-1.73.2-3.67-.47-5.09,1.14,2.83.31,2.6,2.48,2.58,4.39,0,6.54-.18,13.08-.28,19.62.41.9.07,2.93,2.1,1.39A36.52,36.52,0,0,0,168.18,334.07Z"/><path class="cls-24" d="M70.87,439.58c4.59,0,9.18,0,13.77-.07A2.2,2.2,0,0,0,87,437.69c.06-.46-.72-1.5-1-1.46-4.89.74-10-.62-14.71,1.46-.35.15-.31,1.21-.44,1.84Z"/><path class="cls-25" d="M147.24,216.51c.09-5.6-2.72-8-8.2-7.42.36,2.14,4.35,2.26,3,5.36A5.65,5.65,0,0,0,147.24,216.51Z"/><path class="cls-26" d="M53.56,53.28c0,3.23,3.5,4.39,4.23,7.19a1.72,1.72,0,0,1,.63.17c9.84,7.43,10.31,7.31,16.11-3.82.9-1.74,1.51-4.22,3-5,3.68-1.88,3.64-4.07,2.09-7.28-1.17-2.43.15-4.69,1.36-6.79a21.54,21.54,0,0,0,2.71-14.57c-6.49,7.75-17.26,5.45-23.94,12-.13.13-.44.27-.56.21-8.79-5-7.93,2.77-9.58,7.22.48,1.79-.49,3.9,1.19,5.42C55.41,47.81,51.84,52,53.56,53.28Z"/><path class="cls-27" d="M160.52,271c-11.1-3.27-22.36-5.74-34-6.33a29,29,0,0,0-10.21,1,146.53,146.53,0,0,1,51.89,10.6c-1.85-3.09-2.78-5.45-5.14-6.82C162,269.56,161.36,270.44,160.52,271Z"/><path class="cls-28" d="M160.52,271c1.93,1.33,1.92-.67,2.59-1.51q-3.9-14.49-7.81-29a16.14,16.14,0,0,0-4.35-7.83c2.77,9.63,5.29,18.11,7.57,26.65.37,1.41,2.83,4.89-2.08,3.76a2.09,2.09,0,0,0-1.23,1.19Z"/><path class="cls-29" d="M140.73,249.68c-3.37-5-8.32-8.17-14.19-12.44,3,5.5-.32,5-2.63,4.35-5.38-1.62-10.75-.83-16.19-.69,11,2.88,23.35.71,32.88,8.93Z"/><path class="cls-30" d="M117.61,218c3.08,5.66,2.86,12.46,5.7,18.23C123.75,229.43,122.29,223.23,117.61,218Z"/><path class="cls-31" d="M155.21,264.24l1.23-1.19c-5.71-3.91-9-10.67-15.71-13.37l-.13.14A103.71,103.71,0,0,0,155.21,264.24Z"/><path class="cls-32" d="M44.84,173c-3.81,2.49-8.09,1.51-12.18,1.54-3.2,0-6.08.59-8.57,2.66-2.29,1.92-4.17,4.12-3.18,7.34.86,2.79,3.41,3.28,5.86,3.19,3.48-.14,4.84,1.39,4.47,4.71-.46,4,1.87,5,5.21,4.56,9-1.19,18.52-1.31,23.1-11.47.77-1.69,2.25-.72,3.46-.47.43-4.44.14-7.68-6.07-6.93C52.37,178.7,48.44,175.78,44.84,173Z"/><path class="cls-33" d="M190.37,319.85c.19,3,.39,6,.59,9,2.38-5.84,9.4-8.17,18.85-6.17,7.06,1.49,14.13,2.85,20.76,5.94,1.52.71,3.36,2.09,6.09.61-10.09-5.42-20.38-7.63-32.12-8.61,5.37-4.21,12.22-3.36,16.56-7.58h0c-6.37,1.95-13.63.16-19.22,6C199.28,321.7,194.51,324,190.37,319.85Z"/><path class="cls-34" d="M239.54,307.76l21.4-3.38c-5.6-2.13-10.77.06-16.43.6.2-3.39,4.23-4.16,4.73-7.77-4.9,2.51-7.14,6.68-9.68,10.58Z"/><path class="cls-34" d="M221.1,313.05c9.57-2.68,18.87-1.34,28,3.21.11-.67.21-1.34.32-2l-12.78-4.16,2.93-2.32,0,0c-6.44.74-13,1-18.47,5.25Z"/><path class="cls-35" d="M174.91,331.58c-.33,5.36-.78,10.71-.93,16.07-.06,2.18-1.45,4.72,1.08,6.53.33-1,.67-2,1-3q.68-10.47,1.37-20.93C176.6,330.69,175.76,331.14,174.91,331.58Z"/><path class="cls-36" d="M189.3,276.06c1.52-1.79,2.4-1.49,2.82.79.23,1.23.67,2.43,1,3.64.08-8.29,6.66-9.4,12.47-10.86,7.27-1.81,14.63-3.42,22.22-3.68-8.67-1.79-17,.08-25.33,2.38-1-2.92,6.11-4.26.58-8.24-1.42-1,1.9-8.63,2.45-13.41-2.9,5.3-4.24,11.11-5.66,16.94-1.48,6.09-5,10.07-11.8,9.91l-.41,2.51A1.16,1.16,0,0,0,189.3,276.06Z"/><path class="cls-37" d="M222.61,248.45c6.16-2.41,6.11-6.44,3.18-12.94-.32,12.3-10.82,15.27-15.59,23.27,6.06-7.58,14.93-6.93,24.89-8.32C230.12,248.45,226.35,251.13,222.61,248.45Z"/><path class="cls-38" d="M53.56,53.28A19.91,19.91,0,0,0,55,49.11c.17-1.39.68-3.51-.83-4.07-2.22-.82-2.15,2-3.37,3C49.94,50.71,50.24,52.8,53.56,53.28Z"/><path class="cls-39" d="M155.17,307.79c-2.12.49-4.27.88-6.36,1.48-4,1.16-7.84,3-11.89,3.52-3.72.5-7.31-2.32-11.44-1.88.62,3.55,4.09,1,5.44,3.51-3.15,2.75-8,3.21-12.28,7.74,8.09-1.83,13.41-6.69,20.89-6.78l-4.06,5.43c5.82-5.28,11.8-10.07,19.71-11.69.46-.3.61-.59.46-.89S155.33,307.79,155.17,307.79Z"/><path class="cls-37" d="M155.17,307.79c0,.45,0,.89,0,1.33,3.26.78,6.18-2.06,9.54-1,0,2.38-2.52,3-3,4.9.46.6.93.58,1.42,0,4.45-3.78,8.71-7.84,14.61-9.36,0-.84,0-1.67,0-2.5-5.4,3.25-11,4.66-17.34.28C163.05,308.87,157.2,306.26,155.17,307.79Z"/><path class="cls-40" d="M189.3,276.06l-1.65,0c-3.26,7.54-4.74,15.61-7,23.45-.47,1.62.34,4.28-2.79,4.19.59,1.76,2.48,1.82,3.67,2.77Q185.41,291.26,189.3,276.06Z"/><path class="cls-39" d="M163.1,313.05l-1.42,0a27.29,27.29,0,0,0-10.76,15.05Z"/><path class="cls-41" d="M70.49,37c.84,3.21,2.17,5.94,7.1,5.19C75.19,39.63,72.27,39,70.49,37Z"/></svg>