<svg id="Camada_1" data-name="Camada 1" xmlns="http://www.w3.org/2000/svg" viewBox="0 0 456.91 67.11"><defs><style>.cls-1{fill:#fff;stroke:#e5e5e5;stroke-miterlimit:10;}.cls-2{fill:#050505;}</style></defs><rect class="cls-1" x="0.5" y="0.5" width="455.91" height="66.11" rx="33.04"/><path d="M105.64,33.25v0a8.93,8.93,0,0,1,9.08-9.13,9.25,9.25,0,0,1,6.94,2.75l-2,2.3a7.07,7.07,0,0,0-5-2.17,5.91,5.91,0,0,0-5.8,6.2v.05a6,6,0,0,0,5.82,6.26,6.93,6.93,0,0,0,5.07-2.27l2,2a9,9,0,0,1-7.17,3.13A8.89,8.89,0,0,1,105.64,33.25Z"/><path d="M123.73,35.45V35.4a7,7,0,0,1,7.11-7,6.88,6.88,0,0,1,7.09,6.91v0a7,7,0,0,1-7.14,6.94A6.89,6.89,0,0,1,123.73,35.45Zm11.14,0V35.4a4.11,4.11,0,0,0-4.08-4.29,4,4,0,0,0-4,4.24v0a4.12,4.12,0,0,0,4.06,4.26A4,4,0,0,0,134.87,35.45Z"/><path d="M141,28.71h3.08v2.05a4.8,4.8,0,0,1,4.16-2.32c3,0,4.74,2,4.74,5.09V42h-3V34.47c0-2.1-1-3.26-2.85-3.26s-3,1.21-3,3.31V42H141Z"/><path d="M157.29,38.35v-7H155.6V28.71h1.69V25.06h3.05v3.65h3.58v2.63h-3.58v6.53A1.46,1.46,0,0,0,162,39.54a4.18,4.18,0,0,0,1.89-.46v2.5a5.25,5.25,0,0,1-2.75.68C158.88,42.26,157.29,41.28,157.29,38.35Z"/><path d="M167.08,23.77h3.27v2.9h-3.27Zm.1,4.94h3.07V42h-3.07Z"/><path d="M174.21,28.71h3.08v2.05a4.82,4.82,0,0,1,4.16-2.32c3,0,4.74,2,4.74,5.09V42h-3.05V34.47c0-2.1-1-3.26-2.85-3.26s-3,1.21-3,3.31V42h-3.08Z"/><path d="M189.72,37.19V28.71h3.05v7.57c0,2.1,1,3.23,2.85,3.23s3-1.19,3-3.28V28.71h3.08V42h-3.08V40a4.8,4.8,0,0,1-4.16,2.35C191.43,42.31,189.72,40.32,189.72,37.19Z"/><path d="M204.77,35.42v-.05c0-3.83,2.7-6.93,6.51-6.93,4.24,0,6.38,3.33,6.38,7.16a8.59,8.59,0,0,1,0,.86h-9.78a3.68,3.68,0,0,0,3.83,3.38,4.87,4.87,0,0,0,3.61-1.59l1.79,1.59a6.79,6.79,0,0,1-5.45,2.5A6.67,6.67,0,0,1,204.77,35.42Zm9.87-1c-.21-1.94-1.37-3.51-3.38-3.51s-3.18,1.42-3.46,3.51Z"/><path d="M227.17,28.71h3.15L233,37.85l2.95-9.19h2.63l3,9.19,2.72-9.14h3.08L243,42.13h-2.75l-3-9.1-3,9.1H231.5Z"/><path d="M250.06,23.77h3.28v2.9h-3.28Zm.11,4.94h3.07V42h-3.07Z"/><path d="M257.86,38.35v-7h-1.69V28.71h1.69V25.06h3.05v3.65h3.58v2.63h-3.58v6.53a1.45,1.45,0,0,0,1.64,1.67,4.25,4.25,0,0,0,1.89-.46v2.5a5.25,5.25,0,0,1-2.75.68C259.45,42.26,257.86,41.28,257.86,38.35Z"/><path d="M267.57,23.62h3.07v7.14a4.83,4.83,0,0,1,4.16-2.32c3,0,4.75,2,4.75,5.09V42h-3.06V34.47c0-2.1-1-3.26-2.85-3.26s-3,1.21-3,3.31V42h-3.07Z"/><path d="M297.4,24.25h2.87L308,42h-3.28L303,37.77h-8.35L292.81,42h-3.18ZM301.84,35l-3-7.06-3,7.06Z"/><path d="M310.69,28.71h3.07v2.22a5.32,5.32,0,0,1,4.54-2.49c3.13,0,6.18,2.47,6.18,6.91v0c0,4.44-3,6.91-6.18,6.91A5.44,5.44,0,0,1,313.76,40v6.11h-3.07Zm10.69,6.69v0a4,4,0,0,0-3.81-4.26,4,4,0,0,0-3.88,4.26v0a4,4,0,0,0,3.88,4.26C319.67,39.66,321.38,38,321.38,35.4Z"/><path d="M327.78,23.62h3.08V42h-3.08Z"/><path d="M335,23.62h3.07V42H335Z"/><path d="M341.33,35.42v-.05c0-3.83,2.69-6.93,6.5-6.93,4.24,0,6.38,3.33,6.38,7.16a8.59,8.59,0,0,1,0,.86h-9.78a3.69,3.69,0,0,0,3.83,3.38,4.87,4.87,0,0,0,3.61-1.59l1.79,1.59a6.79,6.79,0,0,1-5.45,2.5A6.66,6.66,0,0,1,341.33,35.42Zm9.86-1c-.2-1.94-1.36-3.51-3.38-3.51s-3.18,1.42-3.46,3.51Z"/><path d="M28.36,30.68c0-4.95,1.56-9.18,5.87-12,2.69-1.78,5.72-2.5,8.69-1.16,3.33,1.5,6.29,1.16,9.62-.08a10.47,10.47,0,0,1,11.28,2.44c1,.91,1.22,1.43.06,2.58C58.31,28,58.78,34.27,65.1,38.93c1.14.84,1,1.45.62,2.46A27,27,0,0,1,60.09,50a5.94,5.94,0,0,1-7.26,1.3,10.59,10.59,0,0,0-9.38.05c-3,1.41-5.43.53-7.6-1.85A28.76,28.76,0,0,1,28.36,30.68Z"/><path class="cls-2" d="M47.27,14.56c.13-3.67,4.12-8.06,7.79-8.78,1.32-.25,1.55.12,1.57,1.31.06,3.83-3.89,8.51-7.7,9.11C47.49,16.43,47.06,15.88,47.27,14.56Z"/></svg>