<svg id="Camada_1" data-name="Camada 1" xmlns="http://www.w3.org/2000/svg" viewBox="0 0 456.91 67.11"><defs><style>.cls-1{fill:#fff;stroke:#e5e5e5;stroke-miterlimit:10;}.cls-2{fill:#e74435;}.cls-3{fill:#36a752;}.cls-4{fill:#4185f4;}.cls-5{fill:#f7bb0b;}</style></defs><rect class="cls-1" x="0.5" y="0.5" width="455.91" height="66.11" rx="33.04"/><path d="M104.18,35.09V35a8.93,8.93,0,0,1,9.08-9.13,9.22,9.22,0,0,1,6.93,2.75l-2,2.3a7,7,0,0,0-5-2.17,5.91,5.91,0,0,0-5.8,6.2v0a6,6,0,0,0,5.83,6.26A7,7,0,0,0,118.33,39l2,2a9.22,9.22,0,0,1-16.14-5.95Z"/><path d="M122.26,37.29v0a7,7,0,0,1,7.11-7,6.89,6.89,0,0,1,7.09,6.92v.05a7,7,0,0,1-7.14,6.93A6.88,6.88,0,0,1,122.26,37.29Zm11.15,0v0A4.12,4.12,0,0,0,129.32,33a4,4,0,0,0-4,4.24v.05a4.12,4.12,0,0,0,4.06,4.26A4,4,0,0,0,133.41,37.29Z"/><path d="M139.53,30.55h3.08V32.6a4.82,4.82,0,0,1,4.16-2.33c3,0,4.74,2,4.74,5.1v8.5h-3V36.3c0-2.09-1-3.25-2.85-3.25s-3,1.21-3,3.3v7.52h-3.08Z"/><path d="M155.82,40.19v-7h-1.69V30.55h1.69V26.89h3.06v3.66h3.58v2.63h-3.58v6.53a1.45,1.45,0,0,0,1.64,1.66,4.23,4.23,0,0,0,1.89-.45v2.5a5.4,5.4,0,0,1-2.75.68C157.41,44.1,155.82,43.11,155.82,40.19Z"/><path d="M165.61,25.61h3.28v2.9h-3.28Zm.1,4.94h3.08V43.87h-3.08Z"/><path d="M172.74,30.55h3.08V32.6A4.82,4.82,0,0,1,180,30.27c3,0,4.74,2,4.74,5.1v8.5h-3.05V36.3c0-2.09-1-3.25-2.85-3.25s-3,1.21-3,3.3v7.52h-3.08Z"/><path d="M188.25,39V30.55h3.05v7.57c0,2.09,1,3.23,2.86,3.23s3-1.19,3-3.28V30.55h3.07V43.87h-3.07V41.8A4.81,4.81,0,0,1,193,44.15C190,44.15,188.25,42.15,188.25,39Z"/><path d="M203.31,37.26v0c0-3.83,2.7-6.94,6.51-6.94,4.23,0,6.38,3.33,6.38,7.17,0,.28,0,.55,0,.86h-9.79a3.69,3.69,0,0,0,3.83,3.38,4.84,4.84,0,0,0,3.61-1.59l1.79,1.59a6.78,6.78,0,0,1-5.45,2.49A6.66,6.66,0,0,1,203.31,37.26Zm9.86-1c-.2-1.94-1.36-3.51-3.38-3.51s-3.18,1.41-3.46,3.51Z"/><path d="M225.7,30.55h3.15l2.68,9.13,2.95-9.18h2.62l3,9.18,2.73-9.13h3.07L241.49,44h-2.75l-3-9.11-3,9.11H230Z"/><path d="M248.6,25.61h3.28v2.9H248.6Zm.1,4.94h3.08V43.87H248.7Z"/><path d="M256.39,40.19v-7H254.7V30.55h1.69V26.89h3.05v3.66H263v2.63h-3.58v6.53a1.45,1.45,0,0,0,1.64,1.66,4.17,4.17,0,0,0,1.89-.45v2.5a5.35,5.35,0,0,1-2.75.68C258,44.1,256.39,43.11,256.39,40.19Z"/><path d="M266.1,25.46h3.08V32.6a4.81,4.81,0,0,1,4.16-2.33c3,0,4.74,2,4.74,5.1v8.5H275V36.3c0-2.09-1-3.25-2.85-3.25s-3,1.21-3,3.3v7.52H266.1Z"/><path d="M288.89,35.09V35A9,9,0,0,1,298,25.91a9.6,9.6,0,0,1,6.79,2.4l-2,2.34a7,7,0,0,0-4.95-1.86,6,6,0,0,0-5.72,6.2v0c0,3.63,2.39,6.31,6,6.31A7.11,7.11,0,0,0,302.41,40V36.73H297.9V34h7.52v7.41a11.32,11.32,0,0,1-7.37,2.75A8.76,8.76,0,0,1,288.89,35.09Z"/><path d="M308.36,37.29v0a7,7,0,0,1,7.11-7,6.89,6.89,0,0,1,7.09,6.92v.05a7,7,0,0,1-7.14,6.93A6.88,6.88,0,0,1,308.36,37.29Zm11.15,0v0A4.12,4.12,0,0,0,315.42,33a4,4,0,0,0-4,4.24v.05a4.12,4.12,0,0,0,4.06,4.26A4,4,0,0,0,319.51,37.29Z"/><path d="M324.93,37.29v0a7,7,0,0,1,7.11-7,6.89,6.89,0,0,1,7.09,6.92v.05A7,7,0,0,1,332,44.17,6.88,6.88,0,0,1,324.93,37.29Zm11.15,0v0A4.12,4.12,0,0,0,332,33a4,4,0,0,0-4,4.24v.05A4.12,4.12,0,0,0,332,41.5,4,4,0,0,0,336.08,37.29Z"/><path d="M342.2,46.37l1.14-2.3a8.72,8.72,0,0,0,4.74,1.39c2.72,0,4.21-1.36,4.21-4.06v-1a5.62,5.62,0,0,1-4.69,2.42,6,6,0,0,1-6.05-6.23v0a6,6,0,0,1,6.05-6.26,5.77,5.77,0,0,1,4.67,2.27v-2h3.05v10.6a6.75,6.75,0,0,1-1.69,5c-1.21,1.22-3.05,1.8-5.47,1.8A11.26,11.26,0,0,1,342.2,46.37Zm10.12-9.81V36.5a3.72,3.72,0,0,0-3.91-3.63,3.58,3.58,0,0,0-3.78,3.63v.06a3.63,3.63,0,0,0,3.78,3.65A3.72,3.72,0,0,0,352.32,36.56Z"/><path d="M359.3,25.46h3.08V43.87H359.3Z"/><path d="M365.63,37.26v0c0-3.83,2.7-6.94,6.51-6.94,4.24,0,6.38,3.33,6.38,7.17,0,.28,0,.55,0,.86h-9.79a3.69,3.69,0,0,0,3.84,3.38,4.84,4.84,0,0,0,3.6-1.59l1.79,1.59a6.76,6.76,0,0,1-5.44,2.49A6.66,6.66,0,0,1,365.63,37.26Zm9.86-1c-.2-1.94-1.36-3.51-3.38-3.51s-3.18,1.41-3.45,3.51Z"/><path class="cls-2" d="M28.46,20.31C34.11,8.08,50.47,5,60.48,13c.4.31,1.1.78.78,1.14-1.6,1.8-3.29,3.52-5,5.2-1.15,1.13-2.07-.08-3-.52a12.76,12.76,0,0,0-16.72,4.8c-.47.76-1,1.51-1.47,2.26C32.4,24.56,29.49,23.56,28.46,20.31Z"/><path class="cls-3" d="M34.94,34.33c1.33.65,1.26,2.21,2.11,3.23,4.72,5.68,9.67,6.67,18.34,3.41,1.94,1.9,4.78,2.69,6.31,5.1-9.86,9.83-28.52,6.23-33.32-6.43A11.75,11.75,0,0,1,34.94,34.33Z"/><path class="cls-4" d="M61.7,46.07c-2.35-1.4-5-2.39-6.31-5.1,1.21-1.81,4-3.56,3.06-5.51s-4-.42-6.15-.72a11.6,11.6,0,0,0-2.43,0c-1.63.1-2.29-.5-2.34-2.26-.2-6.13-.27-6.14,5.91-6.16,4,0,7.9.09,11.85,0,1.76-.05,2.69.44,2.74,2.26C68.2,35.19,67,41.36,61.7,46.07Z"/><path class="cls-5" d="M34.94,34.33l-6.56,5.31c-3.39-6.46-3.13-12.9.08-19.33,1.76,2.37,4.66,3.39,6.63,5.53A38.88,38.88,0,0,0,34.94,34.33Z"/></svg>