<svg id="Camada_1" data-name="Camada 1" xmlns="http://www.w3.org/2000/svg" viewBox="0 0 347.62 137.22"><defs><style>.cls-1{fill:#0f1924;}.cls-2{fill:#3a9842;}</style></defs><path class="cls-1" d="M0,28.46l.1-3.23V23.45l.32-1V22L.21,20.54l.21-1.67L.21,17.1,0,15.53l.42-1.35v-.52l-.21-.84L0,11.15.42,7.4,1,3.75l.52-1.46L3,1.25,6.25.73H9.49l3.12.21L14,.83h1.56L17.1.94h.41l1-.21L20,.83,21.37,1l.21.11h1.67a.34.34,0,0,0,.2-.11L24.71.73l1.66.21,1.46.1c.11,0,.32.11.42,0l1-.41h1.88L32.52,1h.32L35.55.83,36.9.94h3.23l2.09.1L44.1,2.29,45,3.44l.21,3.65-.62,1.15-2.4,1.25L39,9.8,35.86,10,34.3,9.8l-1.57-.11h-.21L31,9.9l-1.25-.1-1.46.1-1.56-.31a.7.7,0,0,0-.63,0L25,9.9l-1-.21h-.42L21.79,10,20.64,9.8l-.21-.11H19.18l-1.56.21H13.24l-2,.32a1.18,1.18,0,0,0-.63.31l-.52.52a1.21,1.21,0,0,0-.31.63l-.63,2.6c0,.21-.1.31,0,.63l.32.94-.11,1.66v.21l.32,2.5a1.08,1.08,0,0,0,.2.52l.42.63a1.26,1.26,0,0,0,.94.52l2.81.21,3.55.42h.31l1.46-.21h1.46l1.88-.11L24,22.1l1.66.21,3.65.1,3.34.73,1.15.94.62,1.46.31,2.92-1.14.94-1.36,1.14-2.92.84H26l-1.57-.11L23,31.48l-3-.1-1.78-.11-1.46.21-3,.11L11,32.11A1.42,1.42,0,0,0,9.8,33.36l-.31,2.4-.21,3.33-.21,1.57L9,42.32v.42l.41,1.56-.41,3-.21,2.19L6.88,51.91l-2.5.73-1.46-.52-2-2.4L.31,46.39l.11-3.65V41.39L.21,39.51.1,38.26l.32-1.67v-.42L.1,34.61V33.36l.11-2V29.81Z"/><path class="cls-2" d="M53.68,28.15V25.23L53.89,24v-.21l-.1-1.67.1-1.46-.1-1.46.31-1.35c0-.21.1-.42,0-.63l-.42-.94L54,14.91l.11-.21V13L54,12.82l-.2-.94L54,8.44V5.32l.84-2.19,1-1.25L56.7.94l2.82.1,1.36.52,1.25,1,.41,3.54L63,9.38l-.31,1.67v.31l.21,1.36-.11,1.35v.42L63,16.05l-.1,1.25v1.78l.2,1.35L63,21.89v.21l.1,2.92-.2,1.46v.31l.2,1.36-.31,1v.42l.11,1.25-.11,1.35v.31l.31,1.36v4.9l.21,2.4a1.32,1.32,0,0,0,.42.73l.63.73a1.4,1.4,0,0,0,.83.31l2.5.31,3.34-.1,1.77.31h.31l1.36-.21h1.14l1.36.21h.42l1.25-.21,1.66.31h.42l.84-.1h1.66l1.36.1h1.67l1.35-.31,5.21.11,2.82.2L98,45l1.14,1.46.11,2.71-.94,1.57L95.59,52l-2.92.21h-4.8l-1.46.21-1.77.1-1.14-.31H83l-1.66.41H80.06l-1.36-.41h-.62l-1.15.41H75.37l-1.88-.31h-.31L72,52.54l-1.77-.31H68.8L67,52.54l-1.26-.31h-.41l-1,.21H60.77L58.58,52l-2.19-.52-1-1.25-1-1-.11-3.44-.1-3.54V40.55l-.31-1.67-.11-1.56L53.89,36l.21-1.25V34.4l-.21-1.46V31.48l.1-1.77V29.4Z"/><path class="cls-1" d="M154.48,24.81v2.92L154.07,29c0,.1-.11.21-.11.42v1.66l-.31,1.36L153.23,34l-.73,1.67-.31,1.46-.73,1.15-.94,1.46L149.69,41l-.83,1.35-.73,1-1,1.35-1,.94-1.36,1.15-1.25,1-2.91,1.56-1.15.42c-.11,0-.21.1-.31.1l-.94.63-1.57.62-1.87.63-1.15-.1h-.31l-1.25.2-.11.11-1.56.52-4.9-.42h-.21l-1.14.11-1.67-.52-1.67-.63-1.46-.31-1.56-.63-1.26-.52-1.35-.94-1.25-.62-1.15-.94-1.56-1.36L110,44.83l-1-.94-.73-1.36-.94-1.46-.94-1.25-.73-1-.94-1.36L104.34,36c0-.1-.1-.2-.1-.31l-.73-1.25L103,32.63l-.21-1.46-.42-1.56V28.35l-.1-3.44.21-1.35.52-1.77V20.54L103.4,19l.84-1.87.31-1.36.63-1.56,1-.94c.21-.21.21-.31.21-.42l.52-1.25,1-.94c.11-.1.31-.21.31-.31l.42-.83L109.87,8,111,7.09l1.36-1.15,1.25-1,1-.42a.41.41,0,0,1,.32-.1l1.25-.94L118,2.61l1-.21a.37.37,0,0,0,.31-.11l1.25-.62,1.46-.42,1.46-.31,1.67-.21h.21l1.36-.31,3.12.31h.31l1.46-.31,1.26.62a.58.58,0,0,0,.41.11l1.36.1,1.56.21,1.46.73,1,.62a.33.33,0,0,0,.21.11l1.57.52,1.35.83,1,.73a.31.31,0,0,1,.21.11l1.46.73,1.15,1,.83,1.36.94,1,.21.21,1.25,1,.52,1c0,.11.1.21.21.31l.94.84.41,1.46c0,.21.11.21.21.41l.94,1.15.21,1c0,.21.1.21.1.32l.84,1.77.21,1,.2,1.77.42,1.67ZM129.88,9.38,127,9.69l-1.87.11-.94.1a.37.37,0,0,0-.31.11l-1.67.73-.84.31c-.2.1-.31.1-.41.21l-1.15,1-1.36.31-.62.42L117,14l-1.15.94c-.11.1-.21,0-.21.1l-.83,1c0,.11-.11.11-.11.21L114,17.62l-.84,1.25c0,.1-.21.1-.21.31l-.41,1.15L112.27,22l-.63,1c-.1.1-.1.41-.1.52v1.15L111.43,28c0,.21.11.31.11.42l.31,1.15.52,1.25.31,1.87.31.94c0,.11.11.11.11.21l.73,1.25a.39.39,0,0,0,.1.21l1,1,.52,1.25.31.42,1,.83.94,1,.31.2,1.36.73,1,.73,1.46.73a.6.6,0,0,0,.42.11h1.14l1,.62c.1.11.31.11.52.11l4.69.1,3-.21c.11,0,.21-.1.31-.1l1.25-.42,1.36-.62.31-.21,1.15-.94.94-.73,1.25-1,1.15-.73.41-.42.63-.83.83-1.57.94-.93c.1-.11.21-.11.21-.21l.62-1.36.52-1.15c.11-.1.11-.41.11-.52V29.92l.21-1.77V25.23l-.11-1.67-.21-1.36V22l-.62-1.67-.52-1.15L143,17.72c-.11-.1-.11-.21-.32-.42l-.73-.73-.83-1.25L140.2,14c0-.11-.21-.21-.31-.21l-1-.83a.31.31,0,0,1-.21-.11l-1.15-.52-1-.94c-.1-.1-.21-.1-.42-.21l-1.25-.31-1.56-.73a.66.66,0,0,0-.42-.1l-1.25-.11-1.15-.41C130.3,9.38,130,9.38,129.88,9.38Z"/><path class="cls-2" d="M209.83,35.44a1.3,1.3,0,0,0,1-.52l1.25-1.56L214,30.65a1,1,0,0,0,.11-.31l.52-1.26.83-1.77,1.78-3,1.35-2.71.83-1.36a.34.34,0,0,1,.11-.2l.52-1.36,1.67-2.61c0-.1.1-.1.1-.2l.52-1.57.52-.83a.34.34,0,0,1,.11-.21l.73-1.56.73-1.46.83-.94c.11-.11.32-.32.32-.52l.31-1.36,1.46-2.71,1.35-2.08,2.5-1.15,1.57-.31,2.6,1.46,1,1.25-.32,3-.83,2.4-.83,1.25-1.88,4.06-.73,1.57-.94,1.56L230.16,19,229.43,20l-.1.2-.52,1.36-.52,1.15-.94,1.35-.84,1.56c0,.11-.1.21-.1.32l-.31,1.25-.63.83c-.1.11-.21.21-.21.31l-.52,1.57-1,1.25a.38.38,0,0,1-.11.21L223,32.63l-.42.94L221,36.69l-.73,1.36-.84,1.35-2.18,3.65a.34.34,0,0,1-.11.21l-.52,1.57-.73.83a.35.35,0,0,0-.1.21l-.73,1.67-1.25,2-1.57,2-.94.73-1.87.1-1.46.11-1.15-.94-1.46-2-1.56-2.4-.52-1.57c0-.2-.11-.31-.21-.52l-.73-.73-.63-1.56-.31-1.25c0-.1-.1-.21-.1-.31l-.84-1.46L200,38.36s-.21-.1-.21-.21l-1.46-2.39a.34.34,0,0,0-.11-.21l-.94-.94a1.71,1.71,0,0,0-2.08-.1l-.83.62c-.11.1-.21.1-.32.31L193,37.53,192.22,39l-.94,1c0,.1-.11.21-.11.31l-.62,1.46-.42,1.25-1.56,2.61-1.36,2.71-1.66,2.08-2.09,1.88-1.56.21-1.05-.21-2.39-2-1.67-2.5-.42-1.57a.35.35,0,0,1-.1-.2l-1.36-2.71c0-.11-.21-.21-.21-.21l-.83-.94-.73-1.67L172.51,39l-.41-1.15a1,1,0,0,1-.11-.31l-.93-1.36-.63-1.46-.31-1.25c0-.21-.21-.21-.21-.31l-.84-1.46-.41-1.15c0-.1-.11-.2-.21-.31l-.73-.94-.52-1.56L166.47,26l-.73-1.46-.52-1.36-.63-1.35-.73-1.57-.94-1.46-.52-1.14-.62-1.46-.42-1.57a1,1,0,0,1-.1-.31l-1.36-2.5-.73-1.46-1.35-3.23v-3l.62-1.15,2.92-1.57,2-.1,2,2.29,1.88,2.82,1,2.92a.35.35,0,0,1,.1.21l.63.93.63,1.46a.78.78,0,0,0,.2.42l.84.83.52,1.67,1.25,2.5.42,1.36c0,.21.21.21.21.31l.93,1.36.52,1.56L175,23l.73,1.46a.39.39,0,0,0,.1.21l.73.83.62,1.67.32,1.25c0,.1.1.1.1.21l.63,1.25,1,2.5a.35.35,0,0,1,.1.21l.63,1c0,.11.1.21.21.31L181.48,35a1.42,1.42,0,0,0,1.56.1l.73-.31c.11-.11.32-.11.42-.21l.42-.52c0-.11.21-.21.21-.31L186,31.59l.52-1.57,1.57-2.71.62-1.46L190,24a1.47,1.47,0,0,0,.31-.53l.42-2.5v-.52L190,17.3c0-.2-.11-.2-.11-.31l-1.87-3.13-.63-1.35-.52-1.67a.35.35,0,0,1-.1-.21l-1.57-3-.1-3.13.73-1.25.73-.94,3.12-.94,1,.21,2.5,2.61L195,6.46c0,.11.11.32.21.32l.94.62a1.42,1.42,0,0,0,1.87-.1l.53-.52s.2-.11.2-.21l1.57-2.4,2.29-2.29L204.31,1l1,.31,2.71,1.46L208.37,4l.53,1.25-.73,2.92-1.46,3.44L206,12.82l-1,1.46-1.46,2.92v.1l-.93,2.82v.21l-.11,1.14c0,.21.11.21.11.42l.83,2.82.42,1.25a.35.35,0,0,1,.1.21l.84,1.14.52,1.25.62,1.46.94,1.57.52,1.25.94,1.56c.1.21.21.21.31.31l.52.42A2.39,2.39,0,0,0,209.83,35.44Z"/><path class="cls-1" d="M245.69,27.83l.2-3-.2-1.46.31-3.44-.11-1.46-.31-1.67.11-1.66v-.21l-.21-1.46.21-1.36.2-2L245.69,7l.83-3.85.83-1,1.46-.83,3.13-1L255.38.1l1.25.21h.21l1.67-.1,1,.21h5.11L266.12,0l1.77.1h1.35l1.67.21,1.46-.1,1.25.1h.21L275.4.1h1.66l1.67.11,1.46.21h.31l2.4-.21,1.67.21h2.5L290,2.19l.94,1.46-.52,2.81-.84,1.25-2.19,1.57h-3.65l-2.81.31-1.46-.31H279l-1.35.21L276,9.17h-.31l-1.56.21L273,9.49l-1.77-.32h-.32l-1.14.11H268l-1.56.31-1.56-.31h-.52l-1.26.21-3.64.2-2.82.42c-.21,0-.42.21-.62.31l-.42.32a1,1,0,0,0-.42.73l-.42,2.29-.2,1.88V16l.2,1.35v.21l.94,2.71a1.57,1.57,0,0,0,1.05.94l2.18.52.21.11h3.24l1.14.21H264l1.36-.42,1.87.21h1.57l1.56-.21,3.13.52,2.5.1,2.71.73.94,1.67.21,3.13-.73.94-.94.94-2.4,1.14-6,.21-1.57-.1h-1.56l-1.67.2-1-.31a.7.7,0,0,0-.63,0l-1.25.31-5.42.21a1.12,1.12,0,0,0-.62.21l-.42.31a1.26,1.26,0,0,0-.52.94l-.32,2.82v.21l.11,1.56v1.56l.73,2.61c.1.52.52.73.94.94l2.29.83a.6.6,0,0,0,.42.11l3.54.1,1.67.1h.21l1.46-.2,1.25.1h1.87l1.46-.21,1.26.31h.52l1.46-.31h1.35l1.67-.1,1.67.31h.21l2.91-.21,3,.21h1.46l3,1,.83.94,1.15,3.23L289,51.29l-3,.83h-5l-1.77.32-1.57-.21h-1.35l-1.46.21L273,52.12h-1.25c-.11,0-.21.11-.32.11l-1,.31-1.46-.31h-.42l-1.56.41-1.56-.31-.11-.1h-1.35l-.21.1-1.35.31-1.15-.2H261l-1.77.1-1.46-.31h-1.46l-1.57.21-3.33.1-3.23-.94-.84-1.15c0-.1-.2-.2-.2-.2L246,49.1l-.11-3.34V41.91l-.41-1.15.31-1.56v-.42l-.31-1.25.21-1.46v-.21l-.11-1.46-.1-1.67.41-1.56v-.42l-.2-1.14Z"/><path class="cls-2" d="M300.31,28.15l.2-3.13-.1-1.25.21-1.77v-.42l-.31-1.15.1-1.67.31-1.46V14.07l-.1-.21-.31-1.77.31-1.14.1-.21V7.09L301,3.44l.73-1.25,1.57-.94,2.6-.52,3.55-.21,1,.31a.76.76,0,0,0,.42.11l1.67-.11,1.25-.1,1.87-.21,1.36.21h.31L319,.52l1.15.11,1.46.31h.21l1.77-.11H325l3.34-.2,1.46.52,2.92.62L336,2.5l1.35.94,1.25.63,1.36.93,1,.94,1,1,.94,1.46.84,1.25.83,1.46.52,1,1.46,3,.1,1.56v1.46c0,.11.11.21.11.32l.42,1.77L347,21.89v1.46L346.59,25l-.42,1.56-.83,1.05c-.11.2-.21.2-.21.41l-.42,1.36L344,30.65l-1,1.46-2,1.77-.42.42-.31.83-1.46,1.77a1.51,1.51,0,0,0-.31,1.15l.52,2.19c0,.1.1.21.21.42l.62.73,1.78,3,.52,1.46.94,2.5-.73,1.25L340.23,52l-1.15.42-1.77-.11-2.6-1.88-.63-1-2-2.81-.63-1.36-1.77-2.92-1.35-1.77c-.11-.21-.32-.21-.42-.31l-.63-.42a1.1,1.1,0,0,0-.52-.21l-1.46-.1h-2.5l-1.67-.21-2-.1h-1.56l-1.56-.11-2.19.21-2.3.42c-.1,0-.2.1-.31.1l-.73.42a.82.82,0,0,0-.42.42l-.41.73c-.11.1-.11.41-.11.52l-.2,2.92-.11,1.56-.1,2.71-1.88,2.61-1.36.62-3.23-.62-1-1.57L300.83,47l-.42-2.91.31-1.26v-.52l-.41-1.66.41-1.15v-2L300.51,36l-.2-3.54.31-1.15v-.52l-.21-.83ZM322,9.9l-2.82.11-1.66-.21-1.78-.11h-.21l-2.71.42-1.56.42a1.15,1.15,0,0,0-.94.73L309.58,13c0,.1-.1.21-.1.42l-.1,1.87v3.24l.1.2.31,1.46-.21,1.46-.1,1.46.1,2,.21,1.78.42,1.45c0,.21.21.21.31.42l.52.63c.11.21.32.21.52.31l1.57.63c.21.1.31,0,.41,0h1.78l1.66-.11,1.36.21H320l1.14-.21,1.78.11h1.25l1.25-.11,3.13-.1h.31l3-1.05,1.36-.31c.21-.1.31-.1.41-.21l.94-.83c.11-.1.21-.1.32-.31l.52-1.05,1.77-2.29a1.15,1.15,0,0,0,.21-.63l.1-.93.21-1.36V21l-.1-2.71-.11-.31-.62-2.71a1.19,1.19,0,0,0-.32-.63l-.83-.73-.73-1-.31-.31-1-.73-1-.52a.31.31,0,0,0-.21-.11L331,10.53l-2.5-.52h-.21L325,9.9l-1.14-.21h-.32Z"/><path class="cls-2" d="M.84,106.87l-.25-4.22.52-1.58V97l.13-2.11V93.42l-.13-2.25L.84,89.06.59,87.35v-3.7l.25-1.32V78.9l1-2.9.26-1.45,1.3-1.19,3.76-1.45L9.42,73l3.12,2.77,3,3.82,1,1.06,1,1.85A1.79,1.79,0,0,0,18,83l1.56,1.19.65,1.19,3.12,3.69.91,1.32a.5.5,0,0,0,.13.27l1.3,1.18,1.17,1.72a.45.45,0,0,0,.13.26L28.27,95l.91,1.58,1.3,1.72,2.86,3.56a.28.28,0,0,0,.26.26L36.33,104a1.56,1.56,0,0,0,2.08,0l2.47-1.71c.13,0,.26-.27.26-.27l2.47-2.77,1.3-1.85,1-1.05c.13-.13.26-.13.39-.4L47,94.34,48.29,93l3.12-3.69.65-1.06,1.17-1.58,1.3-1.85,1.17-.92L57,82.47a.13.13,0,0,0,.13-.14l1.3-2L59.6,79.3s.26-.13.26-.26l2.21-3.3,2.86-2.38L67.79,72l1.95.27L72,73.89l1.69,2.77.26,7.39-.26,2.24v2L73.77,90v2.5l.39,1.72L74,95.79,73.9,98,74,99.75l-.26,2v.39l.26,2-.13,1.32v.27L74,107.8l-.26,2.11v3.56l-.13,1.72v.26l.26,2.38.13,1.45-.26,1.84v.53l.39,1.72-.52,1.71v4.36l-.39,3.82L71.17,136l-1.56.79-4-1-1.69-1.45-1-4.36v-4.75l-.52-1.58.26-1.71.26-2.38v-.26l-.13-1.72.13-2.24v-7.65l-.13-4.89-.26-2.9c0-.53-.39-.79-.65-1l-.52-.53A1.64,1.64,0,0,0,59.73,98l-.91.27a1.27,1.27,0,0,0-.65.53l-1.82,2.11-1,1.71-4,4.75-1.17,1.45-1.17,1.59-1,1.32-1.3,1.58-1.3,1.32-2.73,3.43-3.25,2.77H37l-1.56-.66-2.86-1.85-1.17-1.45L28.92,114l-1-1.58c-.13-.27-.26-.27-.39-.4L25.93,111l-1.3-1.71-.91-1.58-1-1.72c0-.13-.26-.26-.26-.26L21,104.24l-.91-1.46c0-.13-.26-.13-.26-.13l-2.6-2.9-.52-.4-1.17-.52A2,2,0,0,0,12.8,100l-.52,1.46c0,.13-.13.26-.13.52L12,106v2.24l.13,1.85v1.85l.13,1.71.13,2.38.13,1.58v2l-.39,1.85v.53l.39,1.84v4l-.13,1.85-.78,3-2.08,3.3-2,1.19-4-1.19-1.29-1.19-.91-3.16-.53-2.77L1,126.53v-.26l-.26-3.43.12-2.11.27-3.7v-.26l-.27-2.11.4-3.83-.13-2.5Z"/><path class="cls-1" d="M141.74,130.1l-.26,3.16-.91,1.85-3.9,1.85h-1.82l-2.73-2.38-2-3-1.56-2.91c-.13-.39-.65-.65-1-.79l-2.73-.79a1,1,0,0,0-.64,0l-3.64.4-1.3-.27h-.39l-2.21.14-1.69-.27h-.65l-1.82.4-1.3-.13c-.13,0-.26-.14-.39-.14l-2,.27-2.08-.13-2.73-.14h-.52l-2.08.53h-.26l-1.17.53-.39.26-1.3,1.19c-.13.13-.26.13-.39.4l-1.56,3.43L93,136.17l-1.69,1.05-1.56-.4-1.82-.65-1.43-1.46-1-2.9.91-2.51c0-.13.13-.26.13-.52v-1.72l1.56-3.56.91-1.19c.13-.26.39-.39.39-.79l.26-1.32.91-2,.78-1.71,2-4,1.56-3.3.78-1.58a1.29,1.29,0,0,1,.13-.4l.52-1.85.52-1.32,1-2.11,1-1.84.65-1.46L100,97l1.17-2.24.65-1.06c.13-.26.26-.39.26-.53l.26-1.58,1.17-2.11.65-1.32c0-.13.13-.13.13-.4l.39-1.84.78-1.32,1-1.72.26-.26,1.56-4.36,2.08-3.16,2.73-2.25,1.82-.39h2.08l2.33,2.37,2.22,3,1.42,4,.52,2,.78,1.84.65,1.45.26,1.72c0,.13.13.26.26.53l.91,1.58.65,1.72.52,2,.78,1.85L129,98l.78,1.46.65,2.11a1.31,1.31,0,0,1,.13.39l.78,1.32.52,1.59.78,2.11a1.31,1.31,0,0,1,.13.39l.91,1.32.65,1.72.78,1.84.26,1.85.13.27,1.3,3.43a.13.13,0,0,1,.13.13l.91,1.58.65,2,.13.26.91,1.59.91,3.82.13.14Zm-29.5-14,1.56.13a1.65,1.65,0,0,0,.78-.13l.65-.26,2.73.26a1.65,1.65,0,0,0,.78-.13l2.46-1.19a1.78,1.78,0,0,0,1-1.71l-.13-2.51c0-.27-.12-.27-.12-.4l-1.18-2.77-.91-2.11-.52-2.11c0-.13-.12-.26-.12-.4l-.66-1.31-1.29-2-.78-2.12a1.76,1.76,0,0,0-2-1.05h-.65a1.56,1.56,0,0,0-1.3.92l-.26.4a.13.13,0,0,1-.13.13l-1,2.77L110,102a.46.46,0,0,0-.13.27l-.78,1.71v.13l-.52,2.11-2.21,4.49a1,1,0,0,0-.13.53l-.13,1.58a2,2,0,0,0,1.3,1.85l2.73.92Z"/><path class="cls-2" d="M152,106.35l.27-4-.14-1.58.26-2.25V98L152,96.58l.13-2.11.39-1.84V88.54l-.13-.27L152,86l.39-1.45.13-.27V79.7l.39-4.62.91-1.59,2-1.18,3.25-.66,4.42-.27,1.3.4a1,1,0,0,0,.52.13l2.08-.13,1.56-.13,2.34-.27,1.69.27h.39l2-.27,1.43.13,1.82.4h.26l2.21-.13h1.82l4.16-.27,1.82.66,3.64.8,4,.92,1.69,1.19,1.56.79,1.69,1.19,1.3,1.18,1.3,1.32,1.17,1.85,1,1.58,1,1.85.65,1.32L209.72,90l.13,2v1.84c0,.13.13.27.13.4l.52,2.24-.26,2v1.85l-.52,2.11-.52,2-1,1.32c-.13.26-.26.26-.26.52l-.52,1.72-.91,1.58-1.3,1.85-2.47,2.24-.52.53-.39,1.06L200,117.43a1.91,1.91,0,0,0-.39,1.45l.65,2.77c0,.13.13.27.26.53l.78.92,2.21,3.83.65,1.85,1.17,3.16-.91,1.59-2.6,3-1.43.53-2.21-.13-3.25-2.38-.78-1.32-2.47-3.56-.78-1.71-2.21-3.7L187,122.05c-.13-.27-.39-.27-.52-.4l-.78-.53a1.37,1.37,0,0,0-.65-.26l-1.82-.13h-3.12l-2.08-.27-2.47-.13h-1.95l-2-.13-2.73.26L166,121c-.13,0-.26.13-.39.13l-.91.53a1,1,0,0,0-.52.53l-.52.92c-.13.13-.13.53-.13.66l-.26,3.7-.13,2-.13,3.43-2.34,3.3L159,137l-4-.79-1.31-2-1-4-.53-3.7.39-1.58v-.66l-.52-2.11.52-1.45v-2.51l-.25-2-.27-4.48.39-1.46v-.65l-.26-1.06Zm27-23.09-3.51.13-2.08-.26L171.24,83H171l-3.38.53-1.95.53a1.43,1.43,0,0,0-1.17.92l-.91,2.25c0,.13-.13.26-.13.52l-.13,2.38v4.09l.13.26.39,1.85-.26,1.85-.13,1.84.13,2.51.26,2.24.52,1.85c0,.26.26.26.39.53l.65.79c.13.26.39.26.65.4l2,.79c.26.13.39,0,.52,0h2.21l2.08-.13,1.69.26h2.08L178,109l2.21.13h1.56l1.56-.13,3.9-.14h.39l3.77-1.32,1.69-.39c.26-.13.39-.13.52-.27l1.17-1.05c.13-.13.26-.13.39-.4l.65-1.32,2.21-2.9a1.4,1.4,0,0,0,.26-.79l.13-1.19.26-1.71v-.27l-.13-3.43-.13-.39L197.63,90a1.55,1.55,0,0,0-.39-.8l-1-.92L195.29,87l-.39-.39-1.3-.93L192.3,85a.4.4,0,0,0-.26-.13l-1.82-.79-3.12-.66h-.26l-4-.13L181.38,83H181Z"/><path class="cls-1" d="M251.18,71.65l4,.26h.26l1.43-.26,2.21.39,1.69.27,1.43.52a.74.74,0,0,0,.52.14h1.43l1.95,1c.13,0,.26.13.39.13l1.56.27,1.43,1.32,1.43.92,3.12,2.11,1.3.79,2.73,3,.65,2.37-.26,1.59-3,3.16-1.56.53-2.34-.13-2.86-1.58-2.86-2-3.77-2.12-1.43-.65L259,83.26c-.13,0-.26-.13-.39-.13h-2.08l-1.82-.4H253l-1.95.26a.74.74,0,0,0-.52.14l-1.82.79-.91.13c-.26,0-.65,0-.78.13l-1.69,1.19-1.43.92-1.43.53a1.64,1.64,0,0,0-.65.4L239.22,90l-1.17.79a2.71,2.71,0,0,0-.52.66l-.78,1.71-.91,1.72-.78,1.19c0,.13-.26.26-.26.39L234.28,98v.27l-.39,2-.52,1.84-.13.66.13,1.32-.26,1.72v.53l.39,2.24.52,1.71,1.56,3.83.52,1.45a1,1,0,0,0,.26.53l1,1.19,1.69,1.32.65,1.18a1,1,0,0,0,.52.53l1.69.93.78,1a2.26,2.26,0,0,0,.91.66l1.17.4,2.21,1,1.56.79c.13,0,.26.14.39.14l1.56.26h.39l1.43-.13,4.16.26,1.82-.13a.78.78,0,0,0,.52-.13l1.69-.79,2.08-.8,1.17-.26a.78.78,0,0,0,.52-.13l3.38-2.38L271.2,119l3.51-.52,1.82.92,1,1.58,1.17,2.24-1,3.7-.65,1.19L274.19,130c-.13,0-.26.27-.26.4l-1,1.19-1.69,1-3.38,1.59-1.95.66-2.08.66a.64.64,0,0,0-.39.13l-1.3.92-1.82.26H258.2l-1.82.4-2.34-.13h-.26l-1.69.13-1.82-.13-2.08-.27-1.82-.39-2-.4-1.56-.79L241,134.05,239.35,133l-1.95-.93-3-2-1.95-1.19-.65-1.06-.39-.26-1.56-1.19-1-1.58-.78-1.45-1.56-2-.65-1.85-.65-1.32-1.3-2.24-.26-1.72-.26-1.84-.39-1.59c0-.13-.13-.26-.13-.39l-.78-1.45.26-2v-.53l-.26-1.72-.13-2,.13-1.71.13-2.11.91-3.83.91-1.71v-.27l.65-2.11.91-1.58,1-1.32a.45.45,0,0,0,.13-.26l.78-1.72L229,84.58l1.17-1.45,1.3-1.46,1-1.58L234,78.51l1.56-.66a.94.94,0,0,0,.52-.27l1.17-1.18,1.95-1.06,1.82-1,3.51-.93,2.08-.66Z"/><path class="cls-2" d="M347.62,102.52l-.13,4.35v2l-.26,1.59v.26l.13,1.85v2l-.13,2.24v2.11l.39,2v3.69L347,129.3v3.57l-1.69,2.37-1.69,1.32-3.64.26-1.69-1.31-.78-1.06-.91-3.17-.39-3.82.26-2.38v-.53l-.26-1.45-.26-4.35c0-.26-.13-.4-.13-.53l-.38-.92c-.14-.4-.53-.53-.79-.66l-1-.66c-.14,0-.27-.13-.4-.13l-2.72-.53H330l-3.39.53-1.81-.53h-.65l-1.56.13-1.43-.13h-2.34l-2.08.26-1.56-.13h-.52l-1.3.26-2.34-.13-3.64.13-3.25.66a2.06,2.06,0,0,0-1,.8l-.39.52c-.13.27-.26.4-.26.53l-.78,3.17v.53l.26,4.09-.39,1.32v2L301,133l-1.56,2.9-2.08.79-4.42-.39-1.3-1.59-.91-2.9-.39-3.56-.13-4.75-.13-2,.39-1.45v-.53l-.39-2v-1.85l.13-1.84.26-1.85v-.66l-.52-1.19.39-2,.13-.26v-4l-.26-1.71-.26-2,.39-1.72.13-.26V96.58l-.13-.26-.39-2V92.1l.13-1.45-.13-2.51V86.29l.26-3.69v-.4L290,80.62l.91-3.3.91-3.43,1.69-1.32,4.16.26,2.21,1.46,1.3,2.5.39,4.09L301.48,85l.13,1.85.13,2.11.13,2.38-.39,1.58v4.62l.13.26.78,3.83a1.67,1.67,0,0,0,.52.92l.39.4c.26.26.26.39.52.39l2.86.79h3.38l1.43-.13H314l1.56.27,1.82.13h.39l2.08-.4h2.08l1.95.4a1.08,1.08,0,0,0,.65,0l1.69-.53,1.43.13h4a.81.81,0,0,0,.53-.13l2.34-.92a1.84,1.84,0,0,0,.91-1.06l.77-2.37.14-.53-.14-3.43.26-1.85.13-.39V87c0-.13-.13-.26-.13-.39l-.39-1.32V80.62l.39-4.36,2.21-2.77,1.56-1.18,3.77.26,1.56.79,1.3,3.3L347.1,81l.26,4.23-.26,2.11v2l.13,1.71v.4l.26,1.58-.39,1.85v.53l.13,1.58v1.71l.39,2Z"/></svg>