<svg id="Camada_1" data-name="Camada 1" xmlns="http://www.w3.org/2000/svg" viewBox="0 0 413.84 728.86"><defs><style>.cls-1{fill:#7ca8d9;}.cls-2{fill:#7ba8d9;}.cls-3{fill:#fec2e4;}.cls-4{fill:#556979;}.cls-5{fill:#b39ab0;}.cls-6{fill:#546777;}.cls-7{fill:#88a290;}.cls-8{fill:#f6d3c7;}.cls-9{fill:#8ab89a;}.cls-10{fill:#566a7a;}.cls-11{fill:#556879;}.cls-12{fill:#7ea7d8;}.cls-13{fill:#8bb89b;}.cls-14{fill:#ae8991;}.cls-15{fill:#89a192;}.cls-16{fill:#8fc19d;}.cls-17{fill:#8bb89a;}.cls-18{fill:#91c39e;}.cls-19{fill:#d3bfe8;}.cls-20{fill:#87a190;}.cls-21{fill:#8ebd9d;}.cls-22{fill:#546678;}.cls-23{fill:#90ad95;}.cls-24{fill:#556679;}.cls-25{fill:#859f8e;}.cls-26{fill:#516174;}.cls-27{fill:#859f8d;}.cls-28{fill:#859d8d;}.cls-29{fill:#86a08f;}.cls-30{fill:#d2c1e6;}.cls-31{fill:#8aa691;}.cls-32{fill:#556678;}.cls-33{fill:#8cb89d;}.cls-34{fill:#92c4a0;}.cls-35{fill:#efeff5;}.cls-36{fill:#260b46;}.cls-37{fill:#87a090;}.cls-38{fill:#57677a;}.cls-39{fill:#94c0a2;}.cls-40{fill:#eff0f6;}.cls-41{fill:#50625c;}.cls-42{fill:#f1eff5;}.cls-43{fill:#849d8e;}.cls-44{fill:#507462;}.cls-45{fill:#8da792;}.cls-46{fill:#f6d7ca;}.cls-47{fill:#f6d7c9;}.cls-48{fill:#425d92;}.cls-49{fill:#5e6e7e;}.cls-50{fill:#8bb99c;}.cls-51{fill:#3a455c;}.cls-52{fill:#82a7d6;}.cls-53{fill:#8ea694;}.cls-54{fill:#f2ecf2;}.cls-55{fill:#8fb6a0;}.cls-56{fill:#4e6ea0;}.cls-57{fill:#8aa190;}.cls-58{fill:#230e43;}.cls-59{fill:#869e91;}.cls-60{fill:#878095;}.cls-61{fill:#87ae9a;}.cls-62{fill:#f1eeeb;}.cls-63{fill:#3a485c;}.cls-64{fill:#8f8a9b;}.cls-65{fill:#8a8595;}.cls-66{fill:#5e667a;}.cls-67{fill:#5b6d65;}.cls-68{fill:#526561;}.cls-69{fill:#2f234b;}.cls-70{fill:#8b8893;}.cls-71{fill:#5b6f65;}.cls-72{fill:#576961;}.cls-73{fill:#5e6e67;}.cls-74{fill:#7d7a89;}.cls-75{fill:#8b9d99;}.cls-76{fill:#56695d;}.cls-77{fill:#473853;}.cls-78{fill:#588268;}.cls-79{fill:#31244e;}.cls-80{fill:#7f7887;}.cls-81{fill:#364054;}.cls-82{fill:#547965;}.cls-83{fill:#475c52;}.cls-84{fill:#2f3752;}.cls-85{fill:#86a090;}.cls-86{fill:#22104b;}.cls-87{fill:#57709f;}.cls-88{fill:#5170a5;}.cls-89{fill:#5276aa;}.cls-90{fill:#5379ad;}.cls-91{fill:#4d75a8;}.cls-92{fill:#6483ab;}.cls-93{fill:#526577;}.cls-94{fill:#f5d6ca;}.cls-95{fill:#250f4c;}.cls-96{fill:#270e47;}.cls-97{fill:#25205e;}.cls-98{fill:#7e606b;}.cls-99{fill:#506fa4;}.cls-100{fill:#260946;}.cls-101{fill:#2b0a45;}.cls-102{fill:#8cba9d;}.cls-103{fill:#8bb89e;}.cls-104{fill:#37425a;}.cls-105{fill:#8db79e;}.cls-106{fill:#8eb69e;}.cls-107{fill:#8db2a0;}.cls-108{fill:#ad969d;}.cls-109{fill:#344157;}.cls-110{fill:#354458;}.cls-111{fill:#3c4b5f;}.cls-112{fill:#334055;}.cls-113{fill:#2e3752;}.cls-114{fill:#f7d7c8;}.cls-115{fill:#8eba9e;}.cls-116{fill:#8db79d;}.cls-117{fill:#6d546e;}.cls-118{fill:#7d637c;}.cls-119{fill:#537764;}.cls-120{fill:#240b44;}.cls-121{fill:#37435a;}.cls-122{fill:#39455b;}.cls-123{fill:#344156;}.cls-124{fill:#4b6255;}.cls-125{fill:#3c485b;}.cls-126{fill:#8eb99e;}.cls-127{fill:#546460;}.cls-128{fill:#546660;}.cls-129{fill:#f1f0f6;}.cls-130{fill:#81a6d5;}.cls-131{fill:#a68580;}.cls-132{fill:#547b66;}.cls-133{fill:#4f7761;}.cls-134{fill:#577d69;}.cls-135{fill:#869f8f;}.cls-136{fill:#3c495f;}.cls-137{fill:#ab8d94;}.cls-138{fill:#93bea3;}.cls-139{fill:#537869;}.cls-140{fill:#5a6c65;}.cls-141{fill:#4d6157;}.cls-142{fill:#270b45;}.cls-143{fill:#527463;}.cls-144{fill:#588068;}.cls-145{fill:#446e55;}.cls-146{fill:#4b725c;}.cls-147{fill:#2b1049;}.cls-148{fill:#e8cdcc;}.cls-149{fill:#755d7c;}.cls-150{fill:#53665e;}.cls-151{fill:#5f7368;}.cls-152{fill:#52665a;}.cls-153{fill:#5e7268;}.cls-154{fill:#859b90;}.cls-155{fill:#8eb9a0;}.cls-156{fill:#5d7574;}.cls-157{fill:#899c93;}.cls-158{fill:#344357;}.cls-159{fill:#556e5e;}.cls-160{fill:#5d7664;}.cls-161{fill:#56705d;}.cls-162{fill:#3a455d;}.cls-163{fill:#374158;}.cls-164{fill:#526660;}.cls-165{fill:#54675c;}.cls-166{fill:#efedf6;}.cls-167{fill:#7c7c87;}.cls-168{fill:#260a46;}.cls-169{fill:#303e54;}.cls-170{fill:#566879;}.cls-171{fill:#577669;}.cls-172{fill:#2c1945;}.cls-173{fill:#889f91;}.cls-174{fill:#e2dcec;}.cls-175{fill:#566a63;}.cls-176{fill:#4e5c5e;}.cls-177{fill:#4e635d;}.cls-178{fill:#55695f;}.cls-179{fill:#566e62;}.cls-180{fill:#51665c;}.cls-181{fill:#566c62;}.cls-182{fill:#546663;}.cls-183{fill:#50635d;}.cls-184{fill:#8a98d1;}.cls-185{fill:#402135;}.cls-186{fill:#566878;}.cls-187{fill:#56647a;}.cls-188{fill:#90b2a3;}.cls-189{fill:#354158;}.cls-190{fill:#4c755e;}.cls-191{fill:#50646a;}.cls-192{fill:#b19591;}.cls-193{fill:#bb9790;}.cls-194{fill:#a36779;}.cls-195{fill:#a48586;}.cls-196{fill:#69454e;}.cls-197{fill:#725154;}.cls-198{fill:#4e6d62;}.cls-199{fill:#4c6b60;}.cls-200{fill:#4f6e5f;}.cls-201{fill:#92b5a1;}.cls-202{fill:#afadb9;}.cls-203{fill:#a29da8;}.cls-204{fill:#576965;}.cls-205{fill:#596f62;}.cls-206{fill:#586778;}.cls-207{fill:#3c4a5f;}.cls-208{fill:#3f475c;}.cls-209{fill:#333e55;}</style></defs><path class="cls-1" d="M60.87,664.33c4.81-4.73,4.13-11.34,5-17.05,5-32.2,10.17-64.43,13.61-96.82,3.38-31.77,9.39-63.13,12.93-94.85.07-.57.75-1.09,1.14-1.63a6.58,6.58,0,0,0,3-3.67c2.33-9.24,3-18.67,3.17-28.15.1-5.65,0-11.3.48-16.93-1.33-3.59-4-6.85-7.36-7.38-10-1.58-13.05-9.29-16.59-16.79-1.06-2.25-1.83-4.63-3.65-6.42-2.63-1.56-3.16-4.23-3.72-6.92-.23-1.12-.86-2.24-2.24-2-1,.14-1.38,1.14-1.66,2-1.41,4.38-2.25,8.95-3.9,13.4.62-3.48,3.74-6.77-.87-9.7-4.41-1.39-9.07-.63-13.55-1.7-3.52-.83-6.28.95-7.78,4.22a138.25,138.25,0,0,0-7.53,22c-1,3.87.83,5.61,4.88,4.88a27.13,27.13,0,0,0,8.1-2.68c.51-.2.29,1.55.1.66,0-.16-.18-.13-.46-.12-11.8.64-16.46,7.06-16.8,18.63a78.3,78.3,0,0,1-2.39,18.27,378.3,378.3,0,0,0,2,58.86c.84,7.21,1.81,14.48,1.85,21.83.12,20.57,2.75,40.95,5,61.37,1.45,13.14,1.92,26.39,3.13,39.57,1.23,13.4,2.65,26.8,3,40.28a6.84,6.84,0,0,0,1.6,4.43c1.52,2,3.69,3,6,4C51.92,665.83,56.55,666.48,60.87,664.33Z"/><path class="cls-2" d="M94.88,450.85,93.56,454c1.2,24.65-1.44,49.19-2.15,73.78-.49,16.87-1.11,33.73-1.68,50.59-.58,17.3-1.13,34.57-2.44,51.85a99.39,99.39,0,0,0,2.59,31c3.35,1.35,7.06,1.56,10.3,3.25a16.82,16.82,0,0,0,8.68-1.79c3.36-.78,3.55-3.63,4.32-6.27,6.37-21.65,10-44,15.91-65.71,5.75-21.09,12.26-42,18.44-63,5.89-11.56,8.37-24.24,11.87-36.57,1.29-4.56,1.81-9.34,4.54-13.39.58-3.1-1.16-6.27.23-9.36.28-3.08,1.63-5.87,2.42-8.8a37.23,37.23,0,0,0,.55-7.67c0-7.85,2.5-15.48,2.13-23.36-6.39-8.85-13.05-17.4-24.34-20.45-6-1.1-10.51-4.22-13.25-9.79-.69-1.4-1.33-3-3.23-3.26-6.79,4.86-14.18,7.74-22.72,7.12-2-.14-4.11.17-5.53,2-2.47,12.91-.9,26.11-2.9,39.06C96.89,446,96.87,448.72,94.88,450.85Z"/><path class="cls-3" d="M192.83,593.67c-4.49,3.8-9.92,2.54-15.07,2.81-8.51.46-16.76,1.62-23.56,7.55-7.52,6.56-11.56,14.53-10.95,24.7.89,14.95-.24,30.29,5.69,44.4,3,7.13,3.5,14.44,4.92,21.72,3.22,16.57,11.1,22.13,27.82,24.36,15.9,2.11,30.82-.86,45.67-4.81,7.75-2.06,14.68-6.4,15.8-16.58.53-4.81,1.81-10.25,5.7-13.58,12.33-10.53,13.88-25,15.21-39.59.58-6.32,2.19-12.56,1.39-19-1.48-12-15.72-24.22-27.78-26.13-11.21-1.77-22.52-2.94-33.78-4.37-1.92,3.27.47,4.8,2.6,6.43,7.83,2.67,16.07,3.38,24.13,5a38.23,38.23,0,0,1,17.15,8.19c8.24,6.79,7,14.6-2.36,19.39-6.76,3.46-14.18,4-21.36,4.25-14.12.48-28.32,1.28-42.42-1a41.38,41.38,0,0,1-17.11-6.64c-10.22-7-9-19.36,2.2-24.47,5-2.3,10.5-3.13,15.84-4.39,2.8-1,5.8-.36,8.61-1.05C195.63,599.68,196.12,597.43,192.83,593.67Z"/><path class="cls-4" d="M251.77,177.24c2.81-7.67,8.28-12.77,15.36-16.54,8.56-4.55,15.71-10.67,20.58-19.27,2.39-4.23,6.23-6.21,11.12-6.89,5.84-.81,11.54-2.38,15.16-7.76l-.12-1c.67-5-.77-9.71-1.53-14.53a14.2,14.2,0,0,0-.52-1.91c-1.68-2-1.21-8-6.47-3.61-2.08,3.79-4.13,7.59-6.26,11.36-1,1.75-1.53,4-3.67,4.78-7.33,2.59-9.61,8.54-10.51,15.46-.93,7.13-5.67,11-12.07,14.41-.77-4.58-.84-8.49,2.2-11.27,6.52-6,6.92-13.66,6.42-21.48-.28-4.35.35-8.16,2.82-11.67,2.94-4.19,2.45-8.79,2.71-13.65.74-13.65-2.56-27.46,2.5-41,6.22-16.65.33-36.34-13-47-3,7-3.73,14.65-6.58,21.68,2.69-7.1,3.62-14.73,6.48-21.78C269.8.9,262.39-.35,254.55.08c-4.16,3.53-3.33,8.37-2.89,12.8.8,7.95,1,16.18,3.12,23.72,3,10.43,1.83,20.76,2.18,31.16.1,3.1-.71,6.45,2.31,9.45,2.8-1.83,4.15-5.2,6.55-6.57-3.76,2.79-5.7,8.06-10.22,10.89a4.46,4.46,0,0,0-1.61,1c-1.08,2.06-2.15,4.11,0,6.17,3,2.44,2.6,6,3,9.25.45,3.47.09,7.27,3.72,9.5,4.45-5.89,11.78-8.47,17.17-15-5.24,6.65-12.8,9-16.94,15.18,3.45,8.75-.33,16.32-3.85,24a7.84,7.84,0,0,0-.73,6,2.23,2.23,0,0,0,2.29,1.53c3.67-4.83,5.37-10.71,8.34-16.59,2.73,7.27-2.14,12.72-2.64,18.81a28.25,28.25,0,0,0,1.07,5.94c1.33,4.58,0,7.9-4.21,10.07-1.3,1.46-3.17,2.58-3.11,5a19.33,19.33,0,0,0-4.23-8.69c-6.26-7.68-14.64-13.53-19.35-22.54-3.36-4.79-9.19-7.81-10.23-14.28-2-1.09-3.9-1.87-4.29,1.53a38,38,0,0,1,1.22,10.07c-.34,7,4.29,11.24,9.51,14.73a18.7,18.7,0,0,1,8.69,14c-8.71-2.69-15.08-7.94-20-15.45a18.69,18.69,0,0,0-7.51-6.74c-2,5.15,0,10.31,0,15.46,1.21,4.87,2.43,9.95,2.13,14.82-.58,9.15,4.26,16.13,7.74,23.71a6.31,6.31,0,0,0,3,3.57c.61.26,1-1,1.3-.21a1.3,1.3,0,0,1-1.09,1.51c-1.18.08-2-.88-3.08-1.3a68.19,68.19,0,0,0-25.3-5.16,3.24,3.24,0,0,0-1.66,1.18c-.25,11.89,6.57,19,16.25,24.28a29.09,29.09,0,0,0,6.82,2.86c2.32.54,5,.46,6.09,3.28,1.39,4.47,3.56,8.45,7.7,10.88,5.44,3.19,3.29,9.6,6.15,13.86,2,.91,3.62.12,5-1.32,1.76-3.85,4.17-7.5,3.83-12-1-10.65,1.94-20.78,4.3-31,1-4.16-.44-8.13,0-12.18-.4-2.9.9-6-.88-8.74-3.48-.94-3.49,1.75-4.14,3.89-.91,3,0,6.12-.51,8.44-.54-6.56,1.91-13.61,1-20.86,0-.22-.06-.57.07-.65,1-.71.82.55,1.24.85C249.51,172.27,247.44,176.51,251.77,177.24Z"/><path class="cls-5" d="M30.8,103.06c4,1,4.94,2.83,2.72,6.8C28,119.79,25.68,130.74,24.65,142,23.15,158.26,14.15,172,9.58,187.3c-3.34,11.17-3.43,21.46,5.3,30.62,3.41,3.57,7.71,4.44,11.91,5.87,1.64.55,3.91,0,3.69,2.87,2.19,1,3.55,0,4.54-1.88,7.09-2.83,13.63-6.88,20.82-9.52,2.78-1,5.68-2,5.84-5.7-3.47-7.14-2.8-14.35-.58-21.66a30.74,30.74,0,0,0,1.23-14c-1.11-4.12-4.41-7.5-4.29-12,.07-2.57-.3-5.63,3.92-5.72,8.11-.19,11.61-5,10.18-13.65-2.54-1.29-3.53-3-2.61-6,.72-2.34,1.63-4.72,1.57-7.28s0-4.91,0-7.37c0,4.75.28,9.49-1.28,14.15-1.19,3.57.83,5.53,4.08,6.56,13.32-.44,26.61,2.69,39.89.77,7.43-1.08,14.89-.91,22.31-1.75,5.46-2.34,6.53-6.93,6.24-12.21-4.88-7.43-12.31-11.23-20.3-14.26a10.47,10.47,0,0,0-3.06-1.24c-9.31-.17-18.33-1.06-27-5.33-7.72-3.81-16.69-3.63-25-5.86a11.43,11.43,0,0,0-7.34.75c-12.71,12-11.09,26.89-9.78,36.69-2.5-9.84-1.15-20.65,6.17-33.14.58-1,1.27-1.91.38-3.06-2.87-2-6.17-1.21-9.31-1.49C41.75,103.47,36.12,99.47,30.8,103.06Z"/><path class="cls-6" d="M265.69,225.15l.57.1.52-.27c3.68-5.36,2.92-11.25,1.77-17-1-5.14-.3-9.05,5.39-10.63,6.47-1.8,11.23.26,13.83,6a4.61,4.61,0,0,0,1,1.62c7.75-4.23,15.71-7.57,24.88-6.51,3.09.36,4.05,1.5,2.34,4.3a2.72,2.72,0,0,0,1.43,2.3c4.81-2.34,9,0,13.25,1.82,8.65-1.46,15.54,1.27,21,8.25a25.61,25.61,0,0,0,7.24,6.18c6.88,2.47,13.66,4.51,21.21,2.2,4.6-1.41,9.46-.36,14,1.56,4.88,2.78,11.65,1.56,15.2,7.16.38,1.65.53,3.4,2.1,4.49,2.64-11.33-1.26-20.05-11.28-25.12-1.83-.93-3.84-1.52-5.64-2.5-6.35-3.43-11.68-7.46-13-15.47-1.17-6.95-3.38-13.75-5.45-20.52C371.72,159,361,153.83,347.29,159.39c-6.55,2.67-11.84,2.45-17.53-2.62-10.29-9.17-24.9-5.71-29.53,7-3,8.26-7.69,12.05-16.41,10.59-1.6-.27-3.45-.38-4.48,1.05-3.28,4.52-7.5,5.91-13.07,5.66-3.92-.18-4.49,3.82-5,7l.64.41c1.7,5.26-2.17,10.38-.39,15.65a9.86,9.86,0,0,0,.58,2,36.67,36.67,0,0,1,1.62,12C263.74,220.69,263.61,223.24,265.69,225.15Z"/><path class="cls-7" d="M34.74,224.29l-4.26,2.37A23.38,23.38,0,0,0,22.22,238a14.13,14.13,0,0,1-9.31,9.24c-6.22,2-9.82,6.18-11.2,12.44,13.86,1.88,27.23,10.33,41.69,4.16,10.05-4.3,18.79-11.2,28.81-15.72,2.78-1.26,3.84-3.82-.24-5.11-13-4.08-25.65-9.84-39.89-7.75,13.66-2,26,2.84,38.36,7.33a25.36,25.36,0,0,0,16,.54c8.5-2.33,17.32-1.42,25.83-1.34,6.16.06,12.28,4.45,18.34,7.1,3.24,1,6.29,2.53,9.51,3.62,1.86.63,4.05,2.11,5.63.17s.06-4-.88-5.69c-3.33-6.16-6.63-12.36-11.22-17.73-1.48-1.73-3.07-3.34-3.33-5.76a5.15,5.15,0,0,0-3.38-3.45,37,37,0,0,0-4.68-.72c-2.84-1-2.62-3.61-3.18-5.83a2.48,2.48,0,0,0-1.25-1.34c-3.48.94-5.09.43-8.37-2.67-4.81-4.53-12.16-4.52-18.12.36a105.23,105.23,0,0,1-8.56,6.78c-.68,4.45,3,5.23,5.76,6.22,4.12,1.48,8,3.11,10.62,5.63-4.21-5.66-14.48-3.62-17.94-11.94-1.35-3-5.89-2.3-6.77-5.86-5.11-3.89-8.79.67-13,2.18-3.06,2.88-8.92,1.48-10.38,6.8,5.09,1.55,5.86,1.36,13.6-3.24a16.75,16.75,0,0,1-5.2,3.05c-1.85.85-3.93,1.2-5.83,1.88-2.62.93-2.16-1.7-3.38-2.29C44.67,219.56,39.7,221.91,34.74,224.29Z"/><path class="cls-8" d="M9.88,307.82c3.85-.32,6.72.8,5.27,5.28-2.73,8.46-.56,16.85.61,25,1.23,8.66.86,17.56,4.59,26.05,2.29,5.21,4.92,8.4,10.21,9.65,2.62,2.13,5.33,1.72,8.06.25,1.56-.84,2.07-2.63,3.35-3.72,4.78-1.7,7.22-6.14,10.83-9.22,3-1.39,6.69.18,9.45-2.2-.49-.68-2.43-13.38-2.24-14.82,1.89-14.42,4.28-28.66,10.48-42.06,2.78-6,5.1-12.12,9.72-17.08a15.38,15.38,0,0,0,4.31-9.82,28.46,28.46,0,0,0-.11-5.46c-.23-1.74-.1-4.13-2.33-4.38s-2.66,2-3.14,3.68c-.06-1.92,1.9-5.47-1.37-5.42-6.37.11-3.3,6.24-4.85,8.95a28.46,28.46,0,0,0,.24-9.46c-.27-1.4-1.11-2.56-2.81-2.4a2.46,2.46,0,0,0-2.24,2.24c-.38,3.4-1.51,6.67-1.65,9.91a23,23,0,0,1,.67-4.85c.27-1.81.76-4-1.69-4.51-2.16-.46-3.31,1.39-3.95,3.1-2,5.51-3.29,11.33-7.3,16a4.54,4.54,0,0,1-2.76,1.63c-5.56,4.22-2.21,10.52-3.71,15.69a13.07,13.07,0,0,0-.1,2c.32,2.34-.41,3.89-3,4.21-2,.24-4.06.05-5.69,1.54-.19.45-.29,1.16,0,1.24,8.65,2.71,5.87,7.48,2.27,11.58a44.54,44.54,0,0,0-4.9-13c-6.5-2-13.37-1.52-20-2.89C13.81,304,10.52,304.07,9.88,307.82Z"/><path class="cls-9" d="M308,356.09c-.46,7.33,2.28,13.91,5.11,20.37,6.83,15.58,24.32,18.43,34.23,4.89,5-6.9,11.46-10.6,18.52-14.17,8.44-4.27,12.58-20.59,7.13-27.9-5.39-1.7-9.58-5.41-14.19-8.43a12.55,12.55,0,0,0-1.59-1c-7-3.6-14.15-6.77-21.09-10.44-2.24-1.21-4.55-2.28-6.8-3.48-2.89-1.29-5.14-3.41-7.43-5.51-1.54-1.41-2.86-3.63-5.6-2.53-3.58,7.28-.66,14.07,1.56,20.91,2.76,2,3.54,5.47,5.24,7.37-2.12-1.15-1.63-5.36-5.22-6.26-1.59,8.38,1.53,16.11,3.66,23.86,1.62,5.9,3.25,11.83,4.67,15.78-3.39-11.85-8.47-25.27-10.24-39.82-4.48,8-7.85,16.12-7.87,25.32Z"/><path class="cls-10" d="M209.11,362.77c2.09-6.31.71-13.64,5.63-19.1-1.72-3.65-3.74-7.15-4.51-11.22-.53-2.85-.51-5.36,1.73-7.46a2.63,2.63,0,0,0,.45-1.74,6.31,6.31,0,0,0-1.75-2.09c-1.87-2.18-1.43-5.3-3.06-7.58-2.53-3.22-4.64-7.08-9.68-6.63-3.25,1.43-4.8,4.29-5.4,7.44-1.15,6-4.81,9.61-10,12.06-3.15,1.48-5.35,3.82-5.07,7.38.53,6.67-1.89,11.63-6.8,16.19-2,1.88-2.8,3.82-5.56,1.69-1.35,4.64,1,8.06,3.76,11.33,13.91-3.21,19.43,7.86,26.73,15.88-1.36-1.5-2.76-2.92-4.11-4.38-1.55-1.68-2.73-3.66-4.18-5.42a18.92,18.92,0,0,0-9.7-6.11c-3.72-1-6.59-.17-6.14,4.48a44.56,44.56,0,0,1-.46,12.94c-.78,4,1.59,7.06,3.9,9.87,5.18,6.31,11,12.16,14,20a3.58,3.58,0,0,0,1.72,1.05c4.09-.73,6.82-3.44,9.4-6.4,5.57-4.51,7.1-10.5,7.32-17.43C207.52,379.27,206.85,370.89,209.11,362.77Z"/><path class="cls-11" d="M254.49,82.45l1.47,0C259,71.79,257,61,257.19,50.22c.08-3.44-3-4.82-5.24-6.82,2.38,1.33,4.56,2.17,4-1.86C254.09,27.77,252.56,14,251.84.09c-8.64.52-13.66,6-16.91,13.18-3.08,6.76-7.48,11.92-14.08,15.27A10.88,10.88,0,0,0,215,35.78a96.53,96.53,0,0,1,10.31,15.94c3.26,6.36,9.44,9.41,16.76,12.31-8.66-3.17-14.92-7.52-18.54-15.31-2.1-4.5-4.31-9.07-8.88-11.77-2.85,5.29-3.33,10.85-3.26,16.86.08,7.23-1.4,14.47-2.21,21.71.06,3.94,1.74,7.37,3.62,10.65,1,1.78,2,4.3,5,2.91,1.39-3.49-1.09-6.09-2.14-9-1.17-3.22-1.73-6.13,1.54-8.54,3.82-2.8,7.86-4.84,12.67-3.19,2.36.82,2.15,3.25,2.22,5.29.22,6-1.13,11.76-2.35,17.55-.51,2.41-1.8,4.77-.32,7.26,4.73.58,4.49-3.54,5.37-6.12,2.26-6.68,2.26-13.8,2.81-21.84C243.28,75.77,246.79,82.26,254.49,82.45Z"/><path class="cls-12" d="M18.28,402.59c-5.85,19.84-7.51,39.84-6.37,60.69a466.5,466.5,0,0,0,9.36,71.79c5.28,24.81,8,49.93,11.33,74.92A445.75,445.75,0,0,1,36,655c.11,3.23-.27,6.63,4,7.63,2-4.38,1.19-9.08.7-13.44-1.28-11.33-1.7-22.72-2.88-34.05-1.56-15-2-30.1-4-45-3.44-25.6-3.3-51.45-6.2-77.07a376.1,376.1,0,0,1-1.51-59.56c1-7.68,2.29-15.29,3.58-22.92C31.27,401.22,27.39,398.76,18.28,402.59Z"/><path class="cls-13" d="M272.41,261.06c6.36,8.76,5.25,18.49,3.3,28.15-1.41,7-.69,13.18,6.23,16.31,9.05,4.1,10.5,11.77,11.17,20.18,3.12.3,3.69-2.38,4.53-4.27a36.76,36.76,0,0,1,12.19-15.32c5.25-3.8,6-17.6,1.78-22.45-1.08-1.26-2.14-1.15-3.61-.82-5.58,1.28-17.56,7.75-21.28,11.36,3.47-5.68,10.84-7,17.2-9.91,7.44-3.37,7.65-3.37,4.7-10.88-.58-1.49-1.22-3-1.78-4.45a7.71,7.71,0,0,0-1-1.63,28.67,28.67,0,0,0-2.38-2.15c-2.16-2.06-.37-2.57,1.24-3.19,1-3.51-.2-6-3.38-7.57-6.18-1.5-12.49-2.59-18.5-4.6-8.44-2.82-16.93-3.1-25.6-2.06C260.1,254.7,266.68,257.4,272.41,261.06Z"/><path class="cls-14" d="M209.11,362.77c-4.18,1.34-2.28,4.89-2.56,7.51-.91,8.68,1.45,17.49-2.07,26.2-1.48,3.67-5.66,4.64-6.24,8.48.38,10.62-3.64,20.43-5.71,30.59q-1.84,9-3.15,18.06c-.27,3.07-1.13,6-1.52,9.06-1.44,15.4-3,30.79-2.66,46.28.11,5.83,2.65,11.55.85,17.48-.94,22.74-.06,45.29,6.78,67.24,2.07,3.25,2.14,5.42-2.62,5.62-2.84.12-5.89-.91-8.47,1.17.15.17.3.49.46.49,9.56.24,13.66,6.26,15.8,14.62a7.81,7.81,0,0,0,4.46,5c4.74,2.21,8.51-.3,7.67-5.45-.8-4.94-1.55-10-3.61-14.62-1.09-1.7-2.91-3-2.63-5.39-5.29-16.2-10.36-32.42-10-49.77.26-13.18.33-26.37.48-39.55a40.39,40.39,0,0,0,.78-22.23,23.56,23.56,0,0,1,.14-10.85c2.14-17,6.4-33.51,10.8-50a54.61,54.61,0,0,0,2.11-19C207,390,210.11,376.45,209.11,362.77Z"/><path class="cls-15" d="M52.27,284.44c.57,1.13-.05,2.81,1.46,3.44,4.12-7.62,8.12-15.29,10.46-25.61,3.51,6.75-.91,11.22,0,16.76,5.33-5.17,2.09-12.4,6.42-17.55,2.64,5.57.72,10.94.13,16.9,2.74-3.15,3.21-6.32,3.75-9.44.34-1.93,0-4.94,2.71-4.48,2.5.43.71,3,.53,4.61s-.73,3.08.19,4.66c2.06-2.13,1.23-5.73,4.16-8.1,1.47,3.26.48,6.19.8,8.95,4.51,1,5.46-3.07,7.5-5.42,2.22-2.56,4.39-5.21,5.51-8.51,1.82-6.7,8-9.14,12.71-13,1.49-1.46,3.17-3,2-5.29-.92-1.76-2.85-1.09-4.37-1.11a131.85,131.85,0,0,0-13.61.38c-8.94.82-17.57,1.52-21.3,11.87.3-1.17-.39-.18-.27-.33,2.37-3,5.26-6.44-2.09-3.82a57.89,57.89,0,0,0-15.12,7.92,53.69,53.69,0,0,1-16.43,8.22c-3.69,1.13-6.18,7.14-11.25,3.07-7.7,3.28-16.46,4.19-22.86,10.35l5.45,9.48c5,6.18,11.59,5.12,18.09,3.9,5.87-1.1,10.88-4.33,16-7.18C45.89,283.38,48.93,282,52.27,284.44Z"/><path class="cls-16" d="M376.7,133.38c2.77.94,5.6,1.75,8.32,2.84,9.56,3.85,17,1,23.72-6.4,6.52-7.19,6.05-14.92,2.68-22.83-2.48-5.79-3.86-11.44-3.32-17.82.52-6-2.19-11.48-4.84-16.78-3.4,1.21-5.54,4.06-8.2,6.24C391.16,83,386,85,380.57,86.55a14.27,14.27,0,0,0-1.77.72c-3.43,1.79-7.35,2.66-10.25,5.46a5.22,5.22,0,0,0-1,1.76c-.78,5.27,3.13,9.08,4.24,13.76,4.12,9,5.63,7,16.28,6,4.7-.46,9.14-3,14.06-2.11,2.05,1.57,4.83,1.53,7.05,2.76-2.21-1.47-5.24-1.08-7.33-2.84-6.7-.78-12.68,3-19.35,2.9-2.73-.06-1.65,2.08-.37,3.18,1.52,1.33,3.71,1.68,5.1,3.26,2.57,3.19,3.94,7.19,7.66,11.38-3.74-4-5.08-7.88-7.44-11.08-2.7-1.91-5.7-5.22-8.79-3.58-3.44,1.82-1.87,6-1.24,9.35a6.75,6.75,0,0,1-.28,4A11.6,11.6,0,0,0,376.7,133.38Z"/><path class="cls-17" d="M396.22,79.37c2.63-2,5.61-3.73,7-7-8.42-10.48-19.13-13.1-31.77-9.45-4,1.15-7.33-.08-10.78-2.54-9.12-6.49-20.18-5.21-28,2.72a8.3,8.3,0,0,0-2.62,6.79c-.67,2.52-1.41,5-1,7.68,2.13,4.65,4.35,9.2,10.2,10.06,9.9-4,18.54-1.82,26.24,5.27a2.51,2.51,0,0,0,3.14.45l-.09.07c2.91-3.39,7.16-4.11,11.05-5.54l-.08,0C385.53,85.84,391.29,83.39,396.22,79.37Z"/><path class="cls-18" d="M376.67,305.18c2.24-8.3,0-16-2.74-23.8-2.19-6.21-7-9.32-12.66-11.41-3.8-1.4-7.77-2.39-11.66-3.56h-1.24c-12.81-1.19-25.73.81-38.53-1.27-1.8-.29-4.28-.15-4.38,2.87l0-.06c1.12,2.7,2.84,5.24,3.39,8.08,2,10.42,9.17,14.94,18.64,17.16,8.82,2.08,17.95,2.6,26.63,5.35a51,51,0,0,1,15.13,5.28C371.47,305,373.78,307,376.67,305.18Z"/><path class="cls-19" d="M186.05,526.43c1.34-1.54,1.1-3.43,1.07-5.24a544.68,544.68,0,0,1,2.81-59.49c-1.28-1.46-1.06-3.42-1.66-5.1-2-5.48-4.48-6.1-9.33-2.35-1,2.08.36,3.44,1.48,4.88,1.79,2.3-1.29,1.45-1.59,2.42a2.47,2.47,0,0,0-.13,1.83c3.05,2.69,4.91,5.7,2.58,9.8.74,5.18-2.45,4.71-5.81,4.07-3.8-.73-7.49-3.32-11.5-.72-3.25.79-3.75,3.56-4.45,6.2q-6,22.53-12,45a4.82,4.82,0,0,1,4.43-.5c14.78,4.8,22.8,2.2,31.39-9.84.34-.47,1.06-.67,2.16-1.32C185.7,519.85,185.88,523.14,186.05,526.43Z"/><path class="cls-20" d="M216,372.28c0,5.86-.09,11.71.06,17.57a6.87,6.87,0,0,0,3.09,5.85c5.1,3.14,6.29,8,6.44,13.49a29.94,29.94,0,0,0,4.19,14.26l.77-.65c1.53-4.25,1.92-8.79,3.57-13,3.3-8.43,5.92-17.16,14.8-21.89,2.35-1.25,3.71-3.91,5.32-6.09,4.42-5.72,4.82-14.37-.11-19.21-5.22-5.13-4.14,3-6.51,3.32.67-3.54,5.39-5.5,5.43-10a8.08,8.08,0,0,0-.42-1.89c-1.59-3.43-2.78-7-4.32-10.49s-3.38-3.87-6-1.33A11.7,11.7,0,0,0,241,343.7a19.83,19.83,0,0,1-5.81,6.57A54.12,54.12,0,0,0,216,372.28Z"/><path class="cls-21" d="M328.56,317.33l7,2.84c7.42,3.62,15.26,6.39,22.15,11.05l-.05,0c3.38,2.05,6.76,4.11,10,6.41,1.23.88,2.55,2,4,.24-1.31-11,2.83-21.07,5.05-31.47-7.44-3-14.35-7.39-22.43-8.78a158.55,158.55,0,0,0-15.93-3.17c-8.47-1.14-16.84-2.85-25.61-8.84,1.42,8.62-.7,16,5.36,21.72C321.86,310.31,325,314.05,328.56,317.33Z"/><path class="cls-22" d="M211,134.29a5.33,5.33,0,0,0-4.59-2.23c-6.76,4.19-12.83,9.14-17.39,15.76a26.43,26.43,0,0,0-3,5.32c-.7,1.44-1.43,3-3.37,2.93a2.76,2.76,0,0,1-2.59-1.89c-.85-2.32,1-3.22,2.43-4.31,1.8-1.41,3.79-2.75,4.17-5.17.31-2-1-4.72-2.69-2.87-5,5.42-8.73.81-12.9-.78a3.15,3.15,0,0,0-2.07,1.89c-.74,2.8,5.14,4.67,1.1,7.93a20.78,20.78,0,0,0,.3,13.77c5.23.7,1.88-5.33,5-6.22,2.64,4.36,2.64,4.36-2.31,9.92-1.85-.56-.91-3.58-3.21-3.72-3.28,2.14-4,5-2.4,8.5a5.79,5.79,0,0,0,4.91,1.47c2.91-.16,6.67-5.65,8.42,1.38a26.12,26.12,0,0,1,2.68,4.93c2.82,4.22,5.79,8.23,11.74,7.62a5.75,5.75,0,0,1,.54-.44c7.57-.4,14.79,1.42,22,3.42,1.6.44,3.36,2.58,4.88.64,1.35-1.71-.67-3.32-1.34-4.9-5.87-13.76-5.88-13.75-23.31-13.32,2.81-.16,5.61,0,8.42-.13a8.33,8.33,0,0,0,8.3-8.54c0-3.65-1-7.23-.74-10.89C211.61,147.87,213.31,140.79,211,134.29Z"/><path class="cls-23" d="M244.76,435.76c8.33,2.81,16.6,1.72,24.69-.8a22.31,22.31,0,0,1,11.29-.94c4.25-1.93,6.6-5,7.45-9.81.5-2.85.47-6.38,4.05-8.26,2.27-1.2.69-3.12-.49-4.57-7.85-9.59-16.08-18.83-25.56-26.88a4,4,0,0,0-2-.4c-3.44,1.69-1.81,4.42-.83,6.37,1.74,3.46,2.32,7.21,3.55,10.78a288.63,288.63,0,0,1,7.77,28.1c-.32,1-1.88.1-1,.19.21,0,.33-.05.32-.2-.26-9.66-4.93-18.24-6.72-27.52-1.66-2.8-1.64-6.17-3-9.07-2-1-3.56-.21-5,1.08-4.34,6.94-4,15.21-6.42,22.72-1.75,5.53-1.31,11.72-5,16.66C246.76,434,245.5,434.55,244.76,435.76Z"/><path class="cls-24" d="M261.72,334.06c9.79-6.7,9.9-15.7.1-22.63-2.5-1.77-3.77-3.78-3.56-6.8.62-8.72-4.74-15-8.85-21.85l-1.06.12c-3.63-.32-7,1.06-10.57,1.5-2.61.32-4.61,1.73-4.56,4.82,1.36,5.28,6.73,4.29,8.92,6.24-4.54-.73-5.41,0-4,5.58,2.25,8.72,5.55,17,11,22.2-2.85-3.19-6.62-7.9-8.45-13.72-1.58-5-3.81-3.32-6-.69a40.1,40.1,0,0,0-4.13,6.26c1.4,9.48,7.71,15,15.68,18.91a27.7,27.7,0,0,0,9.78,2.86C258.43,336.88,260.47,336.26,261.72,334.06Z"/><path class="cls-25" d="M176.3,105.74c-8.18-3-11.59-9.67-13.4-17.61-2.88-12.66-5.46-14.72-18.49-15.55a34.06,34.06,0,0,1-5.27-1.16,3.8,3.8,0,0,0-1.33,3.71c2.29,8.87,1.47,18.15,3.7,27a11.89,11.89,0,0,0,1.88,3.95c3.69,5.26,7.89,10,13.8,12.9a15.54,15.54,0,0,1,6.93,7.3c1,2,1.84,4.27,4.59,4.58,3.85-3.72,4.28-8.8,5-13.6A65.08,65.08,0,0,1,176,106.73Z"/><path class="cls-26" d="M411.41,236.69l-.45-6.17c-5.35-2.74-11.28-3.93-16.82-6.19a22.64,22.64,0,0,0-15.35-1.3c-3.38.93-4.84,2.63-1.85,5.76,3.17,3.32,6.32,6.64,10.87,8.09a23,23,0,0,1-9.08-6.15c-1.34-1.41-2.68-3.95-4.92-3-3,1.29.7,3.82-.59,6.15,1-11.88-8.51-11.14-15.36-13.52-6.71-1.63-13.25-2-19.19,2.4-2.32,4.64,2.3,6.27,4,9.17,7.43,5.92,15.74,9.24,25.36,8.39,10.17-.9,20,1.23,29.84,3.11C408.32,245.46,410.08,244.27,411.41,236.69Z"/><path class="cls-27" d="M290.14,412.15c1.35,1,4,2.21.72,3.53a6.65,6.65,0,0,0-3.89,5.57c-.19,5.41-3,9.09-6.23,12.77,8.21,3,16.21-.95,18.78-11,2.86-11.27,2.93-22.55-7.35-31.26-3.9-3.3-8.2-6.7-8.87-12.47-6.63-6.31-15.09-10-22.25-15.58a10.69,10.69,0,0,0-1.74-1c-3.67-1.24-6-.89-4.06,3.78,2.75,6.5,1.83,15.11,10.35,18.37l-.05,0c7.81,6.18,14.25,13.77,21.24,20.8A13.83,13.83,0,0,1,290.14,412.15Z"/><path class="cls-28" d="M342.66,232l-4-8.27c-3.46-5.55-3.3-12.92-8.76-17.46-3.41-5.32-7.43-6.12-12.17-1.65-5.32,0-6.08,5.15-8.94,7.68a52.79,52.79,0,0,1,7.58-9c1.17-1.89,4.22-1.7,4.88-4.31-9.56-5.33-18.84-1.08-28.06.82-1.67.34-2.79,3.29-4.17,5-4.61,4.26-5.42,9.26-2.91,14.91,12.22.74,24.43-.9,36.71,2.29A55.45,55.45,0,0,1,342.66,232Z"/><path class="cls-29" d="M144.6,105.49l-1.29-2.1a28.84,28.84,0,0,1-2.77-13.84c.29-6.69-2.56-12.89-2.81-19.47-6.14-6.94-10.31-7.72-17.14-1.74A23,23,0,0,1,102,74.26c1.81,7,7.21,11.81,11,17.61,1.35,2.08,3.36,3.73,4.2,6.18a7.07,7.07,0,0,0,1.14,1.62c.18.15.37.4.55.4,7.4-.25,13.51,2.89,19.19,7.21C140.38,107.18,143.58,110.27,144.6,105.49Z"/><path class="cls-20" d="M260.22,394.46l3.68-1.36c0-3.49-1.55-6.66-2.17-10-1.12-6.16-3.84-6.28-8.92-1a10.78,10.78,0,0,1-4.25,5.29c-12.06,8.76-15.68,21.83-18.34,35.43l-.49.68c3.37,6.1,8,10.62,15,12.31l4.32-.1c3.45-12.39,5.92-25,8.86-37.52C258.3,396.59,258.19,394.91,260.22,394.46Z"/><path class="cls-30" d="M195.27,472.7c-2.43,11-.43,22.06-.92,33.08,9.79-11.32,23.94-13.92,37.17-17.41,17.09-4.51,34.16-9.57,51.86-11.5,1.32-.14,3.13-.11,2.37-2.17-.61-1.64-1.53-3.23-3.95-3-16.3,1.48-32.58,3.17-48.38,7.6-9.46,2.66-19.17,3.81-28.78,5.5C197.62,486,195.77,483.21,195.27,472.7Z"/><path class="cls-27" d="M283.28,378c1.45-3.31,3.35-6.5,4.26-10,2.25-8.56-.63-14.17-9.69-20.15-8.88-3.08-17.34-7.35-26.64-9.21a6.35,6.35,0,0,0-2,0c-3.23,1.47-1.53,4-.82,5.76,1.34,3.35,2.11,6.88,3.49,10.2l0,0c0,5.63,4.44,7.39,8.3,9.67l-.05,0C268,368.44,275.06,374.18,283.28,378Z"/><path class="cls-31" d="M118.5,99c0-.38,0-.75.07-1.13-7.41-7.16-11-17.46-19.39-23.79-5.42-2.32-10.76-4.85-16.28-6.92-9.63-3.6-19.27-6-27.68,2.85l.58.77c8.07,2.47,14.94,7,21.3,12.41,7,.14,13,2.21,16.63,8.72,4.56,5.74,9.73,10.43,17.72,10.13C114.17,101.9,117.07,102.12,118.5,99Z"/><path class="cls-32" d="M339.88,86.62c-4.85-.84-6.4-5.56-9.68-8.25-5.26,5.51-9.77,11.84-16.72,15.52-2.47,1.31-4.82,2.67-5.18,5.84-.27,3.71,2.4,6.64,2.65,10.21l0-.07c2.21,5.17,1.83,10.75,2.54,16.16l.54.75a36.22,36.22,0,0,0,10.86-12.19c5.22-10.2,13-14.94,24.57-12.88.73-1.29.06-2.41-.42-3.56A26.67,26.67,0,0,0,339.88,86.62Z"/><path class="cls-33" d="M292.94,328.6c-2.79,10-2.15,12,6.14,16.79a20.9,20.9,0,0,1,8.95,10.7c.19-.21.37-.44.54-.66.1-9.54,4.67-17.94,6.87-26.94,1.9-7.78,0-15.35-.72-23-.25-2.55-2.42-2.19-4.1-.7-4.21,3.75-9,6.79-11.48,12.39A53.78,53.78,0,0,1,292.94,328.6Z"/><path class="cls-34" d="M301.35,254.42c1.3,2.62,3.12,5.06,2.63,8.24.06,2.81,2,3,4.18,3.27,13.54,1.94,27.13,1.48,40.72,1.05.25-.19.49-.37.73-.57-1.68-2.15-3.38-4.28-5-6.44-9.46-12.34-17.42-14.78-34.9-8.66C306.88,252.29,304.12,253.38,301.35,254.42Z"/><path class="cls-35" d="M88.27,690c-4.55,4.42-2.12,10.07-2.7,15.19a5.18,5.18,0,0,0,3.67,1.5c8.81-.72,16.24,4.11,24.4,5.92,6,0,12,.23,18-.11,1.11-2.74-2.19-6.53,2-8.57-3.23-2.86-8.47-1.79-11.13-5.74a9.05,9.05,0,0,1-1.63-1.23c-5.86-6.45-6.65-6.37-11.66,1.26a32.33,32.33,0,0,1-3.34,4.21c-5.81,2.28-4.78-1.46-4.21-4.77a26.07,26.07,0,0,1,1.45-3.29c.89-2.4,3.79-3.25,4.48-5.8a9.19,9.19,0,0,0-1.38-5.43C100.65,686.55,93.91,686.83,88.27,690Z"/><path class="cls-36" d="M272.41,261.06c-3.77-5.9-11-7.82-15.17-13.31-4.1-1.93-7.51-5.31-12.24-5.95a2,2,0,0,0-2.65-.11l-4.18,1.45c-3.92-1.62-5.85.89-7.64,3.68a3.82,3.82,0,0,0,.13,2c8.24,4.65,13.21,12.56,19.23,19.41,2.17,2.46,4.44,3.8,7.71,2.82,4.41-.63,7.23-3.7,10-6.71C269,262.85,269.91,260.85,272.41,261.06Z"/><path class="cls-37" d="M211.93,323.16q0,.54.06,1.08c2.89,6.43,7.31,12.23,8.09,19.54.9,7.91-1.53,15.47-2.48,23.19.23,0,.61.19.65.12,6.18-9.68,17.38-14.24,24-23.51l0,0c.74-2.14,3.93-3.15,2.86-6.15-7.88-6.43-15.7-13-26.22-14.72C216.5,322.29,214.1,320.79,211.93,323.16Z"/><path class="cls-38" d="M257.6,271.06c-2.45-.39-4.65-.79-6.13-3.4-2.86-5-8.09-8.19-10.6-13.79-1.6-3.56-6.5-3.6-9.93-5.19-2.23-1.29-3.54,0-4.69,1.68a4.7,4.7,0,0,0,.84,5.25c2,5.63-.87,11.85,1.32,15.66-1.58-3.54-.29-9.13-.69-14.55-3.08-.22-3.24-.28-4.44,3.08-1.7,4.76-3.48,9.41-7.24,13a3,3,0,0,0-.46,2c1.84,3.42,4.12,6.37,8.19,7.29l.84-.61c8.5-3.48,14.49-13.48,25.86-9.73C252.62,272.43,255.38,272.86,257.6,271.06Z"/><path class="cls-25" d="M171,141.42c4.34,5,8.75,9.12,14.44-1,.43,6.32-3.31,7.25-5.59,9.33-1.17,1.06-4.19,1.38-2.83,3.8,1.16,2.07,3,4.32,5,5.17,1.64.68,3.82-1.17,4.79-3.12,1.22-2.45,2.23-5,3.33-7.49,1.28-3.92,3.19-7.79,1.14-12-2.32.74-3.16,5-5.88,3.62-2.51-1.25-2.19-4.7-2.26-7.39-.12-4.08-.48-8.22,0-12.25.8-6.45-1.78-10.93-6.93-14.33l-.62.5c-3.19,6.16-2,13.36-4.73,19.65-.89,2.06-.68,4.55-2.46,6.29C167.33,135.81,167.39,139.11,171,141.42Z"/><path class="cls-39" d="M217.67,89.76c-5.18-3.35-4.45-10.21-8.48-14.24-8.64,9.45-5.58,30.32,5.81,39.31,1.59,1.25,3.34,2.3,5,3.45,1.33-2.27,2.87-1.87,4.5-.35.41,2.12,2,2.69,3.84,2.85,2.89-.2,4.14-1.86,3.5-4.57-.88-3.7-1.4-7.8-5.6-9.51-2.61-1.06-5.38-1.75-8-2.71,2.57.33,5.42,3.16,7.49,1.16,2.25-2.16-.52-5-1.17-7.53C222.71,94.6,221.67,90.88,217.67,89.76Z"/><path class="cls-40" d="M67.81,722c1.78-9.15-4.38-15.95-7.06-23.78a2.14,2.14,0,0,0-1.7-.69c-4.57,2.52-3.59,5.45-.81,8.35-2-1.38-2.33-3.94-3.33-6.17-2.08-4.65-5.44-5.25-9-1.57-2,2.1-3.83,4.46-5.67,6.76-.63,4.64-4.05,8.92-1.77,13.92,6.41,8.59,15.17,9.56,24.74,7.46C65.34,725.84,68.51,725.83,67.81,722Z"/><path class="cls-41" d="M3.25,278.88c7.24-2.75,14.58-5.27,21.67-8.36,4.47-1.94,5.51-.56,4.69,2.65,12.5-10.35,28.16-15.92,42.89-25.45-.91,4.76-5.08,5.41-5.5,8.8,2.64.23,4-1.75,4.89-3.27,6.21-10.46,16.72-10.39,26.84-11.32,2-.18,4.13.11,6.18-.06,5.83-.46,5.47,1.84,2.51,5.41l.73.62c7.9-4.29,15,1,22.55,1.76,1-.36,1.76-.88,1.5-2.12C126,244.65,119,243.43,113.7,239c-3.16-2.66-3.11,2.09-5.8,1.65-10-1.62-19.85.51-29.77,2.15-5.81,1-11.64-2.1-17.06-4.34-11.29-4.67-23-4.93-35-3.64,16.55.49,32.6,3,48,10.77a195.9,195.9,0,0,0-27.83,15.18c-6.9,4.6-14.69,4.74-22.26,2.35a67.57,67.57,0,0,0-22.21-3.37,2.47,2.47,0,0,0-1.2,2.67c2.16,2.33,5.05,1.9,7.72,1.85,5.32-.09,10.36,1.15,16.22,2.73C18.35,269,13.11,271,7.89,273.07c-2.12.83-5.17,1.09-4.94,4.61A1.87,1.87,0,0,0,3.25,278.88Z"/><path class="cls-42" d="M52.27,284.44c-.74-5.46-3.87-4.65-7.27-2.67-6.11,3.56-12.06,7.47-19.12,8.94-6,1.24-11.78.85-17.18-2.35,0,3.71-.09,7.42-.14,11.12,5.4,2.69,34.05,3.92,39.53,1.71,3-2.49,1.33-5.88,1.67-8.86C50.09,289.51,49.12,286.34,52.27,284.44Z"/><path class="cls-43" d="M288.89,203c-.28-1.46,1.45-2.77-.09-4.44-4.76-5.2-17.93-4.57-22.23,1.15a4,4,0,0,0-.69,3.84c2.36,7.08,1.87,14.25.9,21.46l18.2-4.93C285.58,214.2,286.28,208.37,288.89,203Z"/><path class="cls-44" d="M292.94,328.6c2.53-.82,3.12-3.26,4-5.23a42.92,42.92,0,0,1,15.89-18.75c4.26,13,1.92,25.32-2.53,37.49-1.6,4.37-2.64,8.69-1.75,13.32L316,329.65c1.06,16.78,7,30.49,10.75,44.79l1.59-.42c-2.68-9.84-5.38-19.68-8-29.53-1.28-4.73-2.11-9.52-1.34-14.45l.46-.4c-1.11-7.23-5.09-14.25-1.57-21.81a1,1,0,0,0,1.69-.12c-4.73-5.55-5.1-12.33-5.94-20.18,13.27,7.85,27.72,7.53,41.33,10.73.33-.29.44-.59.32-.88s-.23-.44-.34-.44c-6.87-2.43-14.11-3.05-21.22-4.33-11.54-2.07-22.33-5-24.86-19a8.27,8.27,0,0,0-3.39-5.7c0,.45,0,.91,0,1.36.37,4.2,5.59,8.31,2.79,11.82-2.34,2.93-7.6,3.62-11.64,5.11-6.93,2.55-11.44,7.8-14.95,14.31,1.78-1.73,3.61-3.4,5.32-5.19a28.68,28.68,0,0,1,10.57-7.19c14.14-5.47,14.32-5.48,15.88,9.65.21,2.07-.28,3.78-1.93,4.76-9.07,5.4-13.39,14.52-18.37,23.13C293.06,326.67,293,327.63,292.94,328.6Z"/><path class="cls-45" d="M55.22,70c-.66.61-1.73,1.12-1.9,1.85-2.53,11-11.73,15.12-20.23,20a37.18,37.18,0,0,0,20.61,4.5c3.74-.86,7.35-2,10-5.08,1-1.21,2.64-2.41,4.12-1.9,7.39,2.55,7.81-1.77,7.35-7.13C70.69,75,63.09,72.94,55.78,70.39Z"/><path class="cls-46" d="M60.87,664.33c-4.56-.15-9.19-1.43-13.61.81-4.13,1-4.8,5.08-6.87,7.91-2,5.48-1.58,11.18-1.53,16.85,6.24,4,12.8-.5,19.24.66,2.16.38,1.89-2.55,2-4.33.32-5.17-.74-10.41.66-15.54Q60.82,667.51,60.87,664.33Z"/><path class="cls-47" d="M88.27,690c5.62,1.56,10.1-3.12,15.55-2.84,2.69.13.23-3.42,2.34-4-.09-6.92,1.59-13.61,2.7-20.37-3.17-.33-6.35-.72-9.29,1-2.14-1-3.27.79-4.44,1.84-2.11,1.91-3.86,1.43-5.69-.23Z"/><path class="cls-48" d="M25.29,433c-.76,22.14-.54,44.19,2.13,66.26,1.85,15.35,1.89,30.91,3.16,46.34,1.42,17.23,3.66,34.39,4.9,51.64.83,11.58,2.4,23.11,3,34.66.54,10.22,2.63,20.4,1.5,30.7l1.23,3c1.59-.67,1.93-2.05,2-3.57-3-8.76-1.79-18-2.79-27-2.71-24.22-3.66-48.61-6.69-72.83-1.67-13.34-2.53-26.82-3-40.27-.55-16-3-31.79-3.86-47.72-.72-13.24-.28-26.54-.35-39.82C27.2,433,26.51,432.77,25.29,433Z"/><path class="cls-49" d="M261.29,188.16l-8.23,5.53c-3.56,11-6.52,22.2-6.53,33.92a3.16,3.16,0,0,0,3.2,2.68c4.89-1.23,6.4-5.62,8.15-9.42,2.32-5,5.62-9.88,5.06-15.87l-.16-.39c-2.42-5.28,1.56-10.93-.91-16.22Z"/><path class="cls-50" d="M309.56,98.9c8-3.4,12.37-11.62,20.19-15.29,3.07-1.45-.06-3.52.45-5.24q0-4.23-.08-8.46c-1.69,4.44-4.47,7.75-9.15,9.29C306.53,84,306.43,84.11,307,99A1.71,1.71,0,0,0,309.56,98.9Z"/><path class="cls-51" d="M251.84.09c-1.21,14.54,1.82,28.8,3.26,43.32-3.63-.21-4.42-4.39-7.56-4.54-1,.88-.8,2,0,2.38,8.13,4,9.34,11,8.56,19a17,17,0,0,0,.71,7.45c.51,1.43.7,4.36.26,4.53-5.69,2.1-1.21,5.37-1.11,8.08,0,.68,0,1.37.05,2l1.9,1.68c2.24-7.59,8.58-12,15.23-18.1-7.37,1.35-9.82,6.39-14.3,10.08.25-9.7-.66-18.83.55-28,.44-3.28-2.48-6-2.78-9.58-.78-9-2.22-17.95-3.24-26.94A27,27,0,0,1,254.55.08Z"/><path class="cls-52" d="M38.93,372.65c-2.68,1.18-5.52,1.18-8.37,1.18-2.93,9.24-10,16.59-12.17,26.17,10,3.22,12,2.33,14.56-7.32C34.74,385.94,38.84,379.89,38.93,372.65Z"/><path class="cls-53" d="M3,277.68c7.87-5.17,17.25-6.76,26.58-11a73,73,0,0,0-29-4.29C-.22,267.73-.71,273,3,277.68Z"/><path class="cls-54" d="M38.74,308l6.76-.14c4.94-.08,5.48-2.13,2.57-5.73-13.55-.1-27-2.87-40.59-1.51-1.48,3.17-.13,5.41,2.4,7.25,7.25-4.56,14.4,1.7,21.69.27,1.36-.27,3.06.39,4.59-.17A1.79,1.79,0,0,0,38.74,308Z"/><path class="cls-55" d="M376.7,133.38l1.94-.41c.33-5.38-1.71-10.57-1-16.1.38-2.9-3.71-4.3-5-7a5.72,5.72,0,0,0-2.48-2c-4-.87-5.89,1.28-6.91,4.74.93,3,1.81,6,2.78,9C367.86,127.07,370.26,132.05,376.7,133.38Z"/><path class="cls-56" d="M38.93,372.65c-2.55,7.66-5.28,15.26-7.56,23-1,3.46-2.74,4.74-6.23,4.34a54.3,54.3,0,0,0-6.75,0c0,.86-.08,1.73-.11,2.59,11.82.14,11.73.12,9.59,12.22-1.07,6-1.73,12.15-2.58,18.22l1.3,1.41c1.38-8.71,3.18-17.38,3.95-26.14.35-4,1.61-5.45,5.29-6.32A61,61,0,0,0,49,396.91c-4-1.18-7,1.82-10.48,2.48-1.8.34-3.79,1.16-5.31.09-2.08-1.46-.15-3.43.33-4.92,2.08-6.52,4.54-12.91,6.78-19.37,1.18-3.4,3.49-4.81,6.88-3.74,4.49,1.41,9.05,1,13.61,1a1.51,1.51,0,0,0-.52-2.07c-6.14-1.8-12.28-3.56-18.6-.73C40.77,370.64,39.85,371.65,38.93,372.65Z"/><path class="cls-57" d="M30.8,103.06c5.5-.43,10.74,2.38,16.29,1.25,6.85-4,7.45-4.7,7.51-8.76-4.26-.09-8.53.21-12.65-1.35a18.33,18.33,0,0,0-11.18-.5C28,96.83,26.32,100,30.8,103.06Z"/><path class="cls-58" d="M220.08,343.78c2.35-8.6-3.08-14-8.09-19.54-1.48.21-3.17-.24-3.91,1.81-1.51,4.16,2.54,15.05,6.66,17.62Z"/><path class="cls-43" d="M262.94,205c-4.16,8.15-6.07,17.48-12.57,24.44a1.71,1.71,0,0,0,2.68,0l12.64-4.28C264.7,218.44,267.32,211.24,262.94,205Z"/><path class="cls-59" d="M261.72,334.06l-6,1.4c-1.77,1.05-4.26.41-5.62,2.4a1.31,1.31,0,0,0,.31,1.6h0a112,112,0,0,1,18.69,5.62c2.23.84,4.43,2.48,7.09,1.37C277.27,335.42,268.92,335.42,261.72,334.06Z"/><path class="cls-60" d="M40.24,704.93c3.49.31,4.44-2.63,6-4.74,3.35-4.56,5.77-4.2,8.07,1,1.32,3,1.91,7.45,8.81,5.85-6.58-1.83-7.25-4.88-3.83-8.91,2.13-3.34-.12-5-2.6-6.3-4.78-2.5-12.2-.78-16.49,3.61A8.12,8.12,0,0,0,40.24,704.93Z"/><path class="cls-61" d="M363.28,112.61c1.85-1.88,3.57-4,6.53-4.07a15.15,15.15,0,0,0-21.65-9.36l1.26,2.53a15.83,15.83,0,0,0,8.19,5.66A7.41,7.41,0,0,1,363.28,112.61Z"/><path class="cls-62" d="M40.18,695.44c5.2-2.48,10.53-3.61,16.28-2.05,2.7.73,3.9,2,2.81,4.74l1.48.12q0-13.77,0-27.56c-2.65,4.22-1,8.87-1.25,13.31-.17,3.6.06,5.75-5.12,4.91-5-.8-10.34.57-15.53,1A8.86,8.86,0,0,0,40.18,695.44Z"/><path class="cls-63" d="M214.66,37c3.18,5,6.56,9.83,9.49,14.95,4.74,8.3,12.34,11.73,21.48,12.75-3.41-1.63-6.88-3.14-10.21-4.9A22.34,22.34,0,0,1,224.52,48,26.12,26.12,0,0,0,215,35.78,1.16,1.16,0,0,0,214.66,37Z"/><path class="cls-64" d="M109.81,699.83c.64-.54,1.72-1,1.86-1.62,1.23-5.58,3.51-6.61,7.33-1.9a4.31,4.31,0,0,0,3.45,1.83c-2.37-7.23-8.46-8.71-14.91-9.62-2.5,1.36-5.69,2-5.89,5.75.37,1.28,3-1.25,2.31,1.09-1.18,4.09-1.25,6.2,3.69,3.41C108.68,698.19,109.22,699.2,109.81,699.83Z"/><path class="cls-65" d="M67.81,722c-6.6,6.56-21.34,5.13-26.42-2.57-1.39-2.1-1.39-2.1-2.92-.61,5.49,9,18.14,12.69,27.61,7.89C67.8,725.87,70.78,724.88,67.81,722Z"/><path class="cls-66" d="M249.41,282.78c-3.6-4-8-4.54-12.9-2.94-3.88,1.27-7.77,2.26-11.9,1.61l-.52.48a1.82,1.82,0,0,0,.8,2c8,4.31,15.85-.35,23.78-.54C248.93,283.21,249.17,283,249.41,282.78Z"/><path class="cls-67" d="M242.21,343.58c-8.06,7.95-18.54,13.34-24.61,23.39L216,372.28c7-10.75,17.91-17.77,26.11-27.38C242.3,344.62,242.17,344,242.21,343.58Z"/><path class="cls-68" d="M137.73,70.08c-.39.54-1.23,1.23-1.1,1.59,3,8.59,1.86,17.77,3.88,26.49a8.74,8.74,0,0,0,2.8,5.22l-4.17-32Z"/><path class="cls-69" d="M89.44,665.33c.8,1.58-.58,3.57,1,5.17,3.63-1.45,6.22-4.31,9.1-6.77-2.32-4.39-6.09-3.12-9.69-2.48C89.73,662.61,89.59,664,89.44,665.33Z"/><path class="cls-70" d="M7.48,300.57c13.56-.24,27,3,40.59,1.51a3,3,0,0,0,0-.89c-13.2-.1-26.28-2.81-39.53-1.71Z"/><path class="cls-71" d="M283.28,378c-7.12-5.64-14.49-10.87-23.22-13.79,6.92,6.3,14.87,11,23.24,15.08A1.74,1.74,0,0,0,283.28,378Z"/><path class="cls-72" d="M99.18,74.05c7.27,7.27,10.61,17.74,19.39,23.79C113.88,89.4,107.78,82,102,74.26Z"/><path class="cls-73" d="M276.24,346.44c-8.57-2.44-16.49-7.26-25.78-7,9.16,2.68,17.49,8.11,27.39,8.41Z"/><path class="cls-74" d="M113.06,711.85a70.41,70.41,0,0,0-27.49-6.71c.08,1.67,1.19,2.7,2.62,2.5,9-1.25,16.42,4.33,24.84,5.51.48-.28.64-.56.49-.85S113.22,711.85,113.06,711.85Z"/><path class="cls-75" d="M247.55,228c-.81.88-1.62,1.77-2.44,2.65.17,4-1.17,7.55-2.76,11.07l2.65.11c.89-5.29,5.46-8.19,8.05-12.37h-2.68A3,3,0,0,1,247.55,228Z"/><path class="cls-76" d="M30.77,93.7C39,94.06,47,97.09,55.3,96.31c.72.08,1.44-.19,1.45-.88s-.68-.94-1.39-.72c-7.7,1.19-14.72-2.9-22.27-2.89Z"/><path class="cls-77" d="M43.26,662c-1.49.73-1.6,2.25-2,3.57q-.42,3.72-.83,7.44c3.83-1.3,4.59-5.26,6.87-7.9C47.63,661.91,45,662.52,43.26,662Z"/><path class="cls-78" d="M354.89,296.94c0,.44,0,.88,0,1.32,7.52,2,14,6.84,21.75,8.1a1.26,1.26,0,0,0,0-1.18C369.31,302.71,363,297.53,354.89,296.94Z"/><path class="cls-79" d="M133.58,703.88c-1.37-.19-2.76-.22-3.68,1-1.13,1.52-4,2.5-2.94,4.73s3.49,1,5.37.63a1.23,1.23,0,0,0,1.12-1.13C135.41,707.42,134.53,705.65,133.58,703.88Z"/><path class="cls-80" d="M133.45,709.12c-.75,0-1.17.34-1.12,1.13-6.19,3.3-12.87.81-19.27,1.6,0,.44,0,.87,0,1.3,6.49,0,13,.25,19.47.07C137.06,713.09,134.62,710.84,133.45,709.12Z"/><path class="cls-81" d="M309.56,98.9,307,99c-.55,2.25-1.09,4.51-1.64,6.77,4.79-2.54,3.41,3.2,5.6,4.17C311.64,106.11,309.6,102.63,309.56,98.9Z"/><path class="cls-82" d="M371.61,337.83c-5.48-.49-8.46-6.23-14-6.65,4.54,3.82,8.37,9,15.38,8.1Z"/><path class="cls-83" d="M288.89,203A22.52,22.52,0,0,0,285,220.05a2.71,2.71,0,0,0,1.14-.32A44,44,0,0,1,289,204.82C289,204.21,288.94,203.59,288.89,203Z"/><path class="cls-84" d="M211,134.29c.43,6.59.29,13.24,2.35,19.63a2.06,2.06,0,0,0,.05-2.84c.16-5.47.08-10.91-1.46-16.23A1.05,1.05,0,0,0,211,134.29Z"/><path class="cls-49" d="M250.65,187.38a5,5,0,0,1,1-.78q0-4.68.08-9.36c-2.75-2.18,0-6-2.45-8.25-2.8,3.1-2.69,6.3-.38,9.6C251.72,181.09,249.79,184.5,250.65,187.38Z"/><path class="cls-85" d="M169.51,362.86q-2.16-5.6-4.33-11.2c.82-2.49-1.18-4.12-1.89-6.15-3.51-5.79-5.24-12.35-7.9-18.51a19.53,19.53,0,0,0-3.3-4.8c-3.05-2.14-5.33-2-6.76,1.94-1.75,4.89-4.31,9.45-6.2,13.69,1-4.86,5.88-8.9,5.53-14.86a2.47,2.47,0,0,0-1.82-.31c-4.75,3.25-10.12,4.9-15.72,5.93a12.69,12.69,0,0,0-1.92.53C111.21,332,97,333.5,83,336.71a7.72,7.72,0,0,0-1.89-.48c-6.8,4.63-8.78,12.19-11.48,19.26a20,20,0,0,0-1.27,3.85c-.31,3.08.73,6.15,0,9.24s1.24,4.92,3.41,6.58c1.87,4.3,3.08,9.09,5.79,12.78C81,392.51,82.24,400,90.87,398.75c3.64-.54,4.73,4.68,8.27,5.31.51.78,1,.79,1.59,0,7-.47,13.93-.09,21.08-2.18,4.25-1.25,4.12-5.49,7.61-6,7.44-4,15.45-6.74,23.09-10.2,8.77-4,14.34-11.67,17.51-20.88A2.91,2.91,0,0,0,169.51,362.86Z"/><path class="cls-86" d="M69.58,545.54c-8.14,4.1-15.73,4.92-23.38,5.57-1.62.14-4.09-.48-4.33,2.13-.17,1.89,1.78,2.42,3.16,3.14C54,561,64.88,556.71,69.58,545.54Z"/><path class="cls-87" d="M71.82,375.16c-1.53-3.1-3.66-5.93-1.64-9.82,1-2,.24-4.42-1.18-6.35-2.12-2.43-4.55-2.33-7.13-.84-3.47,1.17-7.79-1.74-10.67,2.25,1,3.53,1,3.83,6.11,4.12,5.43.3,6,2.55,3.49,6.7v1.21c2.63,3.95-1.28,7.22-1.32,11.15,3.29-3.87,6.65-11.6,7.33-17.34C68.52,369.77,66,375.15,71.82,375.16Z"/><path class="cls-88" d="M100.73,404.1l-1.59,0c-2.65,11.19-.29,22.72-2.43,34-.79,4.17-.83,8.57-1.83,12.78,5.7-3.71,3.32-10,4-14.9C100.37,425.46,100.21,414.73,100.73,404.1Z"/><path class="cls-89" d="M84.25,443.64c-6.43-5.84-14.43-7.34-22.53-8.57Z"/><path class="cls-90" d="M81.72,447.88,60.9,443.94C67.06,448.44,74.38,447.7,81.72,447.88Z"/><path class="cls-91" d="M81.31,453.4a25,25,0,0,0-11.24,4.1c5.37,1.13,8.51-3.08,12.67-2.67C83.05,453.57,82.76,452.92,81.31,453.4Z"/><path class="cls-92" d="M81.31,453.4l1.43,1.43,10-3.66A19.18,19.18,0,0,0,81.31,453.4Z"/><path class="cls-93" d="M144.64,409.45c10.49,2.56,15.32,12.47,23.44,18.09,8,1.1,13.09-4.13,18.46-8.7,1.77-2.37,4.62-4.29,3.42-7.94l-.47-.42c-2.93-7.85-8.54-13.78-14.11-19.75-1.19-1.28-2-3.6-4.09-3s-1.84,2.88-1.88,4.67c-.18,8.63-.82,17.24-1.35,25.86.49-8.23,1.05-16.45,1.27-24.69.06-2.21.66-5-1.78-6.19-2.82-1.43-5.38.27-7.47,2-4,3.4-7.05,7.74-10.14,12-1.63,2.23-3.85,3.87-5.43,6.11A1.84,1.84,0,0,0,144.64,409.45Z"/><path class="cls-10" d="M144.64,409.45c0-.41,0-.82,0-1.24a160.6,160.6,0,0,0,12.9-15.74,13.72,13.72,0,0,1,5.84-4.44c10-4.51,12.36-14.49,5.87-24-5.66,11.24-12.73,20.66-26.19,23.49-5.22,1.09-10.4,3.42-13.63,8.34C131.38,404.49,135.37,408.06,144.64,409.45Z"/><path class="cls-94" d="M185.89,418c-5.36,4.26-11.09,7.82-17.81,9.55-.83,8.38-2.9,16.63-2.81,25.11a38.69,38.69,0,0,0,10,.26,2.53,2.53,0,0,0,1.52-1c1-2.71,3.85-4.56,3.8-7.79.54,3.72-4.09,5.46-3.56,9.17a2.49,2.49,0,0,0,2.27,1.56c4.07-3.45,6.52-2,7.77,2.67.48,1.78,1,3.41,2.89,4.15q.66-4.14,1.34-8.26c-1.18-9.89-3.38-19.64-4.21-29.59C186.9,421.85,187.4,419.72,185.89,418Z"/><path class="cls-95" d="M115.27,548.07c13.19,6.21,21.08,3.5,24.25-7.44.43-1.49,1.42-3.24-.11-4.43-1.25-1-2.56.38-3.7,1C129.12,540.62,122.57,544.16,115.27,548.07Z"/><path class="cls-96" d="M164,476.53c5.11,1,10.19,2.2,15.32,3,1.94.31,4.23.31,5.27-2.08,1.25-2.82-1.79-3.18-2.8-4.71-5.78-4.33-12-6.16-19.16-3.84C162.07,471.65,159.37,474.75,164,476.53Z"/><path class="cls-97" d="M126.15,440.38c-9.94-3.44-17.23,2.56-25.11,6.55C109.86,446.46,118.33,444.74,126.15,440.38Z"/><path class="cls-98" d="M164.87,460.33l.49,3.89c2.94.48,2.18-1.87,2.58-3.36.26,2.16.45,5,3.06,4.93,3-.1,2.15-3.13,1.63-4.77-1.24-3.86,3.33-.61,3.19-2.84a6,6,0,0,0-.85-6.24,12.28,12.28,0,0,0-9.7.71Q165.06,456.49,164.87,460.33Z"/><path class="cls-99" d="M125.45,453.34c-7.31-4.23-14.4-4.95-24.82-2.92C108.94,450.93,117.41,450.05,125.45,453.34Z"/><path class="cls-100" d="M206.52,600.49c-1.56,4.82.9,9.14,1.75,13.65.36,1.93,1.91,4.15-.67,5.4a4.73,4.73,0,0,1-6.55-1.94c-1.74-3.16-3.62-6.52-4.17-10-1-6.51-4.65-7.94-10.38-7a26.22,26.22,0,0,1-4.76-.11c-6.32.94-12.67,1.71-18.34,5.08-9.82,5.83-10.77,19-1.52,25.61,6.55,4.69,13.8,8,22.05,8.56,16.91,1.07,33.8,1.3,50.67-.47a34.84,34.84,0,0,0,15.91-5.92c5.51-3.69,6.47-8.38,3.28-14.22-4.53-8.32-12.6-11.89-21-14.09C224.24,602.76,215.3,601.94,206.52,600.49Z"/><path class="cls-101" d="M228.85,698.35c6.26,0,13.92-5.48,15.69-11.36.93-3.11-1-3-2.95-2.43-6.23,1.77-12.62,1.3-19,1.27-5.17,0-6,2-3.51,6.14C221.36,695.6,224.24,698.32,228.85,698.35Z"/><path class="cls-102" d="M254.49,82.45c-6.72-3.23-11.71-8.49-16.9-15.58-4,11.26-.57,23.09-7.76,32.05l-.77.79c-2.67,8.69,2.78,15.5,5.3,23a7.88,7.88,0,0,0,3.9,2.26,6.84,6.84,0,0,0,7.7-3.51c4-6.62,4.77-14.17,6.13-21.53a36.25,36.25,0,0,1,2-7.9c.5-1.3,1.14-2.6.45-4Z"/><path class="cls-103" d="M244.62,120.9c-1.54,2.95-4.36,2.86-7.09,3,.11,4.59,3.3,7,6.61,9.29,3.73,1.82,7.78,2.85,11.5,4.72a1.64,1.64,0,0,0,1.68-.63c-.34-2.65,1.06-4.8,2.14-7,3.67-7.47,7.41-14.89,2.08-23.15l0,0c-4.07-4.91-2-11.25-3.86-16.7-.59-1.73-.26-3.87-3.09-2.37l-1.34,2.56c-2.26,6.14-2,12.75-3.68,19C248.5,113.55,248.13,117.93,244.62,120.9Z"/><path class="cls-104" d="M213.4,151.08c0,.95,0,1.89-.05,2.84,0,2.52.12,5.05,0,7.56-.16,2.68,1.38,6.65-.78,7.76-3.27,1.69-6,5.43-10.78,4-2.27-.69-4.92-.12-7.45,1.28,3.61,0,7.25.33,10.82-.07,7-.78,11.41,1.63,13.33,8.62.81,3,2.37,5.7,3.65,8.7-8.92-1.84-17.13-6.48-26.37-3.69,10.29,2.31,21.3,2.13,30.88,9.14v-8.8c-1.76-.12-.2,2.33-1.22,2.58-8.2-10.24-9.79-22.43-10.62-34.84C214.66,154.37,215,152.46,213.4,151.08Z"/><path class="cls-105" d="M234,131.86c.74,4.61,4,7.68,7.11,10.57,4.11,3.78,7.14,8.67,12.07,11.57,3.33-4.91,2.1-9.86.12-14.81-1.94-3.8-5.89-4.3-9.33-5.65C240.62,133.1,237.75,129.82,234,131.86Z"/><path class="cls-106" d="M265.55,141.47c1.17-5.21,4.91-9.7,4.21-15.48-.32-2.66-.07-5.4-3.52-8.1-1.34,7.8-6.64,13.44-7.58,20.92C259.91,142.42,261.48,145.17,265.55,141.47Z"/><path class="cls-107" d="M251.88,139.26c1.93,4.78,1.24,9.79,1.29,14.74a38.19,38.19,0,0,0,2,4.22c.9,1.43.58,4.39,2.79,4a5,5,0,0,0,3.68-4.42c2.84-7.69-.83-13.6-5.29-19.29-1.54-.81-2.32-3.58-4.67-2.16C250.74,137,251.29,138.32,251.88,139.26Z"/><path class="cls-108" d="M231.18,247.35c-3.56-9.59-6.39-19.33-5.78-29.74-.84-3.85-4-2.9-6.58-3.19q4.25,17.91,8.48,35.82l3.64-1.55A3.07,3.07,0,0,0,231.18,247.35Z"/><path class="cls-109" d="M276.35,5.59c-5.52,7.93-4.2,18.1-9,26.26,6.08-7.71,7.16-17.09,9.14-26.16Z"/><path class="cls-110" d="M229,182.91c5.38-7.54,4.61-16.48,5.75-25C230.88,165.77,232.33,174.88,229,182.91Z"/><path class="cls-111" d="M261.54,107.1c6.54-5,13.82-9.2,18.23-16.68-4.92,6.9-14.91,7.91-18.25,16.64Z"/><path class="cls-112" d="M233.94,204.73c4.11-5.43,6.46-11.74,8.63-18.14-3.21,5.88-7.83,11.07-8.58,18.19Z"/><path class="cls-81" d="M313.45,126c.23-5.56,1.25-11.23-2.54-16.15A57.45,57.45,0,0,0,313.45,126Z"/><path class="cls-113" d="M234,204.78c-5.64,2.14-1.41,5.31-.05,8.16v-8.21Z"/><path class="cls-114" d="M82.67,217.46c3,0,5-1.7,7-3.62,9.63-9.1,15-8.49,22.83,2.44.64.89,1.34,1.74,2.22,2.86,2.22-1.72-2.37-7.45,3.77-6.15a1.51,1.51,0,0,0-.13-1.91c-4-4.35-4.16-16.85.39-22.05,10-11.47,12.17-25,11.23-39.51-.19-2.88.41-4.87,3.13-6.11,1.36-.62,3.24-.82,3.21-3-8.37-.63-16.64.39-25,1.1a103.7,103.7,0,0,1-23.63-.26,51.33,51.33,0,0,0-14.61.25,2.57,2.57,0,0,0-1.33,1.38A17.76,17.76,0,0,1,67.24,154c-1.15,1.31-1.63,2.15-3.7,1-4.65-2.56-6.5-.1-7.11,4.53-.71,5.41,1.3,9.74,4.53,13.76.48.76.83,1.95,1.64,2.11,8.77,1.8,10.95,10.32,15.89,15.87,3.92,4.4,1.25,15.62-3.7,20.29-1.87,5.29,4.76,2.52,5.26,5.55A2,2,0,0,0,82.67,217.46Z"/><path class="cls-115" d="M55.36,94.71c1,.57.81,1.1-.06,1.6-2.94,2.46-6.23,4.57-8.21,8l9.45.1a2.06,2.06,0,0,0,2.91,0,93.24,93.24,0,0,1,38,8.54c7.59,3.59,15.09,1.82,22.64,2.33,1-5.35-3.18-8.56-5.3-12.62-6.23-1-12.32-3.06-19.47-2.33,3.07-4,0-6.67-1.53-9.7-2.82-8.33-9.4-9.12-16.75-8.35a1.61,1.61,0,0,0-2.29,0c-3.94,1.4-1.79,4,0,7.63-6.65-4.18-10.79-2.79-14.3,2.17C59.49,93.46,57.1,93.86,55.36,94.71Z"/><path class="cls-116" d="M93.81,90.64a3,3,0,0,0,.67,4.21c.82.7,1.63,1.51,1,2.91-1.31,2.65,0,4,3.4,3.92,5.24-.2,10.26,2.22,15.56,1.35,2.18,4.65,6.24,8.34,7,13.72,3.59,1.45,6.56,4.41,10.81,4.26,2-.06,2.39,1.42,3,3,1.14,3.12,3.29,5.26,6.92,5.27l5.5,2.42c1.63-2.91-.21-5.38-1.28-7.74-2.71-6-4.55-12.46-8.17-18.07-5.21-6.08-11.88-8-19.62-6.93-8.32,3-15.5,1.51-21.13-5.59C96.38,92.14,95.69,90.65,93.81,90.64Z"/><path class="cls-5" d="M30.49,127c-.51,4.4,2.13,7,6.18,8.22s6.39-1.21,8-4.56c1.84-3.75-1.61-3.94-3.5-5.16-1.33-.87-2.69-1.67-4.05-2.49-1.61-1-2.84-3.6-5.09-2C30.32,122.26,30.48,124.64,30.49,127Z"/><path class="cls-117" d="M59.45,104.42H56.54c-8.55,13.4-10.08,24.28-5.63,42.81C50.11,132.19,47.75,116.84,59.45,104.42Z"/><path class="cls-118" d="M71.79,142.88l1.33-1.38c-2.54-1.82-2.68-4-2.13-7.06a84.32,84.32,0,0,0,1-17.84c-2.92,4.83-.71,10.33-2.36,15.3-.64,1.93-.74,4.08-1.63,5.86C65.82,142.18,68.19,142.9,71.79,142.88Z"/><path class="cls-119" d="M121.36,116.75c1-6.26-4-9.5-7-13.72.41,4.79,4.37,7.91,5.72,12.26C120.53,115.77,120.94,116.26,121.36,116.75Z"/><path class="cls-120" d="M329.91,206.23c3.38,5.59,2.45,13.34,8.75,17.46,6.5-3,13.41-2.66,20.3-2.52.51-.28.68-.55.5-.82s-.36-.38-.54-.38c-5-4.38-8.43-10.42-14.82-13.4C339.28,204.33,334.7,203.89,329.91,206.23Z"/><path class="cls-121" d="M358.92,220a5.36,5.36,0,0,1,0,1.2,16.65,16.65,0,0,0,3.8,1.49c6.41.86,9.33,4.68,10.05,10.86.2,1.68.14,5.14,2.83,4.06,2.46-1-.43-2.92-.94-4.46s-.81-2.9-1.76-6.39c6.89,6.26,11.88,12,21.15,13.54-5.17-5.41-11.92-5.93-15.33-11-.83-1.23-3-1.84-2.16-3.82.61-1.42,2.26-1.19,3.59-1.51a20.16,20.16,0,0,1,13.23,1.35c.48-.47,1.3-.57,1.45-1.38a14.93,14.93,0,0,0-13.55-2.4C373.39,224.11,366.3,221.56,358.92,220Z"/><path class="cls-122" d="M299.15,193.65c5.38-10.27,2.27-22.5,7.39-33C299.31,170.53,300.58,182.32,299.15,193.65Z"/><path class="cls-123" d="M394.87,223.91l-1.45,1.38c6,1.29,11.18,5.24,17.54,5.23C406.78,225.45,400.31,226,394.87,223.91Z"/><path class="cls-124" d="M316.38,203.28c-5.9,2.18-7.35,8.14-10.46,12.76,4.74-3,6.46-9.16,11.82-11.46Z"/><path class="cls-125" d="M261.87,188.39c-.2,5.44-1.81,11,.91,16.23.47-5.33,1.21-10.65,1.32-16C264.19,184.91,262.74,187.59,261.87,188.39Z"/><path class="cls-126" d="M125.46,184.15c-.44,9.65-7.32,17.63-7.13,27.45,0,.47.11.93.17,1.39s0,.8,0,1.2c1.13,2.23,4.9,3.45,2.7,7l5.4.11a5.14,5.14,0,0,0,1.29-1.42,41.65,41.65,0,0,1,5.73-11.92c2.94-4,1.79-5.42-3-5.33-2.5,0-4.59,1.08-6.59,1.63,5.45-3.64,13,.83,18.43-4.28,2.49-2,5.24-3.69,7.56-5.9,1.48-1.39,3.4-2.9,2.84-5.12-.63-2.47-3.21-2.23-5.18-2.35a20.32,20.32,0,0,1-8.57-2.07C134.68,181.07,130.08,182.26,125.46,184.15Z"/><path class="cls-127" d="M132.2,247.54l-1.4,1.24c1.12,2.45,2.36,4.76-2.07,5.24a23.1,23.1,0,0,0-7.75,2.55c-1.15.58-2.83,1.15-2.24,2.85.49,1.44,2.13,1.48,3.49,1.52a11.67,11.67,0,0,0,3.37-.47c6.81-1.88,13.62-3.6,20.78-1.87a6.6,6.6,0,0,0,4.63-.81,2.23,2.23,0,0,0,1-1.64c-4.76-7.14-7.41-15.46-12.54-22.41-2.29-3.1-4.44-6.28-7.46-8.74a3.84,3.84,0,0,0-2.8-.85c-1.78,2.25.4,3.33,1.51,4.49,6.42,6.7,10.48,14.84,15.31,24.47Z"/><path class="cls-128" d="M82.67,217.46l-2.62-.37c1.4,1.77,2.47,4.52,4.27,5.13,7.2,2.44,13.88,5.55,19.59,10.8-2.21-5.55-7.21-7.8-12.11-9.94C88.45,221.62,84.8,220.83,82.67,217.46Z"/><path class="cls-129" d="M61.87,358.15,69,359c4.41-2,2.39-7.16,5-10.32,3-3.61,4.91-8.11,7.3-12.22,3.06-3.34,1.93-7.33,1.49-11.08-.79-6.64.23-12.23,6.79-15.72,3.5-1.87,4.56-5.61,5.5-9.15,1.39-5.26,4.77-7.61,10.06-7.26,8.31.56,15.84-.24,21-8.27,2.16-3.37,6.07-2.41,9.45-1.3,5.64,1.85,11.22,3.94,17.21,4.46,5.77.5,7.68-1.31,6.64-7-.94-5.13-2.94-10-5.2-15.64,0,0,1.76.6.84.61-.33,0-.43.21-.28.62,2,5.1,4.15,10.15,4.87,15.61.36,2.79-.88,6.51,4,6.12,4.22-.33,8.4-1.08,8.82-6.61a15.77,15.77,0,0,0-1.66-9.3c-6-5.17-10.66-12-18.36-15.15-5,.26-10.1.69-14.27,3.72-7.22,5.23-14.07,2.69-20.19-1.35-5.72-3.8-11.41-5.23-18-4a8.09,8.09,0,0,0-4.74,4c-3.89,5.13-6.74,11.13-12.38,14.79.23,4-1.75,7.18-4.3,9.74-8.5,8.52-10.65,20.09-14.81,30.6-3.83,9.68-4.41,20.27-5.64,30.58-.5,4.22-2.9,7.4-5.07,10.69C56,358.45,59.35,356.2,61.87,358.15Z"/><path class="cls-130" d="M60.8,371.22c3.94.22,4.24-2.31,4.11-5.31-.15-3.51-2.79-2.62-4.88-3.12-3-.71-7,2.22-8.83-2.4q-4.76,4.64-9.52,9.24Z"/><path class="cls-131" d="M30.49,337.36c-4.44,5.38-5.66,9.73-4.37,14.83C27.39,347.86,28.67,343.53,30.49,337.36Z"/><path class="cls-132" d="M338.13,353.59c2.55,7.38,7.4,13,13.86,17.42Z"/><path class="cls-133" d="M357.69,331.22c-6.11-6.24-14.13-8.64-22.15-11.05C342.17,325.37,350.09,328,357.69,331.22Z"/><path class="cls-134" d="M319.52,307.71l-1.69.12c3,3.83,6.08,7.55,10.74,9.5C326.27,313.44,324,309.54,319.52,307.71Z"/><path class="cls-44" d="M318.94,330c1.07,4,3.74,7.06,6.42,10.1-.39-4.39-3.3-7.37-6-10.5Z"/><path class="cls-135" d="M169.45,272.12c.39,2.7,1,5.38,1.14,8.09.2,4.67-3.67,7.7-8.13,6.89-2.22-.4-1.29-1.79-1.48-3-1.15-7.47-3.41-14.56-8.15-20.81,1.71,5.25,3.69,10.43,5.07,15.76,1.76,6.77.6,7.68-6.24,7.1-5.82-.49-11.14-2.61-16.46-4.56s-9.41-1.08-12.23,3.92c-3,5.34-7.39,6.52-13.28,5.91-12.37-1.29-13.06-.67-17.1,11.14-.94,2.76-2.07,5-4.9,6.14-6.89,2.74-7.66,8.74-7,14.79a106.28,106.28,0,0,1,.64,13l.21,1.78c12.66-3.56,25.69-5.15,38.63-7.3,2.21-.37,4.6.2,6.65-1.11l0,0c5.73-1.78,11.65-3.1,16.54-6.9l0,0c1.5-.53,3.2-.82,4.16-2.21,2.24-3.26,4.18-7.34,2.62-10.73-1-2.18-4.89.28-7.43.81-11.23,2.35-22.61,3-34,3.15A78.8,78.8,0,0,0,93,316.16c6.26-2.38,14.09-2.05,21.87-2.3,13.23-.42,26.26-2.11,38.86-6.41,8.2,5.2,12.15,14.63,18.5,19a116.43,116.43,0,0,1-11.39-12.52c-2.06-2.54-4.08-5.56-7.83-6.14-3.14,5-5.41,10-1.41,15.64.86,1.2,1.71,2.41,2.56,3.61,3.94,6.11,5.37,13.29,8.44,19.77-.09,2.15,2,3.13,2.63,4.86l4.38,3.76a11.93,11.93,0,0,1,6.07-7.9c3.79-2.13,3.51-6.13,3.34-9.8-.22-4.8.1-8.7,5.92-10.64,5.2-1.74,8.39-6.2,9.13-11.87.41-3.19,2.43-5.29,4.38-7.5,1.77-6.15-.71-12-1.26-18-2.75-4.9,2.87-8,2.67-12.35a7.88,7.88,0,0,0-5.51-1.94,37.71,37.71,0,0,0-5.76,1.08,29.22,29.22,0,0,0-7.28,3.7c-5.13,3.22-6.45,2.57-7.54-3.39a11.38,11.38,0,0,0-.85-3.3C172,272.38,171,271.59,169.45,272.12Z"/><path class="cls-136" d="M169.24,364.05c1.4,4.47,3.25,8.54,1.82,13.8-1.24,4.57-3.42,7.29-7.34,9-9.59,4.25-13.29,13.72-19.09,21.33,6.85-2.78,8.69-10.29,13.85-14.68,1-.87,1.6-2.31,2.69-3,1.67-1.09,3.54-2.9,5.51-2.17,2.44.92,1.2,3.6,1.28,5.49a139.15,139.15,0,0,1-1.84,28.8l2.41.24c.85-11.38,1.7-22.77,2.66-35.55,5.31,8.21,13.76,12.32,15.75,21.46a2.11,2.11,0,0,0,2.55,1.71c-.81-8-6.16-13.3-11.27-18.72-4.18-4.45-7.64-9-4.83-15.75.65-1.56-.17-3.68.19-5.44.44-2.15-2.62-4.42.06-6.27,2.91-2,5.31.46,7.5,1.71,7.28,4.14,11.32,11.38,16.61,17.54-1.32-7-6.7-11.46-11.13-16.44-4.63-5.22-10.26-7.45-17.11-4.25A7.06,7.06,0,0,0,169.24,364.05Z"/><path class="cls-137" d="M209.23,292.72c4.42,8.25,3.64,14.7-2.63,21.79,1.77,2.42,0,6.15,3,8.12,7.89-11.45,7.81-26,14.77-37.84l-.57-.81C217.35,284.24,212.93,287.88,209.23,292.72Z"/><path class="cls-138" d="M217.67,89.76l5.26,7.55c1.84,2.2,2.33,5.29,4.66,7.28,2.93-1.15.46-4.29,2.27-5.72l0,0c2.12-9.31,4.38-18.57,4.25-28.25-.05-3.52-1-5.16-4.67-4.8-1.59.15-3.22-.09-4.8.09-10.35,1.19-14,7.55-9.61,16.85C216.05,85.06,217.75,87.07,217.67,89.76Z"/><path class="cls-44" d="M348.88,267c-12.72-1.36-25.59.69-38.27-1.76-2.41-.47-5.15.22-6.62-2.56l-3.11-3.74c-.46,4.29-.42,8,4.58,9.08,2.15-2.3,4.58-.8,7-.63C324.59,268.22,336.75,268.9,348.88,267Z"/><path class="cls-139" d="M283.36,277.48l8.9-5.5C286.72,271.41,284.88,274.24,283.36,277.48Z"/><path class="cls-140" d="M95.23,259.79l4.33-2.41c2.76-3.25,8.11-4.4,8-9.95l-.14-.15C99.15,251.32,96.58,254,95.23,259.79Z"/><path class="cls-141" d="M59.36,262.68l-6.49,9.2C57.07,270.46,58.85,267,59.36,262.68Z"/><path class="cls-142" d="M348.16,99.18c9.48-2.11,16,2.53,21.65,9.36l1.53,1.41c2.62.24,2-1.45,1.77-2.94-.59-4.83-5.8-8.17-4.38-13.64-3.23-1.28-4.75-4.58-7.91-6.21-7.06-3.65-13.83-5.09-20.94-.54Z"/><path class="cls-143" d="M373.11,107c-.39,1.1-.32,2.47-1.76,2.94,7.82,6,4.08,15.6,7.28,23,2.51-2.76.17-5.46-.06-8.2-.16-2-.65-4.74.38-5.78,1.61-1.62,3.53.75,5.28,1.52a33.66,33.66,0,0,1,3.45,2l.5-.44c-.48-3.51-4.72-3.1-6.49-6.42,7.58.43,14-3.5,21.28-3l.1-.12c-5.42-3.5-10.44-.11-15.52,1C379,115.49,376.32,114.39,373.11,107Z"/><path class="cls-144" d="M387.68,122.56c1.83,5.46,4.69,10.13,10.72,12.45l-10.22-12.89Z"/><path class="cls-145" d="M396.22,79.37,379.61,88C386.27,87.27,392,84.82,396.22,79.37Z"/><path class="cls-146" d="M379.69,87.9c-4.56.09-8.83.77-11.05,5.54C372.43,91.79,376.48,90.69,379.69,87.9Z"/><path class="cls-143" d="M403,112.71c2.54,2.39,5.75,3,10.19,4.34-3.53-3.65-6.55-4.72-10.09-4.46Z"/><path class="cls-147" d="M157.08,522.22c13.29,5.51,17.48,3.72,21.23-8.52C170.66,514.9,164.38,518,157.08,522.22Z"/><path class="cls-148" d="M174.77,459.15c-1.7-1.32.07-4.11-2.28-5.29-3.25,3.53-1.08,7.52-.33,12.28-4.64-3.82-1.49-8.77-3.9-12.45-3.56,3.09.49,7.84-2.9,10.53,3.27,4.53,8,2.92,12.33,2.84,3.09-.06.67-2.63,1.36-3.86l.06-1.6c.86-1.23,1.17-2.57,0-3.65s-2.07-.17-2.93.6c-.53,1.27-.95,2.55-.19,3.9C175,461.55,176.05,459.93,174.77,459.15Z"/><path class="cls-149" d="M176.43,459.22c3.37-2,2.17,1.15,2.68,2.38l5.24.61-5.08-7.32-1.57-1.58a3.36,3.36,0,0,0-1.3,1.42C176.17,456.23,174.71,457.74,176.43,459.22Z"/><path class="cls-150" d="M260.11,364.21c-2.75-3.24-6.91-5.26-8.3-9.67-.06,6.69-7.09,10.3-7.67,17.14,4.36-2.09,4.2-7.09,7.23-9.73,5.66,7.43,6.22,13.15,1.83,18.72a1,1,0,0,0,.14,1.8l4.49-3.8c4.88,3.82.53,11.15,6.08,14.43.63,2.91.92,5.93,2.85,8.4l.4-.33c-.91-4.1-1.94-8.18-2.64-12.31-.23-1.3-2.29-3.53,1.08-4-5.85-5.9-8.27-13.4-10.4-21.62Z"/><path class="cls-151" d="M253.34,382.47c-.05-.6-.09-1.2-.14-1.8-3.26,4.08-8.22,6.71-11.25,10.49-7.23,9-12.15,19.47-11.73,31.61,3.49-8.74,5.18-18.14,10.68-26.17C244.51,391.32,251,388.78,253.34,382.47Z"/><path class="cls-73" d="M250.41,338.31l-5.46-.19c-.67,1.94-3.07,3-2.72,5.44,1.85-.8,3.51-3.37,4.94,1,1.11,3.4,1.53,7.44,4.67,10,.52-3.78-1.47-7-2.37-10.42-.38-1.45-2.76-3.92,1-4.71C250.45,339.07,250.43,338.69,250.41,338.31Z"/><path class="cls-152" d="M230,387.67c-2.13,3.76-4.32,7.49-4.21,13.72L231.24,389C231.89,387.53,231.2,387.37,230,387.67Z"/><path class="cls-153" d="M230,387.67l1.22,1.29c1.64-2.46,4.3-4.29,5.29-8.08C232.26,381.91,231.66,385.28,230,387.67Z"/><path class="cls-154" d="M170.78,151.36l-.67-.13c-13.16-2.75-13.16-2.75-13.18,10.82,1.12,6.18,3.56,11.07,10.94,11.11.11-3,.09-6.14,2.88-8.25l0,0Q170.77,158.12,170.78,151.36Z"/><path class="cls-155" d="M167.87,173.16c-5-2.39-8.14-6.58-10.94-11.11a16.7,16.7,0,0,0-12.27,9.73c7.73,5.57,16.14,8.55,25.79,6.8,2.35-1,3-3,3.09-5.31Z"/><path class="cls-156" d="M172.23,177.06c-10,2.44-18.44-3.18-27.57-5.28h0c-3.67,3.76.41,3.84,2.3,4.37,4.58,1.29,9.12,2.47,12.2,6.51,2,.68,5.39-.1,3.84,4.17-.46,1.25-.2,3.4,2.37,2.94,5.48-4.86,10.57-10.49,19-9.41a4.23,4.23,0,0,0-2.27-4.48C178.91,177.22,175.32,175.06,172.23,177.06Z"/><path class="cls-157" d="M170.75,164.91c-.09,2-.17,4-.28,6.34,5.46-.46,7.43-5.18,9.1-8.74,1.31-2.77-2.12-5.53-4.73-7.57-3.77,2.37-1.13,7.32-4.07,9.94Z"/><path class="cls-158" d="M200.34,163.81l-9.65-10.2L189.2,155C192.51,158.33,195.34,162.1,200.34,163.81Z"/><path class="cls-159" d="M260.22,394.46c-1.13-3.63-2-1-2.22.24-2.81,13.69-7.29,27-8.92,41,4-3.26,2.87-8.27,4.06-12.45C255.86,413.73,256.85,403.8,260.22,394.46Z"/><path class="cls-160" d="M290.14,412.15c-.07-1.11.28-2.54-.28-3.29-6.89-9.22-14.32-17.93-24.31-24,6.2,6.73,12.42,13.43,18.58,20.19C286.22,407.31,288.14,409.77,290.14,412.15Z"/><path class="cls-161" d="M266.76,401.5q3.67,14.42,7.36,28.82c.24-10.36-3-19.85-7-29.15Z"/><path class="cls-162" d="M231.14,314.78c4.39-.49,3.46-6.33,8-7.47,1.67,8.68,8.24,14.5,13,22.41,1.09-8-6.75-10.22-8.21-16.34-1.34-5.6-4.28-10.9-5-17.37l5.66.87.31-.72L234,289.93l-.87.42c-1.57,2.74-8.16,5.71,1,7.7,3,.65,1.4,4.54.16,7.06-1.51,3.06-5.16,5.47-3.14,9.69Z"/><path class="cls-163" d="M224.37,284.79a3.88,3.88,0,0,1,1.22-.23c3.57.61,3.1,7.4,8.34,5.46l.09-.09c.07-3.37,2.32-3.94,5.06-4.08a22.28,22.28,0,0,0,9.59-2.45c-8-.92-16.17,2.63-24.17-.43-.34.2-.47.44-.4.7s.15.41.25.41A.7.7,0,0,1,224.37,284.79Z"/><path class="cls-164" d="M168.08,130.51l1.29,1.35c4.4-8,4.94-16.9,6.31-25.62-4.1,1.56-2.93,5.53-3.29,8.36A65.13,65.13,0,0,1,168.08,130.51Z"/><path class="cls-165" d="M74.77,82.27l2.29,0c-5.49-6.85-12.2-11.5-21.29-11.9C62.09,74.37,69.93,75.92,74.77,82.27Z"/><path class="cls-166" d="M109.81,699.83l.42-4.73c-3.22-.54-3,3.69-5.73,3.73-.23-3.23,3-4.36,3.91-6.94-3.35-2.24-4.22,2.52-6.76,2.37l-.94,2.34c-1.4,8.28-.53,9.09,6.91,6.48Z"/><path class="cls-167" d="M107.62,703.08c-6.75,2.59-7.29-1.46-6.91-6.48-2.46,2.5-2.62,5.78-.33,7.72C102.29,705.94,105.82,707,107.62,703.08Z"/><path class="cls-168" d="M224.35,284.08a3,3,0,0,1,.15-1.11,2.94,2.94,0,0,0-.41-1l-8-7.06c-.92-3-2.73-5.08-6-5.66-2.48-.82-4.38.06-5.93,2-1.57,2.15-5,2.83-4.95,6.29-1.14,3.62-7.74,5.31-3.8,10.73,5.14-.17,9,3.63,13.78,4.49C214.67,290.54,218.57,285.66,224.35,284.08Z"/><path class="cls-169" d="M226.9,255.39c1,6.05-1.44,12.55,2.69,18.2-2.53-5.88.73-12.49-2.66-18.25Z"/><path class="cls-170" d="M209.25,270.69c3,.19,4.94,2.19,6.85,4.18,0-.51,0-1,.05-1.53-.94-3.67.89-7.66-1.27-11.2C213.28,265.17,210.54,267.45,209.25,270.69Z"/><path class="cls-171" d="M229.86,98.87c-2,.83-.54,3.32-2.07,4.43-2.1-1.63-1.93-5.08-4.86-6-.21,2.67,2,4.49,2.57,7.18-3.7,1.25-6.58-2.63-10.55-1.48,2.44,2.6,5.7,2.6,8.42,3.57,5.77,2.07,6.21,7.16,7.32,11.92,0,.18-1.46.72-2.23,1.1,2,1.72,4.35,2.16,6.84,2.32C231.91,114.6,228.77,107.23,229.86,98.87Z"/><path class="cls-172" d="M49.28,718.05c3.67,4.28,7.35,6.07,11.93,4.61,2.87-.92,4.55-3.35,3.71-6.39-.94-3.41-3.64-1.65-5.64-1.16C56.22,715.86,53.23,716.87,49.28,718.05Z"/><path class="cls-173" d="M107.56,247.43c-1.69,4.11-6.93,5.35-8,9.94,8.08-2.23,14.71,1.47,21.07,5.51s12,3.93,18.35-.17c4.08-2.63,8.5-5.56,14-4.54.18-1.15-.36-1.68-1.49-1.68-10.73-.62-21.39-.35-31.8,3.27,5.37-3.78,11.77-4.19,17.64-6.39-1-3.53-4.87-2.46-6.49-4.59-1.73-.52-3.64-.73-5.16-1.61C119.51,243.65,113.52,242.88,107.56,247.43Z"/><path class="cls-174" d="M47.57,695.4c-5.14.26-7.19,1.77-7.31,4.88-.08,2.23,1.65,3,2.81,1C44.05,699.56,43.86,697.2,47.57,695.4Z"/><path class="cls-175" d="M154.56,307.56c-.74-.93,1-4.87-2.74-2.17-8.21,5.88-17.86,5.82-27.35,6.67-12.76,1.13-25.85.21-38,5.84,20.51-5.89,42.35-.49,63-8.3-.25,5.84-1.88,10.24-6.24,13.36.51,7-4.66,11.58-7.1,17.32-.33.79-1.25,1.36-.37,2.79,6.28-4.26,7-11.64,10-17.61,1.53-3,2.57-4.81,5.74-2-1.48-5.47-1.3-10.67,2.49-15.28Z"/><path class="cls-176" d="M126.81,347.78c2.56,2.58,1.5,6.05.85,8.49-3.41,12.79-3.8,26.38-9.49,38.6,8.62-12,7.42-27,12.24-40.33L133.89,371c1.13.21,1.91.12,1.18-1.33-.2-8.19-4.68-15.93-2.06-24.38a6.54,6.54,0,0,0-6.33,2.38Z"/><path class="cls-177" d="M123.39,356.71c-11.78,11.36-23.17,23.12-31,37.74C102.07,381.34,113.38,369.6,123.39,356.71Z"/><path class="cls-178" d="M126.8,329.82c-15.37,1.29-30.79,2.38-45.28,8.41.75.39,1.71,1.29,2.23,1.08,12.92-5.14,26.91-4.83,40.21-8C125.07,331,126.18,331,126.8,329.82Z"/><path class="cls-179" d="M114.44,352,93.65,365.41l.29.33c8.46-1.37,14.06-7.55,20.56-12.22C115.23,353,115.2,352.47,114.44,352Z"/><path class="cls-180" d="M162.55,346.8c-1.79-7-2.84-14.37-8.44-19.77C156.18,333.94,158.19,340.87,162.55,346.8Z"/><path class="cls-181" d="M93.65,365.41c-6.8,1.47-13.51,3.14-18,9.4,5.2-4.91,12.82-4.65,18.24-9.07Z"/><path class="cls-182" d="M135.07,369.62c-.4.44-.79.89-1.18,1.33,2,4.92.5,10.23,1.58,16.11C139,380.56,137.24,375.08,135.07,369.62Z"/><path class="cls-175" d="M143.29,322.94l-16.54,6.9C133,329.18,139.19,328.62,143.29,322.94Z"/><path class="cls-183" d="M114.44,352l.06,1.51c4.11-1.89,8.88-2.38,12.31-5.73l-.13-.16C122.17,347.87,118.24,349.76,114.44,352Z"/><path class="cls-184" d="M66.14,360.34H55.52l0,.68H66.12Z"/><path class="cls-98" d="M177.68,454.73c0-.47,0-1,0-1.42.24-4.25,7.5-7.29.92-13.74,2.55,5.67-1.05,8.43-2.44,11.95C175.59,453.09,174.86,454.74,177.68,454.73Z"/><path class="cls-185" d="M177.68,454.73c-1.39-.66-1.43-1.94-1.5-3.21a1.72,1.72,0,0,1-1.21.42c-.07,2.41-.13,4.81-.2,7.21l.83,5.59.83-5.52C176.84,457.73,177.26,456.23,177.68,454.73Z"/><path class="cls-186" d="M151.45,256.49l1.49,1.68c5.54,4.61,10,10.45,16.51,13.95l3,1.68a17.8,17.8,0,0,0,16,3.93c1.82-.58,4,.47,5.57-1.17-3.62-5.85-10.59-7.33-15.35-11.73-2.25-2.08-5.68-2.95-6.8-7.07,5,.09,8.07,2.94,10.87,6,6.11,6.72,13.45,9.85,22.55,8.37,1.13-1.08,2-2.77,4-1.46,4.34-1.23,6.34-4,5.63-8.55a.82.82,0,0,0-.26-1c-2.16-.6-3.22.63-4,2.46.29-2.44,1.66-4.49,1.93-6.85a13.29,13.29,0,0,1,.6-8.6c3.59-8.65,1.12-18.44-7.9-22.81-6.57-1.19-3.11,5.2-6,7.43-1.64.32-2.18-2.13-3.85-2.63-2.36-.7-4.56-.82-6.33,1.1-2.05,2.23-1.05,4.38.81,6,3.15,2.67,3.59,6.18,3.7,9.9a3.32,3.32,0,0,0,2,2c4.84-3.29,6.81-8.65,10.11-14.21-.21,7.07-1,13.34,1.19,19.6,1,3-.61,6.62-3.18,9.14-5.47-2.25-8.05-7.76-12.61-11a7.66,7.66,0,0,0-1.67-.89c-2.58-.8-5.85-.58-4.83-5.18.43-2-1.09-4.21-1.49-6.39a14,14,0,0,0-.55-1.81c-.66-4.84-5.78-6.51-7.52-10.59-5.1-4.76-12.35-7.23-14.86-14.75,2.64,8.13,11.53,9.91,15.8,16.37.7.87,1.45,2,2.67,1.45,1.75-.82,1.77-2.65,1.2-4.09-1.59-4-1.7-8.29-2.83-12.36-.36-3.63-2.07-6.91-2.8-10.41-.46-2.25-1.63-4.89.86-6.89,1.07-.56,2.23-1,2.88-2.09-5.75-2.16-10.65-.09-15.35,3a14.4,14.4,0,0,0-4.65,1.94c-8.49,8.47-8.77,14.75-1.29,28,2.79,3.18-1.83,7.14,1,10.32,3.56,5.45,7.63,10.67,7.81,17.56-4.69,1-9.35-3.9-14,0Z"/><path class="cls-170" d="M194.12,247.36c2.36-4,1.31-7.4-1.81-10.38-1.48-1.41-5-2.18-2.28-4.95,2.38-2.43,5.08-1.12,7,1.25a23.61,23.61,0,0,1,2,3.6c2.61-1.72,3.22-4.28,3.28-7.06,0-2.11,0-4.23,2.87-4.49-8.18-4.7-10.08-13.87-14.91-21-5.42,4.76-5.35,11.92-7.9,18-1.75,5.54-3,11.11-.64,16.81l0-.06c2.21,4.93,2.38,11.07,8.28,13.79l0,0C195.17,253.63,195.69,252.93,194.12,247.36Z"/><path class="cls-187" d="M177.93,195l-4.85.55c-1.91,6.15,2.25,11.37,2.61,17.17,1.27,2.75,1.19,5.79,1.88,8.66.53,2.17.54,5.25,3.3,5.23,2.5,0,1.43-3.37,2.56-4.93a171.89,171.89,0,0,1,6.5-18.28C188,197.68,183.76,195.19,177.93,195Z"/><path class="cls-188" d="M159.47,200.4a3.84,3.84,0,0,0,3.1-2.37c-1.22-3.48,2.28-5.36,2.79-8.26-2-1-1.08-2.54-.83-4.1.29-1.77,3.32-3.58.68-5.22-2.09-1.3-3.51,1.42-5.29,2.21-2.29-.7-2.86,1.26-3.89,2.51-2,4.94-3.85,9.91-4.23,15.29a4.07,4.07,0,0,0,.85,1.7C155.41,203.48,157,200.1,159.47,200.4Z"/><path class="cls-189" d="M189.93,203.4c-4.14,5.23-5.49,11.53-6.82,17.83-.62,1.44.09,1.61,1.27,1.34l5.92-18.19A1.1,1.1,0,0,0,189.93,203.4Z"/><path class="cls-170" d="M212.51,256.74c-3.37,2.39-3.72,5.58-2.33,11.22,1.1-3.91,2.24-5.87,4.44-6.83A6.18,6.18,0,0,0,212.51,256.74Z"/><path class="cls-190" d="M244.62,120.9c2.67,1.56,2.32-1.34,2.72-2.19,4.23-8.88,4.68-18.61,5.89-28.16-3.75,3.77-2.69,9-3.63,13.46A90.83,90.83,0,0,1,244.62,120.9Z"/><path class="cls-191" d="M255.86,138.85l.1-1.58c-2.57-4.2-7.77-2.75-11.16-5.19.14,1.19-.06,2.22-1.32,2.74,2.62,1.82,6.58,1.1,8.4,4.44C252.66,134,254.56,139.23,255.86,138.85Z"/><path class="cls-192" d="M65.43,164.66c-.38-2.93-.31-6.12-3.44-7.73-1.21-.62-2.93-.71-3.53.88-.89,2.38.88,1.57,2.19,1.72,3.18.37,2.6,3.23,3.09,5.33A1,1,0,0,0,65.43,164.66Z"/><path class="cls-193" d="M65.43,164.66l-1.69.2c.62.93,1.05,2.15,1.91,2.71,2.29,1.51-3.18,3.06.1,4.23,1.17.42,2.17-.47,2.68-1.55,1.25-2.66-.13-4.23-2.37-5.38A4.23,4.23,0,0,0,65.43,164.66Z"/><path class="cls-194" d="M100,177.05c3.64.42,6.84,1.48,9.87-1.35C104.69,174,104.69,174,100,177.05Z"/><path class="cls-195" d="M122.12,147.17c-2.62-3.61-5.51-4-10.12,0C116.42,146.45,119.36,145.83,122.12,147.17Z"/><path class="cls-196" d="M83.57,154.63c1.94,0,2.82.24,3,0,2-2.48,4.5,3.29,6.26-.44.23-.48.17-1.64,0-1.71C89.84,151.39,87.29,152.48,83.57,154.63Z"/><path class="cls-197" d="M114,150.58c2.38-.6,2.77,4.59,5.81,1.72.43-.41.92-1.54.74-1.71C118.53,148.49,116.31,149.61,114,150.58Z"/><path class="cls-155" d="M157.65,185.45l2.27-2.79c-1.42-7-7.85-6.29-12.61-8-1.66-.59-3.88.06-2.66-2.91-7.55,2.33-16.1,3.11-19.19,12.37,3.9,1.94,8.53-2.84,12.18,1.33a44.14,44.14,0,0,0,14,2.24A8.33,8.33,0,0,0,157.65,185.45Z"/><path class="cls-198" d="M157.65,185.45c-6.66,3-13.34.53-20,0,4.17,3.3,9.19,2.87,14.51,2.83-2.08,5.5-7.78,6.62-10.51,10.64l.57.75c3.43,1,5.36-1.73,8-3.26,1.05,1.64-1.43,5.16,2.55,5.34Z"/><path class="cls-199" d="M141.64,199c-3.94,1.74-7.85,3.32-12.36,3.06-3.58-.2-6.51,1.55-9.33,5.11,4.14-.72,6.68-3.55,10.25-3.78,4.81-.31,4.3,1.34,2.08,4.18a1,1,0,0,0-.41,1.08c.12.37.25.56.37.56,5.26-1.2,8.41-4.56,9.89-9.63C142,199.34,141.8,199.15,141.64,199Z"/><path class="cls-200" d="M132.45,209.26c-.06-.58-.12-1.16-.17-1.74-2.89,3.46-5,7.27-5.47,11.86l.56.22H128C132,217.22,133.18,213.66,132.45,209.26Z"/><path class="cls-37" d="M158.37,237.34c-1.89-3.11,3.84-6.1.15-9.24-1.27.54-.4,2.1-1.33,2.81.57-.78.12-1.49-.22-2.15a4.21,4.21,0,0,0-3.69-2.49c-3.32-.27-6.7.57-10-.59l-12.41-.3c6.85,8.25,12.92,17,16.67,27.14a4.67,4.67,0,0,0,3.92,3.31c4.77,0,9.42.62,13.68,3,1.15.64,2.08.81,2.69-.64C165.65,250.79,160.82,244.61,158.37,237.34Z"/><path class="cls-201" d="M143.31,225.68c3.24,1.35,6.44,4.78,9.76.15,0-.23.1-.57,0-.67-7.64-6.91-3.36-13.86-.1-20.82a3.56,3.56,0,0,0,.25-2l-.49-.57c-3.46-2.73,1.34-5.84-.44-8.78-3.54,2-6.15,5.34-10.15,6.52l-9.69,9.73q-2.22,5.17-4.46,10.34c1.93.5,3.86,1.33,5.88.51,5.93-2.42,10.16.5,14.29,4.39C146.77,226.33,144.81,225.07,143.31,225.68Z"/><path class="cls-202" d="M67.07,333.89c-1.83,4,1.37,7.32,1.06,11.13C70.38,341,67.55,337.56,67.07,333.89Z"/><path class="cls-203" d="M63.25,348.93q2.16,3.9,4.34,7.79l1.58-.77-4.35-7.82Z"/><path class="cls-204" d="M165.47,289.74c-1.3-1.55-2.81-1.17-4.35-.47-13.86,6.29-28.15,8.48-44.59,3.49,3.12,3.5,5.73,4,8.29,4.05,9.55.05,19.31,1.34,28.38-2.72,4.44-2,4.15.87,4.22,3.68,3.59-1.88,2.87-7.46,7.65-7.58Z"/><path class="cls-71" d="M154,308.14q10.69,11.79,21.37,23.59l1.67-1.47c-8.16-7-12.94-16.95-22.52-22.7A4.78,4.78,0,0,0,154,308.14Z"/><path class="cls-205" d="M177.58,301c5.47,5.39,10.62,10.95,10.06,19.57,2.63-8.4-.3-15.05-8.33-19.73A1.07,1.07,0,0,0,177.58,301Z"/><path class="cls-204" d="M177.58,301l1.73-.16c-3.88-4.61-8.16-8.72-13.84-11.08l-.4.44C168.41,294.74,173.36,297.44,177.58,301Z"/><path class="cls-206" d="M233.93,290c-3.79-.28-3.89-6.2-8.34-5.46a22.22,22.22,0,0,1,2.17,15.17c-1.1,5.36-1.9,11,3.38,15.07.62-4.23,3.5-7.26,5.78-10.54s.18-5.74-.89-8.19c-1.36-3.14-3.25,1-5.38.08C231.25,293.85,234.24,292.7,233.93,290Z"/><path class="cls-170" d="M203.88,265.23c5-2.56,6.42-8.06,4.83-11.72-2.57-5.92-1.56-11.32-1.06-17,.16-1.89.47-4.16-1.62-4.73-3-.8-1.83,2.25-2.59,3.56-2.6,4.48-5.23,8.94-7.85,13.4-2.09,4.25-1.19,7.78,2.44,10.79C200.12,261.26,201.75,263.51,203.88,265.23Z"/><path class="cls-104" d="M184.38,222.57l-1.27-1.34c-1.81,1-.93,3.38-2.36,5-3.31-4-1.7-9.41-4.48-13.25a3.23,3.23,0,0,0-1.28,1.36c1.81,4.56,1.11,9.77,3.78,14.14.46.75,0,1.9-1.33,1.19-.53-.3-.85-1-1.26-1.52s-.9-.56-1.35,0c1,4.5,5.66,6.69,6.93,11A40.9,40.9,0,0,1,184.38,222.57Z"/><path class="cls-207" d="M174.83,228.12h1.35c-5.36-6.88-14.26-10.22-18.25-18.49C160.63,218.54,166.55,224.43,174.83,228.12Z"/><path class="cls-208" d="M203.88,265.23c-.33-3-2.55-4.76-4.57-6.4a9.8,9.8,0,0,1-3.72-10.1l-1.47-1.37c.11,2.95.16,5.86-4.13,5.49C194.32,257.3,197.31,263.27,203.88,265.23Z"/><path class="cls-104" d="M190,252.87l-8.28-13.79c-1.65,3.63,4.11,7.44-.28,11C183.81,252.53,186.79,253.05,190,252.87Z"/><path class="cls-209" d="M175,214.32l1.28-1.36q-1.59-8.72-3.19-17.41c-2.59,3.7-1.11,7.47.12,11A23.1,23.1,0,0,1,175,214.32Z"/></svg>